<svg version="1.1" viewBox="0.0 0.0 447.0 277.0" fill="none" stroke="none" stroke-linecap="square" stroke-miterlimit="10" width="447" height="277" xmlns:xlink="http://www.w3.org/1999/xlink" xmlns="http://www.w3.org/2000/svg"><path fill="#ffffff" d="M0 0L447.0 0L447.0 277.0L0 277.0L0 0Z" fill-rule="nonzero"/><path stroke="#333333" stroke-width="1.0" stroke-linecap="butt" d="M72.5 54.5L72.5 211.5" fill-rule="nonzero"/><path stroke="#cccccc" stroke-width="1.0" stroke-linecap="butt" d="M145.5 54.5L145.5 211.5" fill-rule="nonzero"/><path stroke="#cccccc" stroke-width="1.0" stroke-linecap="butt" d="M218.5 54.5L218.5 211.5" fill-rule="nonzero"/><path stroke="#cccccc" stroke-width="1.0" stroke-linecap="butt" d="M290.5 54.5L290.5 211.5" fill-rule="nonzero"/><path stroke="#cccccc" stroke-width="1.0" stroke-linecap="butt" d="M363.5 54.5L363.5 211.5" fill-rule="nonzero"/><path stroke="#333333" stroke-width="1.0" stroke-linecap="butt" d="M72.5 211.5L433.5 211.5" fill-rule="nonzero"/><path stroke="#cccccc" stroke-width="1.0" stroke-linecap="butt" d="M72.5 171.5L433.5 171.5" fill-rule="nonzero"/><path stroke="#cccccc" stroke-width="1.0" stroke-linecap="butt" d="M72.5 132.5L433.5 132.5" fill-rule="nonzero"/><path stroke="#cccccc" stroke-width="1.0" stroke-linecap="butt" d="M72.5 93.5L433.5 93.5" fill-rule="nonzero"/><path stroke="#cccccc" stroke-width="1.0" stroke-linecap="butt" d="M72.5 54.5L433.5 54.5" fill-rule="nonzero"/><clipPath id="id_0"><path d="M72.85 54.083332L433.15 54.083332L433.15 211.15L72.85 211.15L72.85 54.083332Z" clip-rule="nonzero"/></clipPath><path fill="#4285f4" clip-path="url(#id_0)" d="M257.5 129.18083C257.5 131.6661 255.48528 133.68083 253.0 133.68083C250.51472 133.68083 248.5 131.6661 248.5 129.18083C248.5 126.69555 250.51472 124.68083 253.0 124.68083C255.48528 124.68083 257.5 126.69555 257.5 129.18083Z" fill-rule="nonzero"/><path fill="#4285f4" clip-path="url(#id_0)" d="M257.5 112.98333C257.5 115.46861 255.48528 117.48333 253.0 117.48333C250.51472 117.48333 248.5 115.46861 248.5 112.98333C248.5 110.498055 250.51472 108.48333 253.0 108.48333C255.48528 108.48333 257.5 110.498055 257.5 112.98333Z" fill-rule="nonzero"/><path fill="#4285f4" clip-path="url(#id_0)" d="M257.5 96.785835C257.5 99.27112 255.48528 101.285835 253.0 101.285835C250.51472 101.285835 248.5 99.27112 248.5 96.785835C248.5 94.30055 250.51472 92.285835 253.0 92.285835C255.48528 92.285835 257.5 94.30055 257.5 96.785835Z" fill-rule="nonzero"/><path fill="#4285f4" clip-path="url(#id_0)" d="M257.5 80.6865C257.5 83.17178 255.48528 85.1865 253.0 85.1865C250.51472 85.1865 248.5 83.17178 248.5 80.6865C248.5 78.20122 250.51472 76.1865 253.0 76.1865C255.48528 76.1865 257.5 78.20122 257.5 80.6865Z" fill-rule="nonzero"/><path fill="#4285f4" clip-path="url(#id_0)" d="M257.5 73.324C257.5 75.80928 255.48528 77.824 253.0 77.824C250.51472 77.824 248.5 75.80928 248.5 73.324C248.5 70.83872 250.51472 68.824 253.0 68.824C255.48528 68.824 257.5 70.83872 257.5 73.324Z" fill-rule="nonzero"/><path fill="#000000" d="M231.375 260.15L228.04688 251.55624L229.28125 251.55624L231.51562 257.80624Q231.78125 258.55624 231.96875 259.2125Q232.17188 258.50937 232.4375 257.80624L234.75 251.55624L235.90625 251.55624L232.54688 260.15L231.375 260.15ZM241.04688 259.13437L241.04688 260.15L235.35938 260.15Q235.35938 259.775 235.48438 259.41562Q235.70312 258.8375 236.17188 258.275Q236.65625 257.7125 237.5625 256.97812Q238.96875 255.82187 239.45312 255.15Q239.95312 254.47812 239.95312 253.88437Q239.95312 253.25937 239.5 252.8375Q239.04688 252.4 238.32812 252.4Q237.5625 252.4 237.10938 252.85312Q236.65625 253.30624 236.64062 254.11874L235.5625 254.00937Q235.67188 252.79062 236.39062 252.16562Q237.125 251.525 238.35938 251.525Q239.59375 251.525 240.3125 252.2125Q241.03125 252.9 241.03125 253.91562Q241.03125 254.43124 240.8125 254.93124Q240.60938 255.41562 240.10938 255.97812Q239.625 256.525 238.5 257.47812Q237.54688 258.275 237.26562 258.57187Q237.0 258.85312 236.82812 259.13437L241.04688 259.13437ZM245.8125 262.54062L245.8125 251.55624L248.14062 251.55624L248.14062 252.43124L246.875 252.43124L246.875 261.66562L248.14062 261.66562L248.14062 262.54062L245.8125 262.54062ZM251.375 260.15L248.04688 251.55624L249.28125 251.55624L251.51562 257.80624Q251.78125 258.55624 251.96875 259.2125Q252.17188 258.50937 252.4375 257.80624L254.75 251.55624L255.90625 251.55624L252.54688 260.15L251.375 260.15ZM255.40625 257.04062Q255.40625 255.30624 256.35938 254.47812Q257.15625 253.79062 258.3125 253.79062Q259.59375 253.79062 260.40625 254.63437Q261.23438 255.4625 261.23438 256.94687Q261.23438 258.15 260.875 258.8375Q260.51562 259.525 259.8125 259.91562Q259.125 260.29062 258.3125 260.29062Q257.01562 260.29062 256.20312 259.4625Q255.40625 258.61874 255.40625 257.04062ZM256.48438 257.04062Q256.48438 258.22812 257.0 258.82187Q257.53125 259.41562 258.3125 259.41562Q259.10938 259.41562 259.625 258.82187Q260.14062 258.22812 260.14062 257.00937Q260.14062 255.85312 259.60938 255.25937Q259.09375 254.66562 258.3125 254.66562Q257.53125 254.66562 257.0 255.25937Q256.48438 255.8375 256.48438 257.04062ZM262.76562 260.15L262.76562 251.55624L263.82812 251.55624L263.82812 260.15L262.76562 260.15ZM268.09375 259.2125L268.25 260.13437Q267.79688 260.22812 267.45312 260.22812Q266.875 260.22812 266.5625 260.05624Q266.25 259.86874 266.10938 259.57187Q265.98438 259.275 265.98438 258.32187L265.98438 254.74374L265.21875 254.74374L265.21875 253.93124L265.98438 253.93124L265.98438 252.38437L267.03125 251.75937L267.03125 253.93124L268.09375 253.93124L268.09375 254.74374L267.03125 254.74374L267.03125 258.38437Q267.03125 258.8375 267.07812 258.9625Q267.14062 259.0875 267.26562 259.16562Q267.39062 259.24374 267.625 259.24374Q267.8125 259.24374 268.09375 259.2125ZM268.375 258.29062L269.40625 258.13437Q269.5 258.75937 269.89062 259.0875Q270.29688 259.41562 271.03125 259.41562Q271.75 259.41562 272.09375 259.13437Q272.45312 258.8375 272.45312 258.43124Q272.45312 258.07187 272.14062 257.86874Q271.92188 257.72812 271.0625 257.50937Q269.90625 257.2125 269.45312 257.00937Q269.01562 256.79062 268.78125 256.41562Q268.54688 256.04062 268.54688 255.57187Q268.54688 255.16562 268.73438 254.80624Q268.92188 254.44687 269.25 254.2125Q269.5 254.04062 269.92188 253.91562Q270.34375 253.79062 270.84375 253.79062Q271.5625 253.79062 272.10938 254.00937Q272.67188 254.2125 272.9375 254.57187Q273.20312 254.93124 273.29688 255.525L272.26562 255.66562Q272.20312 255.19687 271.85938 254.93124Q271.53125 254.65 270.90625 254.65Q270.1875 254.65 269.875 254.9Q269.5625 255.13437 269.5625 255.4625Q269.5625 255.66562 269.6875 255.82187Q269.82812 255.99374 270.09375 256.10312Q270.25 256.16562 271.03125 256.36874Q272.15625 256.68124 272.59375 256.86874Q273.03125 257.05624 273.28125 257.41562Q273.53125 257.775 273.53125 258.32187Q273.53125 258.85312 273.21875 259.32187Q272.92188 259.775 272.34375 260.04062Q271.76562 260.29062 271.03125 260.29062Q269.8125 260.29062 269.17188 259.79062Q268.54688 259.275 268.375 258.29062ZM277.5625 262.54062L275.23438 262.54062L275.23438 261.66562L276.5 261.66562L276.5 252.43124L275.23438 252.43124L275.23438 251.55624L277.5625 251.55624L277.5625 262.54062Z" fill-rule="nonzero"/><path fill="#000000" d="M21.83437 214.55417L22.131245 213.42917Q23.52187 213.78854 24.256245 214.71042Q24.99062 215.6323 24.99062 216.97604Q24.99062 218.36667 24.42812 219.24167Q23.86562 220.11667 22.80312 220.5698Q21.724995 221.02292 20.49062 221.02292Q19.14687 221.02292 18.14687 220.5073Q17.14687 219.99167 16.631245 219.05417Q16.11562 218.10104 16.11562 216.96042Q16.11562 215.67917 16.77187 214.80417Q17.42812 213.91354 18.61562 213.5698L18.881245 214.6948Q17.943745 214.99167 17.52187 215.5698Q17.08437 216.1323 17.08437 216.99167Q17.08437 217.97604 17.568745 218.64792Q18.037495 219.30417 18.83437 219.58542Q19.631245 219.85104 20.49062 219.85104Q21.58437 219.85104 22.39687 219.53854Q23.20937 219.21042 23.61562 218.53854Q24.02187 217.86667 24.02187 217.0698Q24.02187 216.11667 23.474995 215.46042Q22.92812 214.78854 21.83437 214.55417ZM21.74062 212.21042Q20.006245 212.21042 19.17812 211.2573Q18.49062 210.46042 18.49062 209.30417Q18.49062 208.02292 19.33437 207.21042Q20.162495 206.3823 21.64687 206.3823Q22.849995 206.3823 23.537495 206.74167Q24.224995 207.10104 24.61562 207.80417Q24.99062 208.49167 24.99062 209.30417Q24.99062 210.60104 24.162495 211.41354Q23.318745 212.21042 21.74062 212.21042ZM21.74062 211.1323Q22.92812 211.1323 23.52187 210.61667Q24.11562 210.08542 24.11562 209.30417Q24.11562 208.5073 23.52187 207.99167Q22.92812 207.47604 21.70937 207.47604Q20.55312 207.47604 19.95937 208.0073Q19.36562 208.52292 19.36562 209.30417Q19.36562 210.08542 19.95937 210.61667Q20.537495 211.1323 21.74062 211.1323ZM24.849995 204.8198L18.631245 204.8198L18.631245 203.8823L19.506245 203.8823Q19.037495 203.58542 18.77187 203.10104Q18.49062 202.61667 18.49062 201.99167Q18.49062 201.30417 18.77187 200.86667Q19.05312 200.41354 19.568745 200.24167Q18.49062 199.49167 18.49062 198.3198Q18.49062 197.3823 19.006245 196.89792Q19.506245 196.39792 20.58437 196.39792L24.849995 196.39792L24.849995 197.4448L20.92812 197.4448Q20.30312 197.4448 20.02187 197.55417Q19.74062 197.64792 19.568745 197.91354Q19.39687 198.17917 19.39687 198.55417Q19.39687 199.21042 19.83437 199.64792Q20.27187 200.0698 21.24062 200.0698L24.849995 200.0698L24.849995 201.1323L20.80312 201.1323Q20.099995 201.1323 19.756245 201.39792Q19.39687 201.64792 19.39687 202.22604Q19.39687 202.67917 19.631245 203.05417Q19.86562 203.42917 20.318745 203.60104Q20.77187 203.77292 21.61562 203.77292L24.849995 203.77292L24.849995 204.8198ZM24.849995 193.8198L18.631245 193.8198L18.631245 192.8823L19.506245 192.8823Q19.037495 192.58542 18.77187 192.10104Q18.49062 191.61667 18.49062 190.99167Q18.49062 190.30417 18.77187 189.86667Q19.05312 189.41354 19.568745 189.24167Q18.49062 188.49167 18.49062 187.3198Q18.49062 186.3823 19.006245 185.89792Q19.506245 185.39792 20.58437 185.39792L24.849995 185.39792L24.849995 186.4448L20.92812 186.4448Q20.30312 186.4448 20.02187 186.55417Q19.74062 186.64792 19.568745 186.91354Q19.39687 187.17917 19.39687 187.55417Q19.39687 188.21042 19.83437 188.64792Q20.27187 189.0698 21.24062 189.0698L24.849995 189.0698L24.849995 190.1323L20.80312 190.1323Q20.099995 190.1323 19.756245 190.39792Q19.39687 190.64792 19.39687 191.22604Q19.39687 191.67917 19.631245 192.05417Q19.86562 192.42917 20.318745 192.60104Q20.77187 192.77292 21.61562 192.77292L24.849995 192.77292L24.849995 193.8198ZM21.74062 183.21042Q20.006245 183.21042 19.17812 182.2573Q18.49062 181.46042 18.49062 180.30417Q18.49062 179.02292 19.33437 178.21042Q20.162495 177.3823 21.64687 177.3823Q22.849995 177.3823 23.537495 177.74167Q24.224995 178.10104 24.61562 178.80417Q24.99062 179.49167 24.99062 180.30417Q24.99062 181.60104 24.162495 182.41354Q23.318745 183.21042 21.74062 183.21042ZM21.74062 182.1323Q22.92812 182.1323 23.52187 181.61667Q24.11562 181.08542 24.11562 180.30417Q24.11562 179.5073 23.52187 178.99167Q22.92812 178.47604 21.70937 178.47604Q20.55312 178.47604 19.95937 179.0073Q19.36562 179.52292 19.36562 180.30417Q19.36562 181.08542 19.95937 181.61667Q20.537495 182.1323 21.74062 182.1323ZM24.849995 175.8198L18.631245 175.8198L18.631245 174.8823L19.506245 174.8823Q18.49062 174.1948 18.49062 172.89792Q18.49062 172.33542 18.693745 171.86667Q18.89687 171.3823 19.224995 171.14792Q19.55312 170.91354 19.99062 170.8198Q20.287495 170.77292 21.02187 170.77292L24.849995 170.77292L24.849995 171.8198L21.068745 171.8198Q20.412495 171.8198 20.099995 171.9448Q19.787495 172.0698 19.599995 172.3823Q19.39687 172.6948 19.39687 173.11667Q19.39687 173.78854 19.83437 174.28854Q20.256245 174.77292 21.443745 174.77292L24.849995 174.77292L24.849995 175.8198ZM24.849995 165.72604L16.256245 165.72604L16.256245 164.0073L22.33437 161.97604Q23.193745 161.6948 23.61562 161.5698Q23.14687 161.42917 22.24062 161.11667L16.256245 159.05417L16.256245 157.52292L24.849995 157.52292L24.849995 158.61667L17.662495 158.61667L24.849995 161.11667L24.849995 162.14792L17.537495 164.6323L24.849995 164.6323L24.849995 165.72604ZM21.74062 157.21042Q20.006245 157.21042 19.17812 156.2573Q18.49062 155.46042 18.49062 154.30417Q18.49062 153.02292 19.33437 152.21042Q20.162495 151.3823 21.64687 151.3823Q22.849995 151.3823 23.537495 151.74167Q24.224995 152.10104 24.61562 152.80417Q24.99062 153.49167 24.99062 154.30417Q24.99062 155.60104 24.162495 156.41354Q23.318745 157.21042 21.74062 157.21042ZM21.74062 156.1323Q22.92812 156.1323 23.52187 155.61667Q24.11562 155.08542 24.11562 154.30417Q24.11562 153.5073 23.52187 152.99167Q22.92812 152.47604 21.70937 152.47604Q20.55312 152.47604 19.95937 153.0073Q19.36562 153.52292 19.36562 154.30417Q19.36562 155.08542 19.95937 155.61667Q20.537495 156.1323 21.74062 156.1323ZM24.849995 145.78854L24.068745 145.78854Q24.99062 146.3823 24.99062 147.52292Q24.99062 148.27292 24.58437 148.89792Q24.162495 149.52292 23.42812 149.86667Q22.693745 150.21042 21.74062 150.21042Q20.818745 150.21042 20.05312 149.89792Q19.287495 149.58542 18.89687 148.96042Q18.49062 148.33542 18.49062 147.5698Q18.49062 147.0073 18.724995 146.5698Q18.95937 146.1323 19.33437 145.85104L16.256245 145.85104L16.256245 144.80417L24.849995 144.80417L24.849995 145.78854ZM21.74062 149.11667Q22.943745 149.11667 23.537495 148.61667Q24.11562 148.11667 24.11562 147.42917Q24.11562 146.74167 23.55312 146.2573Q22.99062 145.77292 21.83437 145.77292Q20.55312 145.77292 19.95937 146.27292Q19.36562 146.7573 19.36562 147.47604Q19.36562 148.17917 19.943745 148.64792Q20.506245 149.11667 21.74062 149.11667ZM22.849995 138.5698L22.974995 137.47604Q23.92812 137.72604 24.45937 138.42917Q24.99062 139.1323 24.99062 140.21042Q24.99062 141.5698 24.14687 142.3823Q23.30312 143.17917 21.787495 143.17917Q20.224995 143.17917 19.36562 142.36667Q18.49062 141.55417 18.49062 140.27292Q18.49062 139.02292 19.33437 138.24167Q20.17812 137.4448 21.724995 137.4448Q21.818745 137.4448 22.006245 137.4448L22.006245 142.08542Q23.037495 142.02292 23.58437 141.5073Q24.11562 140.99167 24.11562 140.21042Q24.11562 139.6323 23.818745 139.22604Q23.506245 138.80417 22.849995 138.5698ZM21.14687 142.02292L21.14687 138.55417Q20.349995 138.61667 19.95937 138.9448Q19.349995 139.46042 19.349995 140.2573Q19.349995 140.99167 19.83437 141.49167Q20.318745 141.97604 21.14687 142.02292ZM24.849995 130.24167L16.256245 133.5698L16.256245 132.33542L22.506245 130.10104Q23.256245 129.83542 23.912495 129.64792Q23.20937 129.4448 22.506245 129.17917L16.256245 126.86667L16.256245 125.71042L24.849995 129.0698L24.849995 130.24167ZM21.74062 126.21042Q20.006245 126.21042 19.17812 125.25729Q18.49062 124.46042 18.49062 123.30417Q18.49062 122.02292 19.33437 121.21042Q20.162495 120.38229 21.64687 120.38229Q22.849995 120.38229 23.537495 120.74167Q24.224995 121.10104 24.61562 121.80417Q24.99062 122.49167 24.99062 123.30417Q24.99062 124.60104 24.162495 125.41354Q23.318745 126.21042 21.74062 126.21042ZM21.74062 125.13229Q22.92812 125.13229 23.52187 124.61667Q24.11562 124.08542 24.11562 123.30417Q24.11562 122.50729 23.52187 121.99167Q22.92812 121.47604 21.70937 121.47604Q20.55312 121.47604 19.95937 122.00729Q19.36562 122.52292 19.36562 123.30417Q19.36562 124.08542 19.95937 124.61667Q20.537495 125.13229 21.74062 125.13229ZM24.849995 118.85104L16.256245 118.85104L16.256245 117.78854L24.849995 117.78854L24.849995 118.85104ZM23.912495 113.52292L24.83437 113.36667Q24.92812 113.81979 24.92812 114.16354Q24.92812 114.74167 24.756245 115.05417Q24.568745 115.36667 24.27187 115.50729Q23.974995 115.63229 23.02187 115.63229L19.443745 115.63229L19.443745 116.39792L18.631245 116.39792L18.631245 115.63229L17.08437 115.63229L16.45937 114.58542L18.631245 114.58542L18.631245 113.52292L19.443745 113.52292L19.443745 114.58542L23.08437 114.58542Q23.537495 114.58542 23.662495 114.53854Q23.787495 114.47604 23.86562 114.35104Q23.943745 114.22604 23.943745 113.99167Q23.943745 113.80417 23.912495 113.52292ZM24.08437 108.75729Q24.58437 109.35104 24.787495 109.89792Q24.99062 110.42917 24.99062 111.05417Q24.99062 112.08542 24.49062 112.63229Q23.99062 113.17917 23.20937 113.17917Q22.756245 113.17917 22.381245 112.97604Q21.99062 112.77292 21.77187 112.42917Q21.537495 112.08542 21.42812 111.66354Q21.33437 111.36667 21.256245 110.72604Q21.11562 109.46042 20.89687 108.85104Q20.67812 108.85104 20.631245 108.85104Q19.974995 108.85104 19.70937 109.14792Q19.36562 109.55417 19.36562 110.35104Q19.36562 111.08542 19.631245 111.44479Q19.881245 111.80417 20.537495 111.97604L20.39687 113.00729Q19.74062 112.86667 19.33437 112.53854Q18.92812 112.21042 18.70937 111.60104Q18.49062 110.99167 18.49062 110.19479Q18.49062 109.39792 18.67812 108.89792Q18.86562 108.39792 19.14687 108.16354Q19.42812 107.92917 19.86562 107.83542Q20.131245 107.78854 20.83437 107.78854L22.24062 107.78854Q23.70937 107.78854 24.099995 107.72604Q24.49062 107.64792 24.849995 107.44479L24.849995 108.55417Q24.52187 108.71042 24.08437 108.75729ZM21.724995 108.85104Q21.95937 109.42917 22.131245 110.56979Q22.224995 111.22604 22.349995 111.49167Q22.45937 111.75729 22.67812 111.91354Q22.89687 112.05417 23.17812 112.05417Q23.599995 112.05417 23.881245 111.74167Q24.162495 111.41354 24.162495 110.80417Q24.162495 110.19479 23.89687 109.72604Q23.631245 109.24167 23.162495 109.02292Q22.80312 108.85104 22.11562 108.85104L21.724995 108.85104ZM25.36562 106.02292L25.52187 104.99167Q25.99062 104.92917 26.20937 104.63229Q26.506245 104.24167 26.506245 103.56979Q26.506245 102.83542 26.20937 102.44479Q25.912495 102.03854 25.39687 101.89792Q25.068745 101.80417 24.037495 101.81979Q24.849995 102.50729 24.849995 103.53854Q24.849995 104.81979 23.92812 105.52292Q22.99062 106.22604 21.70937 106.22604Q20.818745 106.22604 20.068745 105.91354Q19.30312 105.58542 18.89687 104.97604Q18.49062 104.36667 18.49062 103.53854Q18.49062 102.42917 19.381245 101.71042L18.631245 101.71042L18.631245 100.74167L24.006245 100.74167Q25.45937 100.74167 26.068745 101.03854Q26.67812 101.33542 27.02187 101.97604Q27.381245 102.61667 27.381245 103.55417Q27.381245 104.66354 26.881245 105.35104Q26.381245 106.03854 25.36562 106.02292ZM21.631245 105.14792Q22.849995 105.14792 23.412495 104.66354Q23.974995 104.17917 23.974995 103.44479Q23.974995 102.71042 23.412495 102.22604Q22.849995 101.72604 21.662495 101.72604Q20.52187 101.72604 19.943745 102.24167Q19.36562 102.74167 19.36562 103.46042Q19.36562 104.16354 19.943745 104.66354Q20.506245 105.14792 21.631245 105.14792ZM22.849995 94.56979L22.974995 93.47604Q23.92812 93.72604 24.45937 94.42917Q24.99062 95.13229 24.99062 96.21042Q24.99062 97.56979 24.14687 98.38229Q23.30312 99.17917 21.787495 99.17917Q20.224995 99.17917 19.36562 98.36667Q18.49062 97.55417 18.49062 96.27292Q18.49062 95.02292 19.33437 94.24167Q20.17812 93.44479 21.724995 93.44479Q21.818745 93.44479 22.006245 93.44479L22.006245 98.08542Q23.037495 98.02292 23.58437 97.50729Q24.11562 96.99167 24.11562 96.21042Q24.11562 95.63229 23.818745 95.22604Q23.506245 94.80417 22.849995 94.56979ZM21.14687 98.02292L21.14687 94.55417Q20.349995 94.61667 19.95937 94.94479Q19.349995 95.46042 19.349995 96.25729Q19.349995 96.99167 19.83437 97.49167Q20.318745 97.97604 21.14687 98.02292ZM27.24062 88.80417L16.256245 88.80417L16.256245 86.47604L17.131245 86.47604L17.131245 87.74167L26.36562 87.74167L26.36562 86.47604L27.24062 86.47604L27.24062 88.80417ZM24.849995 83.24167L16.256245 86.56979L16.256245 85.33542L22.506245 83.10104Q23.256245 82.83542 23.912495 82.64792Q23.20937 82.44479 22.506245 82.17917L16.256245 79.86667L16.256245 78.71042L24.849995 82.06979L24.849995 83.24167ZM21.74062 79.21042Q20.006245 79.21042 19.17812 78.25729Q18.49062 77.46042 18.49062 76.30417Q18.49062 75.02292 19.33437 74.21042Q20.162495 73.38229 21.64687 73.38229Q22.849995 73.38229 23.537495 73.74167Q24.224995 74.10104 24.61562 74.80417Q24.99062 75.49167 24.99062 76.30417Q24.99062 77.60104 24.162495 78.41354Q23.318745 79.21042 21.74062 79.21042ZM21.74062 78.13229Q22.92812 78.13229 23.52187 77.61667Q24.11562 77.08542 24.11562 76.30417Q24.11562 75.50729 23.52187 74.99167Q22.92812 74.47604 21.70937 74.47604Q20.55312 74.47604 19.95937 75.00729Q19.36562 75.52292 19.36562 76.30417Q19.36562 77.08542 19.95937 77.61667Q20.537495 78.13229 21.74062 78.13229ZM24.849995 71.85104L16.256245 71.85104L16.256245 70.78854L24.849995 70.78854L24.849995 71.85104ZM23.912495 66.52292L24.83437 66.36667Q24.92812 66.81979 24.92812 67.16354Q24.92812 67.74167 24.756245 68.05417Q24.568745 68.36667 24.27187 68.50729Q23.974995 68.63229 23.02187 68.63229L19.443745 68.63229L19.443745 69.39792L18.631245 69.39792L18.631245 68.63229L17.08437 68.63229L16.45937 67.58542L18.631245 67.58542L18.631245 66.52292L19.443745 66.52292L19.443745 67.58542L23.08437 67.58542Q23.537495 67.58542 23.662495 67.53854Q23.787495 67.47604 23.86562 67.35104Q23.943745 67.22604 23.943745 66.99167Q23.943745 66.80417 23.912495 66.52292ZM22.99062 66.24167L22.83437 65.21042Q23.45937 65.11667 23.787495 64.72604Q24.11562 64.31979 24.11562 63.58542Q24.11562 62.86667 23.83437 62.52292Q23.537495 62.163544 23.131245 62.163544Q22.77187 62.163544 22.568745 62.476044Q22.42812 62.694794 22.20937 63.55417Q21.912495 64.71042 21.70937 65.16354Q21.49062 65.60104 21.11562 65.83542Q20.74062 66.06979 20.27187 66.06979Q19.86562 66.06979 19.506245 65.88229Q19.14687 65.69479 18.912495 65.36667Q18.74062 65.11667 18.61562 64.69479Q18.49062 64.27292 18.49062 63.77292Q18.49062 63.05417 18.70937 62.507294Q18.912495 61.944794 19.27187 61.67917Q19.631245 61.413544 20.224995 61.319794L20.36562 62.351044Q19.89687 62.413544 19.631245 62.757294Q19.349995 63.08542 19.349995 63.71042Q19.349995 64.42917 19.599995 64.74167Q19.83437 65.05417 20.162495 65.05417Q20.36562 65.05417 20.52187 64.92917Q20.693745 64.78854 20.80312 64.52292Q20.86562 64.36667 21.068745 63.58542Q21.381245 62.46042 21.568745 62.02292Q21.756245 61.58542 22.11562 61.33542Q22.474995 61.08542 23.02187 61.08542Q23.55312 61.08542 24.02187 61.39792Q24.474995 61.694794 24.74062 62.27292Q24.99062 62.851044 24.99062 63.58542Q24.99062 64.80417 24.49062 65.44479Q23.974995 66.06979 22.99062 66.24167ZM27.24062 57.05417L27.24062 59.382294L26.36562 59.382294L26.36562 58.11667L17.131245 58.11667L17.131245 59.382294L16.256245 59.382294L16.256245 57.05417L27.24062 57.05417Z" fill-rule="nonzero"/><path fill="#000000" d="M60.35 210.91562Q60.35 209.38437 60.6625 208.4625Q60.975 207.525 61.584373 207.025Q62.209373 206.525 63.146873 206.525Q63.834373 206.525 64.35 206.80624Q64.88125 207.0875 65.225 207.61874Q65.56875 208.13437 65.75625 208.88437Q65.94375 209.63437 65.94375 210.91562Q65.94375 212.43124 65.63125 213.35312Q65.33437 214.275 64.70937 214.79062Q64.1 215.29062 63.146873 215.29062Q61.9125 215.29062 61.19375 214.4Q60.35 213.3375 60.35 210.91562ZM61.428123 210.91562Q61.428123 213.025 61.928123 213.72812Q62.428123 214.43124 63.146873 214.43124Q63.88125 214.43124 64.36562 213.72812Q64.86562 213.025 64.86562 210.91562Q64.86562 208.79062 64.36562 208.10312Q63.88125 207.4 63.13125 207.4Q62.4125 207.4 61.975 208.00937Q61.428123 208.79062 61.428123 210.91562Z" fill-rule="nonzero"/><path fill="#000000" d="M65.89687 174.8677L65.89687 175.88333L60.209373 175.88333Q60.209373 175.50833 60.334373 175.14896Q60.553123 174.57083 61.021873 174.00833Q61.50625 173.44583 62.4125 172.71146Q63.81875 171.5552 64.30312 170.88333Q64.80312 170.21146 64.80312 169.6177Q64.80312 168.9927 64.35 168.57083Q63.896873 168.13333 63.178123 168.13333Q62.4125 168.13333 61.959373 168.58646Q61.50625 169.03958 61.490623 169.85208L60.4125 169.7427Q60.521873 168.52396 61.240623 167.89896Q61.975 167.25833 63.209373 167.25833Q64.44375 167.25833 65.1625 167.94583Q65.88125 168.63333 65.88125 169.64896Q65.88125 170.16458 65.6625 170.66458Q65.45937 171.14896 64.95937 171.71146Q64.475 172.25833 63.35 173.21146Q62.396873 174.00833 62.115623 174.3052Q61.85 174.58646 61.678123 174.8677L65.89687 174.8677Z" fill-rule="nonzero"/><path fill="#000000" d="M63.725 136.61667L63.725 134.55417L60.00625 134.55417L60.00625 133.58542L63.928123 128.02292L64.7875 128.02292L64.7875 133.58542L65.94375 133.58542L65.94375 134.55417L64.7875 134.55417L64.7875 136.61667L63.725 136.61667ZM63.725 133.58542L63.725 129.72604L61.0375 133.58542L63.725 133.58542Z" fill-rule="nonzero"/><path fill="#000000" d="M65.81875 90.86562L64.77187 90.94375Q64.63125 90.31875 64.38125 90.0375Q63.94375 89.58437 63.31875 89.58437Q62.81875 89.58437 62.428123 89.86562Q61.94375 90.24062 61.646873 90.94375Q61.365623 91.63125 61.35 92.9125Q61.725 92.33437 62.271873 92.05312Q62.834373 91.77187 63.44375 91.77187Q64.49062 91.77187 65.225 92.55312Q65.975 93.33437 65.975 94.55312Q65.975 95.36562 65.61562 96.06875Q65.27187 96.75625 64.6625 97.13125Q64.05312 97.49062 63.2875 97.49062Q61.959373 97.49062 61.13125 96.52187Q60.303123 95.55312 60.303123 93.33437Q60.303123 90.83437 61.225 89.70937Q62.021873 88.725 63.38125 88.725Q64.39687 88.725 65.0375 89.30312Q65.69375 89.86562 65.81875 90.86562ZM61.521873 94.56875Q61.521873 95.11562 61.740623 95.61562Q61.975 96.1 62.38125 96.36562Q62.803123 96.63125 63.271873 96.63125Q63.928123 96.63125 64.4125 96.1Q64.89687 95.55312 64.89687 94.63125Q64.89687 93.74062 64.4125 93.225Q63.94375 92.70937 63.225 92.70937Q62.50625 92.70937 62.00625 93.225Q61.521873 93.74062 61.521873 94.56875Z" fill-rule="nonzero"/><path fill="#000000" d="M61.975 53.427082Q61.31875 53.177082 60.990623 52.739582Q60.678123 52.286457 60.678123 51.677082Q60.678123 50.739582 61.35 50.098957Q62.0375 49.458332 63.146873 49.458332Q64.27187 49.458332 64.95937 50.114582Q65.64687 50.770832 65.64687 51.708332Q65.64687 52.302082 65.33437 52.739582Q65.02187 53.177082 64.38125 53.427082Q65.17812 53.677082 65.58437 54.255207Q65.99062 54.833332 65.99062 55.630207Q65.99062 56.723957 65.20937 57.473957Q64.44375 58.223957 63.1625 58.223957Q61.896873 58.223957 61.115623 57.473957Q60.334373 56.723957 60.334373 55.598957Q60.334373 54.755207 60.75625 54.192707Q61.19375 53.630207 61.975 53.427082ZM61.75625 51.630207Q61.75625 52.239582 62.146873 52.630207Q62.553123 53.020832 63.178123 53.020832Q63.7875 53.020832 64.17812 52.645832Q64.56875 52.255207 64.56875 51.692707Q64.56875 51.114582 64.1625 50.723957Q63.75625 50.317707 63.1625 50.317707Q62.553123 50.317707 62.146873 50.708332Q61.75625 51.098957 61.75625 51.630207ZM61.428123 55.598957Q61.428123 56.052082 61.63125 56.473957Q61.85 56.895832 62.271873 57.130207Q62.69375 57.364582 63.178123 57.364582Q63.928123 57.364582 64.4125 56.880207Q64.9125 56.395832 64.9125 55.645832Q64.9125 54.880207 64.4125 54.380207Q63.9125 53.880207 63.146873 53.880207Q62.396873 53.880207 61.9125 54.380207Q61.428123 54.864582 61.428123 55.598957Z" fill-rule="nonzero"/><path fill="#000000" d="M69.85 223.91562Q69.85 222.38437 70.1625 221.4625Q70.475 220.525 71.08437 220.025Q71.70937 219.525 72.64687 219.525Q73.33437 219.525 73.85 219.80624Q74.38125 220.0875 74.725 220.61874Q75.06875 221.13437 75.25625 221.88437Q75.44375 222.63437 75.44375 223.91562Q75.44375 225.43124 75.13125 226.35312Q74.83437 227.275 74.20937 227.79062Q73.6 228.29062 72.64687 228.29062Q71.4125 228.29062 70.69375 227.4Q69.85 226.3375 69.85 223.91562ZM70.92812 223.91562Q70.92812 226.025 71.42812 226.72812Q71.92812 227.43124 72.64687 227.43124Q73.38125 227.43124 73.86562 226.72812Q74.36562 226.025 74.36562 223.91562Q74.36562 221.79062 73.86562 221.10312Q73.38125 220.4 72.63125 220.4Q71.9125 220.4 71.475 221.00937Q70.92812 221.79062 70.92812 223.91562Z" fill-rule="nonzero"/><path fill="#000000" d="M148.03801 227.13437L148.03801 228.15L142.35051 228.15Q142.35051 227.775 142.47551 227.41562Q142.69426 226.8375 143.16301 226.275Q143.64738 225.7125 144.55363 224.97812Q145.95988 223.82187 146.44426 223.15Q146.94426 222.47812 146.94426 221.88437Q146.94426 221.25937 146.49113 220.8375Q146.03801 220.4 145.31926 220.4Q144.55363 220.4 144.10051 220.85312Q143.64738 221.30624 143.63176 222.11874L142.55363 222.00937Q142.66301 220.79062 143.38176 220.16562Q144.11613 219.525 145.35051 219.525Q146.58488 219.525 147.30363 220.2125Q148.02238 220.9 148.02238 221.91562Q148.02238 222.43124 147.80363 222.93124Q147.60051 223.41562 147.10051 223.97812Q146.61613 224.525 145.49113 225.47812Q144.53801 226.275 144.25676 226.57187Q143.99113 226.85312 143.81926 227.13437L148.03801 227.13437Z" fill-rule="nonzero"/><path fill="#000000" d="M218.50726 228.15L218.50726 226.0875L214.78851 226.0875L214.78851 225.11874L218.71039 219.55624L219.56976 219.55624L219.56976 225.11874L220.72601 225.11874L220.72601 226.0875L219.56976 226.0875L219.56976 228.15L218.50726 228.15ZM218.50726 225.11874L218.50726 221.25937L215.81976 225.11874L218.50726 225.11874Z" fill-rule="nonzero"/><path fill="#000000" d="M293.24213 221.66562L292.19525 221.74374Q292.05463 221.11874 291.80463 220.8375Q291.36713 220.38437 290.74213 220.38437Q290.24213 220.38437 289.8515 220.66562Q289.36713 221.04062 289.07025 221.74374Q288.789 222.43124 288.77338 223.7125Q289.14838 223.13437 289.69525 222.85312Q290.25775 222.57187 290.86713 222.57187Q291.914 222.57187 292.64838 223.35312Q293.39838 224.13437 293.39838 225.35312Q293.39838 226.16562 293.039 226.86874Q292.69525 227.55624 292.08588 227.93124Q291.4765 228.29062 290.71088 228.29062Q289.38275 228.29062 288.55463 227.32187Q287.7265 226.35312 287.7265 224.13437Q287.7265 221.63437 288.64838 220.50937Q289.44525 219.525 290.80463 219.525Q291.82025 219.525 292.46088 220.10312Q293.11713 220.66562 293.24213 221.66562ZM288.94525 225.36874Q288.94525 225.91562 289.164 226.41562Q289.39838 226.9 289.80463 227.16562Q290.2265 227.43124 290.69525 227.43124Q291.3515 227.43124 291.83588 226.9Q292.32025 226.35312 292.32025 225.43124Q292.32025 224.54062 291.83588 224.025Q291.36713 223.50937 290.64838 223.50937Q289.92963 223.50937 289.42963 224.025Q288.94525 224.54062 288.94525 225.36874Z" fill-rule="nonzero"/><path fill="#000000" d="M362.03952 223.49374Q361.38327 223.24374 361.05515 222.80624Q360.74265 222.35312 360.74265 221.74374Q360.74265 220.80624 361.41452 220.16562Q362.10202 219.525 363.2114 219.525Q364.3364 219.525 365.0239 220.18124Q365.7114 220.8375 365.7114 221.775Q365.7114 222.36874 365.3989 222.80624Q365.0864 223.24374 364.44577 223.49374Q365.24265 223.74374 365.6489 224.32187Q366.05515 224.9 366.05515 225.69687Q366.05515 226.79062 365.2739 227.54062Q364.50827 228.29062 363.22702 228.29062Q361.9614 228.29062 361.18015 227.54062Q360.3989 226.79062 360.3989 225.66562Q360.3989 224.82187 360.82077 224.25937Q361.25827 223.69687 362.03952 223.49374ZM361.82077 221.69687Q361.82077 222.30624 362.2114 222.69687Q362.61765 223.0875 363.24265 223.0875Q363.85202 223.0875 364.24265 222.7125Q364.63327 222.32187 364.63327 221.75937Q364.63327 221.18124 364.22702 220.79062Q363.82077 220.38437 363.22702 220.38437Q362.61765 220.38437 362.2114 220.775Q361.82077 221.16562 361.82077 221.69687ZM361.49265 225.66562Q361.49265 226.11874 361.69577 226.54062Q361.91452 226.9625 362.3364 227.19687Q362.75827 227.43124 363.24265 227.43124Q363.99265 227.43124 364.47702 226.94687Q364.97702 226.4625 364.97702 225.7125Q364.97702 224.94687 364.47702 224.44687Q363.97702 223.94687 363.2114 223.94687Q362.4614 223.94687 361.97702 224.44687Q361.49265 224.93124 361.49265 225.66562Z" fill-rule="nonzero"/><path fill="#757575" d="M25.615625 27.834373L27.50625 28.303123Q26.9125 30.646873 25.365625 31.881248Q23.81875 33.1 21.56875 33.1Q19.25625 33.1 17.803125 32.1625Q16.365625 31.209373 15.6 29.428123Q14.85 27.631248 14.85 25.584373Q14.85 23.349998 15.69375 21.693748Q16.553125 20.021873 18.13125 19.162498Q19.709375 18.287498 21.6 18.287498Q23.75625 18.287498 25.209375 19.381248Q26.678125 20.474998 27.25625 22.459373L25.396875 22.896873Q24.896875 21.334373 23.94375 20.631248Q23.00625 19.912498 21.56875 19.912498Q19.9125 19.912498 18.803125 20.709373Q17.69375 21.490623 17.240625 22.834373Q16.803125 24.162498 16.803125 25.568748Q16.803125 27.396873 17.334375 28.771873Q17.865625 30.131248 18.990625 30.803123Q20.115625 31.474998 21.4125 31.474998Q23.00625 31.474998 24.115625 30.553123Q25.225 29.631248 25.615625 27.834373ZM28.521875 27.662498Q28.521875 24.787498 30.115625 23.396873Q31.459375 22.240623 33.38125 22.240623Q35.521873 22.240623 36.865623 23.646873Q38.225 25.053123 38.225 27.521873Q38.225 29.521873 37.63125 30.678123Q37.0375 31.818748 35.88125 32.459373Q34.740623 33.084373 33.38125 33.084373Q31.19375 33.084373 29.85 31.693748Q28.521875 30.287498 28.521875 27.662498ZM30.31875 27.662498Q30.31875 29.662498 31.178125 30.646873Q32.053123 31.631248 33.38125 31.631248Q34.69375 31.631248 35.553123 30.646873Q36.428123 29.646873 36.428123 27.599998Q36.428123 25.678123 35.553123 24.693748Q34.678123 23.693748 33.38125 23.693748Q32.053123 23.693748 31.178125 24.693748Q30.31875 25.678123 30.31875 27.662498ZM40.1625 32.85L40.1625 22.474998L41.740623 22.474998L41.740623 23.928123Q42.225 23.178123 43.0375 22.709373Q43.85 22.240623 44.88125 22.240623Q46.0375 22.240623 46.771873 22.724998Q47.50625 23.193748 47.81875 24.053123Q49.053123 22.240623 51.021873 22.240623Q52.56875 22.240623 53.396873 23.099998Q54.225 23.959373 54.225 25.724998L54.225 32.85L52.475 32.85L52.475 26.318748Q52.475 25.256248 52.303123 24.803123Q52.13125 24.334373 51.678123 24.053123Q51.240623 23.771873 50.63125 23.771873Q49.5375 23.771873 48.803123 24.506248Q48.084373 25.224998 48.084373 26.818748L48.084373 32.85L46.334373 32.85L46.334373 26.115623Q46.334373 24.943748 45.896873 24.365623Q45.475 23.771873 44.490623 23.771873Q43.75625 23.771873 43.115623 24.162498Q42.490623 24.553123 42.209373 25.303123Q41.928123 26.053123 41.928123 27.474998L41.928123 32.85L40.1625 32.85ZM56.1625 32.85L56.1625 22.474998L57.740623 22.474998L57.740623 23.928123Q58.225 23.178123 59.0375 22.709373Q59.85 22.240623 60.88125 22.240623Q62.0375 22.240623 62.771873 22.724998Q63.50625 23.193748 63.81875 24.053123Q65.05312 22.240623 67.02187 22.240623Q68.56875 22.240623 69.39687 23.099998Q70.225 23.959373 70.225 25.724998L70.225 32.85L68.475 32.85L68.475 26.318748Q68.475 25.256248 68.30312 24.803123Q68.13125 24.334373 67.67812 24.053123Q67.24062 23.771873 66.63125 23.771873Q65.5375 23.771873 64.80312 24.506248Q64.08437 25.224998 64.08437 26.818748L64.08437 32.85L62.334373 32.85L62.334373 26.115623Q62.334373 24.943748 61.896873 24.365623Q61.475 23.771873 60.490623 23.771873Q59.75625 23.771873 59.115623 24.162498Q58.490623 24.553123 58.209373 25.303123Q57.928123 26.053123 57.928123 27.474998L57.928123 32.85L56.1625 32.85ZM71.52187 27.662498Q71.52187 24.787498 73.11562 23.396873Q74.45937 22.240623 76.38125 22.240623Q78.52187 22.240623 79.86562 23.646873Q81.225 25.053123 81.225 27.521873Q81.225 29.521873 80.63125 30.678123Q80.0375 31.818748 78.88125 32.459373Q77.74062 33.084373 76.38125 33.084373Q74.19375 33.084373 72.85 31.693748Q71.52187 30.287498 71.52187 27.662498ZM73.31875 27.662498Q73.31875 29.662498 74.17812 30.646873Q75.05312 31.631248 76.38125 31.631248Q77.69375 31.631248 78.55312 30.646873Q79.42812 29.646873 79.42812 27.599998Q79.42812 25.678123 78.55312 24.693748Q77.67812 23.693748 76.38125 23.693748Q75.05312 23.693748 74.17812 24.693748Q73.31875 25.678123 73.31875 27.662498ZM83.1625 32.85L83.1625 22.474998L84.75625 22.474998L84.75625 23.959373Q85.89687 22.240623 88.05312 22.240623Q88.99062 22.240623 89.77187 22.584373Q90.56875 22.912498 90.95937 23.459373Q91.35 24.006248 91.50625 24.756248Q91.6 25.256248 91.6 26.474998L91.6 32.85L89.83437 32.85L89.83437 26.537498Q89.83437 25.459373 89.63125 24.928123Q89.42812 24.396873 88.89687 24.084373Q88.38125 23.771873 87.67812 23.771873Q86.55312 23.771873 85.74062 24.490623Q84.92812 25.193748 84.92812 27.178123L84.92812 32.85L83.1625 32.85ZM99.33437 32.85L99.33437 18.537498L102.19375 18.537498L105.56875 28.662498Q106.0375 30.084373 106.25625 30.787498Q106.50625 30.006248 107.02187 28.490623L110.44375 18.537498L112.99062 18.537498L112.99062 32.85L111.17812 32.85L111.17812 20.865623L107.00625 32.85L105.30312 32.85L101.1625 20.662498L101.1625 32.85L99.33437 32.85ZM115.52187 27.662498Q115.52187 24.787498 117.11562 23.396873Q118.45937 22.240623 120.38125 22.240623Q122.52187 22.240623 123.86562 23.646873Q125.225 25.053123 125.225 27.521873Q125.225 29.521873 124.63125 30.678123Q124.0375 31.818748 122.88125 32.459373Q121.74062 33.084373 120.38125 33.084373Q118.19375 33.084373 116.85 31.693748Q115.52187 30.287498 115.52187 27.662498ZM117.31875 27.662498Q117.31875 29.662498 118.17812 30.646873Q119.05312 31.631248 120.38125 31.631248Q121.69375 31.631248 122.55312 30.646873Q123.42812 29.646873 123.42812 27.599998Q123.42812 25.678123 122.55312 24.693748Q121.67812 23.693748 120.38125 23.693748Q119.05312 23.693748 118.17812 24.693748Q117.31875 25.678123 117.31875 27.662498ZM133.89688 32.85L133.89688 31.537498Q132.9125 33.084373 130.99063 33.084373Q129.75626 33.084373 128.70938 32.396873Q127.67812 31.709373 127.1 30.490623Q126.5375 29.271873 126.5375 27.678123Q126.5375 26.115623 127.05312 24.849998Q127.56875 23.584373 128.6 22.912498Q129.64688 22.240623 130.9125 22.240623Q131.85 22.240623 132.58438 22.646873Q133.31876 23.037498 133.7875 23.662498L133.7875 18.537498L135.52188 18.537498L135.52188 32.85L133.89688 32.85ZM128.33438 27.678123Q128.33438 29.662498 129.17813 30.646873Q130.02188 31.631248 131.1625 31.631248Q132.31876 31.631248 133.11563 30.693748Q133.92813 29.756248 133.92813 27.818748Q133.92813 25.693748 133.1 24.693748Q132.2875 23.693748 131.08438 23.693748Q129.9125 23.693748 129.11563 24.662498Q128.33438 25.615623 128.33438 27.678123ZM145.27188 29.506248L147.08438 29.740623Q146.6625 31.318748 145.49063 32.209373Q144.33438 33.084373 142.52188 33.084373Q140.25626 33.084373 138.9125 31.693748Q137.58438 30.287498 137.58438 27.756248Q137.58438 25.131248 138.92813 23.693748Q140.27188 22.240623 142.42813 22.240623Q144.50626 22.240623 145.81876 23.662498Q147.14688 25.068748 147.14688 27.646873Q147.14688 27.803123 147.13126 28.115623L139.39688 28.115623Q139.49063 29.818748 140.36563 30.724998Q141.24063 31.631248 142.5375 31.631248Q143.50626 31.631248 144.17813 31.131248Q144.86563 30.615623 145.27188 29.506248ZM139.49063 26.662498L145.2875 26.662498Q145.17813 25.365623 144.63126 24.709373Q143.7875 23.693748 142.44376 23.693748Q141.24063 23.693748 140.4125 24.506248Q139.58438 25.303123 139.49063 26.662498ZM159.49063 32.85L153.94376 18.537498L155.99063 18.537498L159.70938 28.928123Q160.1625 30.178123 160.45938 31.271873Q160.7875 30.099998 161.24063 28.928123L165.1 18.537498L167.0375 18.537498L161.42813 32.85L159.49063 32.85ZM167.52188 27.662498Q167.52188 24.787498 169.11563 23.396873Q170.45938 22.240623 172.38126 22.240623Q174.52188 22.240623 175.86563 23.646873Q177.225 25.053123 177.225 27.521873Q177.225 29.521873 176.63126 30.678123Q176.0375 31.818748 174.88126 32.459373Q173.74063 33.084373 172.38126 33.084373Q170.19376 33.084373 168.85 31.693748Q167.52188 30.287498 167.52188 27.662498ZM169.31876 27.662498Q169.31876 29.662498 170.17813 30.646873Q171.05313 31.631248 172.38126 31.631248Q173.69376 31.631248 174.55313 30.646873Q175.42813 29.646873 175.42813 27.599998Q175.42813 25.678123 174.55313 24.693748Q173.67813 23.693748 172.38126 23.693748Q171.05313 23.693748 170.17813 24.693748Q169.31876 25.678123 169.31876 27.662498ZM179.13126 32.85L179.13126 18.537498L180.88126 18.537498L180.88126 32.85L179.13126 32.85ZM187.00626 31.271873L187.25626 32.834373Q186.52188 32.990623 185.92813 32.990623Q184.975 32.990623 184.44376 32.69375Q183.92813 32.38125 183.70938 31.896873Q183.49063 31.396873 183.49063 29.818748L183.49063 23.849998L182.20938 23.849998L182.20938 22.474998L183.49063 22.474998L183.49063 19.912498L185.24063 18.849998L185.24063 22.474998L187.00626 22.474998L187.00626 23.849998L185.24063 23.849998L185.24063 29.912498Q185.24063 30.662498 185.33438 30.881248Q185.42813 31.084373 185.63126 31.224998Q185.85 31.349998 186.24063 31.349998Q186.52188 31.349998 187.00626 31.271873ZM195.94376 31.568748Q194.95938 32.396873 194.05313 32.740623Q193.14688 33.084373 192.11563 33.084373Q190.4125 33.084373 189.49063 32.25625Q188.56876 31.412498 188.56876 30.115623Q188.56876 29.349998 188.9125 28.724998Q189.27188 28.099998 189.83438 27.724998Q190.39688 27.334373 191.1 27.131248Q191.61563 27.006248 192.6625 26.865623Q194.7875 26.615623 195.7875 26.271873Q195.80313 25.912498 195.80313 25.803123Q195.80313 24.740623 195.30313 24.287498Q194.63126 23.693748 193.30313 23.693748Q192.05313 23.693748 191.45938 24.131248Q190.88126 24.568748 190.6 25.678123L188.88126 25.443748Q189.11563 24.334373 189.64688 23.662498Q190.17813 22.974998 191.19376 22.615623Q192.20938 22.240623 193.55313 22.240623Q194.88126 22.240623 195.70938 22.553123Q196.5375 22.865623 196.92813 23.349998Q197.31876 23.818748 197.475 24.537498Q197.56876 24.990623 197.56876 26.162498L197.56876 28.506248Q197.56876 30.959373 197.67813 31.615623Q197.7875 32.25625 198.13126 32.85L196.2875 32.85Q196.02188 32.303123 195.94376 31.568748ZM195.7875 27.646873Q194.83438 28.037498 192.9125 28.303123Q191.83438 28.459373 191.38126 28.662498Q190.94376 28.849998 190.69376 29.224998Q190.44376 29.599998 190.44376 30.068748Q190.44376 30.771873 190.975 31.240623Q191.50626 31.709373 192.5375 31.709373Q193.55313 31.709373 194.33438 31.271873Q195.13126 30.818748 195.50626 30.053123Q195.7875 29.443748 195.7875 28.287498L195.7875 27.646873ZM199.85 33.709373L201.55313 33.959373Q201.6625 34.75625 202.14688 35.115623Q202.80313 35.6 203.94376 35.6Q205.1625 35.6 205.81876 35.115623Q206.49063 34.63125 206.725 33.75625Q206.86563 33.209373 206.85 31.490623Q205.69376 32.85 203.975 32.85Q201.83438 32.85 200.6625 31.303123Q199.49063 29.756248 199.49063 27.599998Q199.49063 26.115623 200.02188 24.865623Q200.56876 23.615623 201.58438 22.928123Q202.61563 22.240623 203.99063 22.240623Q205.81876 22.240623 207.02188 23.724998L207.02188 22.474998L208.63126 22.474998L208.63126 31.443748Q208.63126 33.865623 208.13126 34.865623Q207.64688 35.88125 206.56876 36.459373Q205.50626 37.053123 203.94376 37.053123Q202.1 37.053123 200.94376 36.225Q199.80313 35.396873 199.85 33.709373ZM201.30313 27.474998Q201.30313 29.521873 202.11563 30.459373Q202.92813 31.396873 204.14688 31.396873Q205.35 31.396873 206.1625 30.459373Q206.99063 29.521873 206.99063 27.537498Q206.99063 25.631248 206.14688 24.662498Q205.30313 23.693748 204.11563 23.693748Q202.94376 23.693748 202.11563 24.646873Q201.30313 25.599998 201.30313 27.474998ZM218.27188 29.506248L220.08438 29.740623Q219.6625 31.318748 218.49063 32.209373Q217.33438 33.084373 215.52188 33.084373Q213.25626 33.084373 211.9125 31.693748Q210.58438 30.287498 210.58438 27.756248Q210.58438 25.131248 211.92813 23.693748Q213.27188 22.240623 215.42813 22.240623Q217.50626 22.240623 218.81876 23.662498Q220.14688 25.068748 220.14688 27.646873Q220.14688 27.803123 220.13126 28.115623L212.39688 28.115623Q212.49063 29.818748 213.36563 30.724998Q214.24063 31.631248 215.5375 31.631248Q216.50626 31.631248 217.17813 31.131248Q217.86563 30.615623 218.27188 29.506248ZM212.49063 26.662498L218.2875 26.662498Q218.17813 25.365623 217.63126 24.709373Q216.7875 23.693748 215.44376 23.693748Q214.24063 23.693748 213.4125 24.506248Q212.58438 25.303123 212.49063 26.662498ZM231.05313 32.85L227.1 22.474998L228.95938 22.474998L231.19376 28.693748Q231.55313 29.693748 231.85 30.771873Q232.08438 29.959373 232.50626 28.803123L234.80313 22.474998L236.61563 22.474998L232.69376 32.85L231.05313 32.85ZM236.45938 29.756248L238.20938 29.474998Q238.35 30.521873 239.02188 31.084373Q239.69376 31.631248 240.89688 31.631248Q242.1 31.631248 242.67813 31.146873Q243.27188 30.646873 243.27188 29.990623Q243.27188 29.396873 242.75626 29.053123Q242.39688 28.818748 240.95938 28.459373Q239.02188 27.959373 238.27188 27.615623Q237.5375 27.256248 237.14688 26.631248Q236.75626 25.990623 236.75626 25.224998Q236.75626 24.537498 237.06876 23.943748Q237.39688 23.349998 237.94376 22.959373Q238.35 22.662498 239.05313 22.459373Q239.77188 22.240623 240.58438 22.240623Q241.80313 22.240623 242.725 22.599998Q243.64688 22.943748 244.08438 23.553123Q244.52188 24.146873 244.69376 25.146873L242.975 25.381248Q242.85 24.584373 242.2875 24.146873Q241.725 23.693748 240.70938 23.693748Q239.49063 23.693748 238.975 24.099998Q238.45938 24.490623 238.45938 25.021873Q238.45938 25.365623 238.67813 25.646873Q238.88126 25.928123 239.35 26.115623Q239.61563 26.209373 240.89688 26.553123Q242.77188 27.053123 243.50626 27.381248Q244.24063 27.693748 244.6625 28.303123Q245.08438 28.896873 245.08438 29.803123Q245.08438 30.678123 244.56876 31.459373Q244.05313 32.240623 243.08438 32.6625Q242.11563 33.084373 240.89688 33.084373Q238.88126 33.084373 237.81876 32.240623Q236.75626 31.396873 236.45938 29.756248ZM247.6625 32.85L247.6625 30.849998L249.6625 30.849998L249.6625 32.85L247.6625 32.85ZM263.49063 32.85L257.94376 18.537498L259.99063 18.537498L263.70938 28.928123Q264.1625 30.178123 264.45938 31.271873Q264.7875 30.099998 265.24063 28.928123L269.1 18.537498L271.0375 18.537498L265.42813 32.85L263.49063 32.85ZM280.9125 31.162498L280.9125 32.85L271.45938 32.85Q271.44376 32.209373 271.6625 31.631248Q272.02188 30.662498 272.81876 29.724998Q273.61563 28.787498 275.11563 27.553123Q277.45938 25.646873 278.27188 24.537498Q279.1 23.412498 279.1 22.412498Q279.1 21.365623 278.35 20.646873Q277.6 19.928123 276.39688 19.928123Q275.13126 19.928123 274.36563 20.693748Q273.6 21.459373 273.6 22.803123L271.7875 22.615623Q271.975 20.599998 273.17813 19.537498Q274.39688 18.474998 276.44376 18.474998Q278.49063 18.474998 279.69376 19.615623Q280.89688 20.756248 280.89688 22.443748Q280.89688 23.303123 280.5375 24.146873Q280.19376 24.974998 279.38126 25.896873Q278.56876 26.803123 276.67813 28.412498Q275.08438 29.740623 274.63126 30.209373Q274.19376 30.678123 273.89688 31.162498L280.9125 31.162498Z" fill-rule="nonzero"/></svg>