<svg version="1.1" viewBox="0.0 0.0 447.0 277.0" fill="none" stroke="none" stroke-linecap="square" stroke-miterlimit="10" width="447" height="277" xmlns:xlink="http://www.w3.org/1999/xlink" xmlns="http://www.w3.org/2000/svg"><path fill="#ffffff" d="M0 0L447.0 0L447.0 277.0L0 277.0L0 0Z" fill-rule="nonzero"/><path stroke="#cccccc" stroke-width="1.0" stroke-linecap="butt" d="M88.5 54.5L88.5 243.5" fill-rule="nonzero"/><path stroke="#cccccc" stroke-width="1.0" stroke-linecap="butt" d="M154.5 54.5L154.5 243.5" fill-rule="nonzero"/><path stroke="#cccccc" stroke-width="1.0" stroke-linecap="butt" d="M221.5 54.5L221.5 243.5" fill-rule="nonzero"/><path stroke="#cccccc" stroke-width="1.0" stroke-linecap="butt" d="M287.5 54.5L287.5 243.5" fill-rule="nonzero"/><path stroke="#cccccc" stroke-width="1.0" stroke-linecap="butt" d="M354.5 54.5L354.5 243.5" fill-rule="nonzero"/><path stroke="#cccccc" stroke-width="1.0" stroke-linecap="butt" d="M421.5 54.5L421.5 243.5" fill-rule="nonzero"/><path stroke="#333333" stroke-width="1.0" stroke-linecap="butt" d="M40.5 243.5L433.5 243.5" fill-rule="nonzero"/><path stroke="#cccccc" stroke-width="1.0" stroke-linecap="butt" d="M40.5 195.5L433.5 195.5" fill-rule="nonzero"/><path stroke="#cccccc" stroke-width="1.0" stroke-linecap="butt" d="M40.5 148.5L433.5 148.5" fill-rule="nonzero"/><path stroke="#cccccc" stroke-width="1.0" stroke-linecap="butt" d="M40.5 101.5L433.5 101.5" fill-rule="nonzero"/><path stroke="#cccccc" stroke-width="1.0" stroke-linecap="butt" d="M40.5 54.5L433.5 54.5" fill-rule="nonzero"/><clipPath id="id_0"><path d="M40.85 54.083332L433.15 54.083332L433.15 243.15L40.85 243.15L40.85 54.083332Z" clip-rule="nonzero"/></clipPath><path fill="#4285f4" clip-path="url(#id_0)" d="M52.1088 144.48083C52.1088 146.96611 50.09408 148.98083 47.6088 148.98083C45.123516 148.98083 43.1088 146.96611 43.1088 144.48083C43.1088 141.99554 45.123516 139.98083 47.6088 139.98083C50.09408 139.98083 52.1088 141.99554 52.1088 144.48083Z" fill-rule="nonzero"/><path fill="#4285f4" clip-path="url(#id_0)" d="M161.94904 124.98333C161.94904 127.46861 159.93433 129.48334 157.44904 129.48334C154.96376 129.48334 152.94904 127.46861 152.94904 124.98333C152.94904 122.498055 154.96376 120.48333 157.44904 120.48333C159.93433 120.48333 161.94904 122.498055 161.94904 124.98333Z" fill-rule="nonzero"/><path fill="#4285f4" clip-path="url(#id_0)" d="M271.78928 105.48583C271.78928 107.971115 269.77457 109.98583 267.28928 109.98583C264.804 109.98583 262.78928 107.971115 262.78928 105.48583C262.78928 103.00055 264.804 100.98583 267.28928 100.98583C269.77457 100.98583 271.78928 103.00055 271.78928 105.48583Z" fill-rule="nonzero"/><path fill="#4285f4" clip-path="url(#id_0)" d="M380.9638 86.1065C380.9638 88.59178 378.9491 90.6065 376.4638 90.6065C373.97855 90.6065 371.9638 88.59178 371.9638 86.1065C371.9638 83.621216 373.97855 81.6065 376.4638 81.6065C378.9491 81.6065 380.9638 83.621216 380.9638 86.1065Z" fill-rule="nonzero"/><path fill="#4285f4" clip-path="url(#id_0)" d="M430.8912 77.244C430.8912 79.72928 428.8765 81.744 426.3912 81.744C423.9059 81.744 421.8912 79.72928 421.8912 77.244C421.8912 74.75872 423.9059 72.744 426.3912 72.744C428.8765 72.744 430.8912 74.75872 430.8912 77.244Z" fill-rule="nonzero"/><path fill="#000000" d="M28.35 242.91562Q28.35 241.38437 28.6625 240.4625Q28.975 239.525 29.584375 239.025Q30.209375 238.525 31.146875 238.525Q31.834375 238.525 32.35 238.80624Q32.88125 239.0875 33.225 239.61874Q33.56875 240.13437 33.75625 240.88437Q33.94375 241.63437 33.94375 242.91562Q33.94375 244.43124 33.63125 245.35312Q33.334373 246.275 32.709373 246.79062Q32.1 247.29062 31.146875 247.29062Q29.9125 247.29062 29.19375 246.4Q28.35 245.3375 28.35 242.91562ZM29.428125 242.91562Q29.428125 245.025 29.928125 245.72812Q30.428125 246.43124 31.146875 246.43124Q31.88125 246.43124 32.365623 245.72812Q32.865623 245.025 32.865623 242.91562Q32.865623 240.79062 32.365623 240.10312Q31.88125 239.4 31.13125 239.4Q30.4125 239.4 29.975 240.00937Q29.428125 240.79062 29.428125 242.91562Z" fill-rule="nonzero"/><path fill="#000000" d="M33.896873 198.8677L33.896873 199.88333L28.209375 199.88333Q28.209375 199.50833 28.334375 199.14896Q28.553125 198.57083 29.021875 198.00833Q29.50625 197.44583 30.4125 196.71146Q31.81875 195.5552 32.303123 194.88333Q32.803123 194.21146 32.803123 193.6177Q32.803123 192.9927 32.35 192.57083Q31.896875 192.13333 31.178125 192.13333Q30.4125 192.13333 29.959375 192.58646Q29.50625 193.03958 29.490625 193.85208L28.4125 193.7427Q28.521875 192.52396 29.240625 191.89896Q29.975 191.25833 31.209375 191.25833Q32.44375 191.25833 33.1625 191.94583Q33.88125 192.63333 33.88125 193.64896Q33.88125 194.16458 33.6625 194.66458Q33.459373 195.14896 32.959373 195.71146Q32.475 196.25833 31.35 197.21146Q30.396875 198.00833 30.115625 198.3052Q29.85 198.58646 29.678125 198.8677L33.896873 198.8677Z" fill-rule="nonzero"/><path fill="#000000" d="M31.725 152.61667L31.725 150.55417L28.00625 150.55417L28.00625 149.58542L31.928125 144.02292L32.7875 144.02292L32.7875 149.58542L33.94375 149.58542L33.94375 150.55417L32.7875 150.55417L32.7875 152.61667L31.725 152.61667ZM31.725 149.58542L31.725 145.72604L29.0375 149.58542L31.725 149.58542Z" fill-rule="nonzero"/><path fill="#000000" d="M33.81875 98.86562L32.771873 98.94375Q32.63125 98.31875 32.38125 98.0375Q31.94375 97.58437 31.31875 97.58437Q30.81875 97.58437 30.428125 97.86562Q29.94375 98.24062 29.646875 98.94375Q29.365625 99.63125 29.35 100.9125Q29.725 100.33437 30.271875 100.05312Q30.834375 99.77187 31.44375 99.77187Q32.490623 99.77187 33.225 100.55312Q33.975 101.33437 33.975 102.55312Q33.975 103.36562 33.615623 104.06875Q33.271873 104.75625 32.6625 105.13125Q32.053123 105.49062 31.2875 105.49062Q29.959375 105.49062 29.13125 104.52187Q28.303125 103.55312 28.303125 101.33437Q28.303125 98.83437 29.225 97.70937Q30.021875 96.725 31.38125 96.725Q32.396873 96.725 33.0375 97.30312Q33.69375 97.86562 33.81875 98.86562ZM29.521875 102.56875Q29.521875 103.11562 29.740625 103.61562Q29.975 104.1 30.38125 104.36562Q30.803125 104.63125 31.271875 104.63125Q31.928125 104.63125 32.4125 104.1Q32.896873 103.55312 32.896873 102.63125Q32.896873 101.74062 32.4125 101.225Q31.94375 100.70937 31.225 100.70937Q30.50625 100.70937 30.00625 101.225Q29.521875 101.74062 29.521875 102.56875Z" fill-rule="nonzero"/><path fill="#000000" d="M29.975 53.427082Q29.31875 53.177082 28.990625 52.739582Q28.678125 52.286457 28.678125 51.677082Q28.678125 50.739582 29.35 50.098957Q30.0375 49.458332 31.146875 49.458332Q32.271873 49.458332 32.959373 50.114582Q33.646873 50.770832 33.646873 51.708332Q33.646873 52.302082 33.334373 52.739582Q33.021873 53.177082 32.38125 53.427082Q33.178123 53.677082 33.584373 54.255207Q33.990623 54.833332 33.990623 55.630207Q33.990623 56.723957 33.209373 57.473957Q32.44375 58.223957 31.1625 58.223957Q29.896875 58.223957 29.115625 57.473957Q28.334375 56.723957 28.334375 55.598957Q28.334375 54.755207 28.75625 54.192707Q29.19375 53.630207 29.975 53.427082ZM29.75625 51.630207Q29.75625 52.239582 30.146875 52.630207Q30.553125 53.020832 31.178125 53.020832Q31.7875 53.020832 32.178123 52.645832Q32.56875 52.255207 32.56875 51.692707Q32.56875 51.114582 32.1625 50.723957Q31.75625 50.317707 31.1625 50.317707Q30.553125 50.317707 30.146875 50.708332Q29.75625 51.098957 29.75625 51.630207ZM29.428125 55.598957Q29.428125 56.052082 29.63125 56.473957Q29.85 56.895832 30.271875 57.130207Q30.69375 57.364582 31.178125 57.364582Q31.928125 57.364582 32.4125 56.880207Q32.9125 56.395832 32.9125 55.645832Q32.9125 54.880207 32.4125 54.380207Q31.9125 53.880207 31.146875 53.880207Q30.396875 53.880207 29.9125 54.380207Q29.428125 54.864582 29.428125 55.598957Z" fill-rule="nonzero"/><path fill="#000000" d="M88.5914 260.15L88.5914 258.0875L84.87265 258.0875L84.87265 257.11874L88.794525 251.55624L89.6539 251.55624L89.6539 257.11874L90.81015 257.11874L90.81015 258.0875L89.6539 258.0875L89.6539 260.15L88.5914 260.15ZM88.5914 257.11874L88.5914 253.25937L85.9039 257.11874L88.5914 257.11874Z" fill-rule="nonzero"/><path fill="#000000" d="M151.78624 257.9L152.89561 257.80624Q153.02061 258.61874 153.45811 259.025Q153.91124 259.43124 154.55186 259.43124Q155.30186 259.43124 155.83311 258.85312Q156.36436 258.275 156.36436 257.3375Q156.36436 256.43124 155.84874 255.91562Q155.34874 255.38437 154.52061 255.38437Q154.02061 255.38437 153.59874 255.61874Q153.19249 255.85312 152.95811 256.2125L151.97374 256.0875L152.80186 251.68124L157.08311 251.68124L157.08311 252.68124L153.64561 252.68124L153.19249 254.99374Q153.95811 254.44687 154.80186 254.44687Q155.92686 254.44687 156.69249 255.22812Q157.47374 256.00937 157.47374 257.24374Q157.47374 258.4 156.80186 259.25937Q155.97374 260.29062 154.55186 260.29062Q153.37999 260.29062 152.62999 259.63437Q151.89561 258.97812 151.78624 257.9Z" fill-rule="nonzero"/><path fill="#000000" d="M223.82484 253.66562L222.77797 253.74374Q222.63734 253.11874 222.38734 252.8375Q221.94984 252.38437 221.32484 252.38437Q220.82484 252.38437 220.43422 252.66562Q219.94984 253.04062 219.65297 253.74374Q219.37172 254.43124 219.3561 255.7125Q219.7311 255.13437 220.27797 254.85312Q220.84047 254.57187 221.44984 254.57187Q222.49672 254.57187 223.2311 255.35312Q223.9811 256.13437 223.9811 257.35312Q223.9811 258.16562 223.62172 258.86874Q223.27797 259.55624 222.6686 259.93124Q222.05922 260.29062 221.2936 260.29062Q219.96547 260.29062 219.13734 259.32187Q218.30922 258.35312 218.30922 256.13437Q218.30922 253.63437 219.2311 252.50937Q220.02797 251.525 221.38734 251.525Q222.40297 251.525 223.0436 252.10312Q223.69984 252.66562 223.82484 253.66562ZM219.52797 257.36874Q219.52797 257.91562 219.74672 258.41562Q219.9811 258.9 220.38734 259.16562Q220.80922 259.43124 221.27797 259.43124Q221.93422 259.43124 222.4186 258.9Q222.90297 258.35312 222.90297 257.43124Q222.90297 256.54062 222.4186 256.025Q221.94984 255.50937 221.2311 255.50937Q220.51234 255.50937 220.01234 256.025Q219.52797 256.54062 219.52797 257.36874Z" fill-rule="nonzero"/><path fill="#000000" d="M284.98843 252.68124L284.98843 251.66562L290.55093 251.66562L290.55093 252.49374Q289.73843 253.36874 288.92593 254.82187Q288.12906 256.25937 287.69156 257.79062Q287.36343 258.86874 287.2853 260.15L286.19156 260.15Q286.20718 259.13437 286.58218 257.69687Q286.9728 256.25937 287.67593 254.93124Q288.39468 253.60312 289.20718 252.68124L284.98843 252.68124Z" fill-rule="nonzero"/><path fill="#000000" d="M353.12076 255.49374Q352.4645 255.24374 352.13638 254.80624Q351.82388 254.35312 351.82388 253.74374Q351.82388 252.80624 352.49576 252.16562Q353.18326 251.525 354.29263 251.525Q355.41763 251.525 356.10513 252.18124Q356.79263 252.8375 356.79263 253.775Q356.79263 254.36874 356.48013 254.80624Q356.16763 255.24374 355.527 255.49374Q356.32388 255.74374 356.73013 256.32187Q357.13638 256.9 357.13638 257.69687Q357.13638 258.79062 356.35513 259.54062Q355.5895 260.29062 354.30826 260.29062Q353.04263 260.29062 352.26138 259.54062Q351.48013 258.79062 351.48013 257.66562Q351.48013 256.82187 351.902 256.25937Q352.3395 255.69687 353.12076 255.49374ZM352.902 253.69687Q352.902 254.30624 353.29263 254.69687Q353.69888 255.0875 354.32388 255.0875Q354.93326 255.0875 355.32388 254.7125Q355.7145 254.32187 355.7145 253.75937Q355.7145 253.18124 355.30826 252.79062Q354.902 252.38437 354.30826 252.38437Q353.69888 252.38437 353.29263 252.775Q352.902 253.16562 352.902 253.69687ZM352.57388 257.66562Q352.57388 258.11874 352.777 258.54062Q352.99576 258.9625 353.41763 259.19687Q353.8395 259.43124 354.32388 259.43124Q355.07388 259.43124 355.55826 258.94687Q356.05826 258.4625 356.05826 257.7125Q356.05826 256.94687 355.55826 256.44687Q355.05826 255.94687 354.29263 255.94687Q353.54263 255.94687 353.05826 256.44687Q352.57388 256.93124 352.57388 257.66562Z" fill-rule="nonzero"/><path fill="#000000" d="M418.22186 258.16562L419.2375 258.07187Q419.3625 258.79062 419.72186 259.11874Q420.09686 259.43124 420.65936 259.43124Q421.14374 259.43124 421.5031 259.2125Q421.8781 258.97812 422.1125 258.61874Q422.34686 258.24374 422.5031 257.61874Q422.65936 256.97812 422.65936 256.32187Q422.65936 256.24374 422.65936 256.10312Q422.34686 256.60312 421.8 256.93124Q421.2531 257.24374 420.6125 257.24374Q419.53436 257.24374 418.8 256.47812Q418.0656 255.69687 418.0656 254.43124Q418.0656 253.11874 418.83124 252.32187Q419.6125 251.525 420.76874 251.525Q421.59686 251.525 422.28436 251.97812Q422.9875 252.43124 423.34686 253.275Q423.70624 254.10312 423.70624 255.68124Q423.70624 257.32187 423.34686 258.30624Q423.0031 259.275 422.28436 259.79062Q421.58124 260.29062 420.64374 260.29062Q419.6281 260.29062 418.9875 259.74374Q418.34686 259.18124 418.22186 258.16562ZM422.53436 254.36874Q422.53436 253.4625 422.05 252.93124Q421.58124 252.4 420.89374 252.4Q420.1906 252.4 419.65936 252.97812Q419.14374 253.54062 419.14374 254.4625Q419.14374 255.275 419.64374 255.79062Q420.14374 256.30624 420.8625 256.30624Q421.59686 256.30624 422.0656 255.79062Q422.53436 255.275 422.53436 254.36874Z" fill-rule="nonzero"/><path fill="#757575" d="M25.615625 27.834373L27.50625 28.303123Q26.9125 30.646873 25.365625 31.881248Q23.81875 33.1 21.56875 33.1Q19.25625 33.1 17.803125 32.1625Q16.365625 31.209373 15.6 29.428123Q14.85 27.631248 14.85 25.584373Q14.85 23.349998 15.69375 21.693748Q16.553125 20.021873 18.13125 19.162498Q19.709375 18.287498 21.6 18.287498Q23.75625 18.287498 25.209375 19.381248Q26.678125 20.474998 27.25625 22.459373L25.396875 22.896873Q24.896875 21.334373 23.94375 20.631248Q23.00625 19.912498 21.56875 19.912498Q19.9125 19.912498 18.803125 20.709373Q17.69375 21.490623 17.240625 22.834373Q16.803125 24.162498 16.803125 25.568748Q16.803125 27.396873 17.334375 28.771873Q17.865625 30.131248 18.990625 30.803123Q20.115625 31.474998 21.4125 31.474998Q23.00625 31.474998 24.115625 30.553123Q25.225 29.631248 25.615625 27.834373ZM28.521875 27.662498Q28.521875 24.787498 30.115625 23.396873Q31.459375 22.240623 33.38125 22.240623Q35.521873 22.240623 36.865623 23.646873Q38.225 25.053123 38.225 27.521873Q38.225 29.521873 37.63125 30.678123Q37.0375 31.818748 35.88125 32.459373Q34.740623 33.084373 33.38125 33.084373Q31.19375 33.084373 29.85 31.693748Q28.521875 30.287498 28.521875 27.662498ZM30.31875 27.662498Q30.31875 29.662498 31.178125 30.646873Q32.053123 31.631248 33.38125 31.631248Q34.69375 31.631248 35.553123 30.646873Q36.428123 29.646873 36.428123 27.599998Q36.428123 25.678123 35.553123 24.693748Q34.678123 23.693748 33.38125 23.693748Q32.053123 23.693748 31.178125 24.693748Q30.31875 25.678123 30.31875 27.662498ZM40.1625 32.85L40.1625 22.474998L41.740623 22.474998L41.740623 23.928123Q42.225 23.178123 43.0375 22.709373Q43.85 22.240623 44.88125 22.240623Q46.0375 22.240623 46.771873 22.724998Q47.50625 23.193748 47.81875 24.053123Q49.053123 22.240623 51.021873 22.240623Q52.56875 22.240623 53.396873 23.099998Q54.225 23.959373 54.225 25.724998L54.225 32.85L52.475 32.85L52.475 26.318748Q52.475 25.256248 52.303123 24.803123Q52.13125 24.334373 51.678123 24.053123Q51.240623 23.771873 50.63125 23.771873Q49.5375 23.771873 48.803123 24.506248Q48.084373 25.224998 48.084373 26.818748L48.084373 32.85L46.334373 32.85L46.334373 26.115623Q46.334373 24.943748 45.896873 24.365623Q45.475 23.771873 44.490623 23.771873Q43.75625 23.771873 43.115623 24.162498Q42.490623 24.553123 42.209373 25.303123Q41.928123 26.053123 41.928123 27.474998L41.928123 32.85L40.1625 32.85ZM56.1625 32.85L56.1625 22.474998L57.740623 22.474998L57.740623 23.928123Q58.225 23.178123 59.0375 22.709373Q59.85 22.240623 60.88125 22.240623Q62.0375 22.240623 62.771873 22.724998Q63.50625 23.193748 63.81875 24.053123Q65.05312 22.240623 67.02187 22.240623Q68.56875 22.240623 69.39687 23.099998Q70.225 23.959373 70.225 25.724998L70.225 32.85L68.475 32.85L68.475 26.318748Q68.475 25.256248 68.30312 24.803123Q68.13125 24.334373 67.67812 24.053123Q67.24062 23.771873 66.63125 23.771873Q65.5375 23.771873 64.80312 24.506248Q64.08437 25.224998 64.08437 26.818748L64.08437 32.85L62.334373 32.85L62.334373 26.115623Q62.334373 24.943748 61.896873 24.365623Q61.475 23.771873 60.490623 23.771873Q59.75625 23.771873 59.115623 24.162498Q58.490623 24.553123 58.209373 25.303123Q57.928123 26.053123 57.928123 27.474998L57.928123 32.85L56.1625 32.85ZM71.52187 27.662498Q71.52187 24.787498 73.11562 23.396873Q74.45937 22.240623 76.38125 22.240623Q78.52187 22.240623 79.86562 23.646873Q81.225 25.053123 81.225 27.521873Q81.225 29.521873 80.63125 30.678123Q80.0375 31.818748 78.88125 32.459373Q77.74062 33.084373 76.38125 33.084373Q74.19375 33.084373 72.85 31.693748Q71.52187 30.287498 71.52187 27.662498ZM73.31875 27.662498Q73.31875 29.662498 74.17812 30.646873Q75.05312 31.631248 76.38125 31.631248Q77.69375 31.631248 78.55312 30.646873Q79.42812 29.646873 79.42812 27.599998Q79.42812 25.678123 78.55312 24.693748Q77.67812 23.693748 76.38125 23.693748Q75.05312 23.693748 74.17812 24.693748Q73.31875 25.678123 73.31875 27.662498ZM83.1625 32.85L83.1625 22.474998L84.75625 22.474998L84.75625 23.959373Q85.89687 22.240623 88.05312 22.240623Q88.99062 22.240623 89.77187 22.584373Q90.56875 22.912498 90.95937 23.459373Q91.35 24.006248 91.50625 24.756248Q91.6 25.256248 91.6 26.474998L91.6 32.85L89.83437 32.85L89.83437 26.537498Q89.83437 25.459373 89.63125 24.928123Q89.42812 24.396873 88.89687 24.084373Q88.38125 23.771873 87.67812 23.771873Q86.55312 23.771873 85.74062 24.490623Q84.92812 25.193748 84.92812 27.178123L84.92812 32.85L83.1625 32.85ZM99.33437 32.85L99.33437 18.537498L102.19375 18.537498L105.56875 28.662498Q106.0375 30.084373 106.25625 30.787498Q106.50625 30.006248 107.02187 28.490623L110.44375 18.537498L112.99062 18.537498L112.99062 32.85L111.17812 32.85L111.17812 20.865623L107.00625 32.85L105.30312 32.85L101.1625 20.662498L101.1625 32.85L99.33437 32.85ZM115.52187 27.662498Q115.52187 24.787498 117.11562 23.396873Q118.45937 22.240623 120.38125 22.240623Q122.52187 22.240623 123.86562 23.646873Q125.225 25.053123 125.225 27.521873Q125.225 29.521873 124.63125 30.678123Q124.0375 31.818748 122.88125 32.459373Q121.74062 33.084373 120.38125 33.084373Q118.19375 33.084373 116.85 31.693748Q115.52187 30.287498 115.52187 27.662498ZM117.31875 27.662498Q117.31875 29.662498 118.17812 30.646873Q119.05312 31.631248 120.38125 31.631248Q121.69375 31.631248 122.55312 30.646873Q123.42812 29.646873 123.42812 27.599998Q123.42812 25.678123 122.55312 24.693748Q121.67812 23.693748 120.38125 23.693748Q119.05312 23.693748 118.17812 24.693748Q117.31875 25.678123 117.31875 27.662498ZM133.89688 32.85L133.89688 31.537498Q132.9125 33.084373 130.99063 33.084373Q129.75626 33.084373 128.70938 32.396873Q127.67812 31.709373 127.1 30.490623Q126.5375 29.271873 126.5375 27.678123Q126.5375 26.115623 127.05312 24.849998Q127.56875 23.584373 128.6 22.912498Q129.64688 22.240623 130.9125 22.240623Q131.85 22.240623 132.58438 22.646873Q133.31876 23.037498 133.7875 23.662498L133.7875 18.537498L135.52188 18.537498L135.52188 32.85L133.89688 32.85ZM128.33438 27.678123Q128.33438 29.662498 129.17813 30.646873Q130.02188 31.631248 131.1625 31.631248Q132.31876 31.631248 133.11563 30.693748Q133.92813 29.756248 133.92813 27.818748Q133.92813 25.693748 133.1 24.693748Q132.2875 23.693748 131.08438 23.693748Q129.9125 23.693748 129.11563 24.662498Q128.33438 25.615623 128.33438 27.678123ZM145.27188 29.506248L147.08438 29.740623Q146.6625 31.318748 145.49063 32.209373Q144.33438 33.084373 142.52188 33.084373Q140.25626 33.084373 138.9125 31.693748Q137.58438 30.287498 137.58438 27.756248Q137.58438 25.131248 138.92813 23.693748Q140.27188 22.240623 142.42813 22.240623Q144.50626 22.240623 145.81876 23.662498Q147.14688 25.068748 147.14688 27.646873Q147.14688 27.803123 147.13126 28.115623L139.39688 28.115623Q139.49063 29.818748 140.36563 30.724998Q141.24063 31.631248 142.5375 31.631248Q143.50626 31.631248 144.17813 31.131248Q144.86563 30.615623 145.27188 29.506248ZM139.49063 26.662498L145.2875 26.662498Q145.17813 25.365623 144.63126 24.709373Q143.7875 23.693748 142.44376 23.693748Q141.24063 23.693748 140.4125 24.506248Q139.58438 25.303123 139.49063 26.662498ZM159.49063 32.85L153.94376 18.537498L155.99063 18.537498L159.70938 28.928123Q160.1625 30.178123 160.45938 31.271873Q160.7875 30.099998 161.24063 28.928123L165.1 18.537498L167.0375 18.537498L161.42813 32.85L159.49063 32.85ZM167.52188 27.662498Q167.52188 24.787498 169.11563 23.396873Q170.45938 22.240623 172.38126 22.240623Q174.52188 22.240623 175.86563 23.646873Q177.225 25.053123 177.225 27.521873Q177.225 29.521873 176.63126 30.678123Q176.0375 31.818748 174.88126 32.459373Q173.74063 33.084373 172.38126 33.084373Q170.19376 33.084373 168.85 31.693748Q167.52188 30.287498 167.52188 27.662498ZM169.31876 27.662498Q169.31876 29.662498 170.17813 30.646873Q171.05313 31.631248 172.38126 31.631248Q173.69376 31.631248 174.55313 30.646873Q175.42813 29.646873 175.42813 27.599998Q175.42813 25.678123 174.55313 24.693748Q173.67813 23.693748 172.38126 23.693748Q171.05313 23.693748 170.17813 24.693748Q169.31876 25.678123 169.31876 27.662498ZM179.13126 32.85L179.13126 18.537498L180.88126 18.537498L180.88126 32.85L179.13126 32.85ZM187.00626 31.271873L187.25626 32.834373Q186.52188 32.990623 185.92813 32.990623Q184.975 32.990623 184.44376 32.69375Q183.92813 32.38125 183.70938 31.896873Q183.49063 31.396873 183.49063 29.818748L183.49063 23.849998L182.20938 23.849998L182.20938 22.474998L183.49063 22.474998L183.49063 19.912498L185.24063 18.849998L185.24063 22.474998L187.00626 22.474998L187.00626 23.849998L185.24063 23.849998L185.24063 29.912498Q185.24063 30.662498 185.33438 30.881248Q185.42813 31.084373 185.63126 31.224998Q185.85 31.349998 186.24063 31.349998Q186.52188 31.349998 187.00626 31.271873ZM195.94376 31.568748Q194.95938 32.396873 194.05313 32.740623Q193.14688 33.084373 192.11563 33.084373Q190.4125 33.084373 189.49063 32.25625Q188.56876 31.412498 188.56876 30.115623Q188.56876 29.349998 188.9125 28.724998Q189.27188 28.099998 189.83438 27.724998Q190.39688 27.334373 191.1 27.131248Q191.61563 27.006248 192.6625 26.865623Q194.7875 26.615623 195.7875 26.271873Q195.80313 25.912498 195.80313 25.803123Q195.80313 24.740623 195.30313 24.287498Q194.63126 23.693748 193.30313 23.693748Q192.05313 23.693748 191.45938 24.131248Q190.88126 24.568748 190.6 25.678123L188.88126 25.443748Q189.11563 24.334373 189.64688 23.662498Q190.17813 22.974998 191.19376 22.615623Q192.20938 22.240623 193.55313 22.240623Q194.88126 22.240623 195.70938 22.553123Q196.5375 22.865623 196.92813 23.349998Q197.31876 23.818748 197.475 24.537498Q197.56876 24.990623 197.56876 26.162498L197.56876 28.506248Q197.56876 30.959373 197.67813 31.615623Q197.7875 32.25625 198.13126 32.85L196.2875 32.85Q196.02188 32.303123 195.94376 31.568748ZM195.7875 27.646873Q194.83438 28.037498 192.9125 28.303123Q191.83438 28.459373 191.38126 28.662498Q190.94376 28.849998 190.69376 29.224998Q190.44376 29.599998 190.44376 30.068748Q190.44376 30.771873 190.975 31.240623Q191.50626 31.709373 192.5375 31.709373Q193.55313 31.709373 194.33438 31.271873Q195.13126 30.818748 195.50626 30.053123Q195.7875 29.443748 195.7875 28.287498L195.7875 27.646873ZM199.85 33.709373L201.55313 33.959373Q201.6625 34.75625 202.14688 35.115623Q202.80313 35.6 203.94376 35.6Q205.1625 35.6 205.81876 35.115623Q206.49063 34.63125 206.725 33.75625Q206.86563 33.209373 206.85 31.490623Q205.69376 32.85 203.975 32.85Q201.83438 32.85 200.6625 31.303123Q199.49063 29.756248 199.49063 27.599998Q199.49063 26.115623 200.02188 24.865623Q200.56876 23.615623 201.58438 22.928123Q202.61563 22.240623 203.99063 22.240623Q205.81876 22.240623 207.02188 23.724998L207.02188 22.474998L208.63126 22.474998L208.63126 31.443748Q208.63126 33.865623 208.13126 34.865623Q207.64688 35.88125 206.56876 36.459373Q205.50626 37.053123 203.94376 37.053123Q202.1 37.053123 200.94376 36.225Q199.80313 35.396873 199.85 33.709373ZM201.30313 27.474998Q201.30313 29.521873 202.11563 30.459373Q202.92813 31.396873 204.14688 31.396873Q205.35 31.396873 206.1625 30.459373Q206.99063 29.521873 206.99063 27.537498Q206.99063 25.631248 206.14688 24.662498Q205.30313 23.693748 204.11563 23.693748Q202.94376 23.693748 202.11563 24.646873Q201.30313 25.599998 201.30313 27.474998ZM218.27188 29.506248L220.08438 29.740623Q219.6625 31.318748 218.49063 32.209373Q217.33438 33.084373 215.52188 33.084373Q213.25626 33.084373 211.9125 31.693748Q210.58438 30.287498 210.58438 27.756248Q210.58438 25.131248 211.92813 23.693748Q213.27188 22.240623 215.42813 22.240623Q217.50626 22.240623 218.81876 23.662498Q220.14688 25.068748 220.14688 27.646873Q220.14688 27.803123 220.13126 28.115623L212.39688 28.115623Q212.49063 29.818748 213.36563 30.724998Q214.24063 31.631248 215.5375 31.631248Q216.50626 31.631248 217.17813 31.131248Q217.86563 30.615623 218.27188 29.506248ZM212.49063 26.662498L218.2875 26.662498Q218.17813 25.365623 217.63126 24.709373Q216.7875 23.693748 215.44376 23.693748Q214.24063 23.693748 213.4125 24.506248Q212.58438 25.303123 212.49063 26.662498ZM231.05313 32.85L227.1 22.474998L228.95938 22.474998L231.19376 28.693748Q231.55313 29.693748 231.85 30.771873Q232.08438 29.959373 232.50626 28.803123L234.80313 22.474998L236.61563 22.474998L232.69376 32.85L231.05313 32.85ZM236.45938 29.756248L238.20938 29.474998Q238.35 30.521873 239.02188 31.084373Q239.69376 31.631248 240.89688 31.631248Q242.1 31.631248 242.67813 31.146873Q243.27188 30.646873 243.27188 29.990623Q243.27188 29.396873 242.75626 29.053123Q242.39688 28.818748 240.95938 28.459373Q239.02188 27.959373 238.27188 27.615623Q237.5375 27.256248 237.14688 26.631248Q236.75626 25.990623 236.75626 25.224998Q236.75626 24.537498 237.06876 23.943748Q237.39688 23.349998 237.94376 22.959373Q238.35 22.662498 239.05313 22.459373Q239.77188 22.240623 240.58438 22.240623Q241.80313 22.240623 242.725 22.599998Q243.64688 22.943748 244.08438 23.553123Q244.52188 24.146873 244.69376 25.146873L242.975 25.381248Q242.85 24.584373 242.2875 24.146873Q241.725 23.693748 240.70938 23.693748Q239.49063 23.693748 238.975 24.099998Q238.45938 24.490623 238.45938 25.021873Q238.45938 25.365623 238.67813 25.646873Q238.88126 25.928123 239.35 26.115623Q239.61563 26.209373 240.89688 26.553123Q242.77188 27.053123 243.50626 27.381248Q244.24063 27.693748 244.6625 28.303123Q245.08438 28.896873 245.08438 29.803123Q245.08438 30.678123 244.56876 31.459373Q244.05313 32.240623 243.08438 32.6625Q242.11563 33.084373 240.89688 33.084373Q238.88126 33.084373 237.81876 32.240623Q236.75626 31.396873 236.45938 29.756248ZM247.6625 32.85L247.6625 30.849998L249.6625 30.849998L249.6625 32.85L247.6625 32.85ZM263.49063 32.85L257.94376 18.537498L259.99063 18.537498L263.70938 28.928123Q264.1625 30.178123 264.45938 31.271873Q264.7875 30.099998 265.24063 28.928123L269.1 18.537498L271.0375 18.537498L265.42813 32.85L263.49063 32.85ZM271.69376 29.068748L273.44376 28.834373Q273.75626 30.334373 274.475 30.990623Q275.20938 31.646873 276.25626 31.646873Q277.49063 31.646873 278.33438 30.787498Q279.19376 29.928123 279.19376 28.662498Q279.19376 27.443748 278.39688 26.662498Q277.61563 25.881248 276.39688 25.881248Q275.89688 25.881248 275.1625 26.068748L275.35 24.521873Q275.52188 24.553123 275.63126 24.553123Q276.75626 24.553123 277.64688 23.974998Q278.55313 23.381248 278.55313 22.162498Q278.55313 21.193748 277.89688 20.553123Q277.24063 19.912498 276.20938 19.912498Q275.19376 19.912498 274.50626 20.568748Q273.81876 21.209373 273.63126 22.490623L271.86563 22.178123Q272.19376 20.412498 273.33438 19.443748Q274.475 18.474998 276.17813 18.474998Q277.35 18.474998 278.33438 18.974998Q279.31876 19.474998 279.83438 20.349998Q280.36563 21.224998 280.36563 22.193748Q280.36563 23.115623 279.86563 23.881248Q279.36563 24.646873 278.39688 25.099998Q279.6625 25.381248 280.36563 26.318748Q281.06876 27.240623 281.06876 28.615623Q281.06876 30.490623 279.69376 31.803123Q278.33438 33.1 276.24063 33.1Q274.35 33.1 273.1 31.974998Q271.86563 30.849998 271.69376 29.068748Z" fill-rule="nonzero"/></svg>