<svg version="1.1" viewBox="0.0 0.0 591.0 367.0" fill="none" stroke="none" stroke-linecap="square" stroke-miterlimit="10" width="591" height="367" xmlns:xlink="http://www.w3.org/1999/xlink" xmlns="http://www.w3.org/2000/svg"><path fill="#ffffff" d="M0 0L591.0 0L591.0 367.0L0 367.0L0 0Z" fill-rule="nonzero"/><path stroke="#cccccc" stroke-width="1.0" stroke-linecap="butt" d="M87.5 61.5L87.5 296.5" fill-rule="nonzero"/><path stroke="#cccccc" stroke-width="1.0" stroke-linecap="butt" d="M226.5 61.5L226.5 296.5" fill-rule="nonzero"/><path stroke="#cccccc" stroke-width="1.0" stroke-linecap="butt" d="M364.5 61.5L364.5 296.5" fill-rule="nonzero"/><path stroke="#cccccc" stroke-width="1.0" stroke-linecap="butt" d="M503.5 61.5L503.5 296.5" fill-rule="nonzero"/><path stroke="#333333" stroke-width="1.0" stroke-linecap="butt" d="M87.5 296.5L572.5 296.5" fill-rule="nonzero"/><path stroke="#cccccc" stroke-width="1.0" stroke-linecap="butt" d="M87.5 249.5L572.5 249.5" fill-rule="nonzero"/><path stroke="#cccccc" stroke-width="1.0" stroke-linecap="butt" d="M87.5 202.5L572.5 202.5" fill-rule="nonzero"/><path stroke="#cccccc" stroke-width="1.0" stroke-linecap="butt" d="M87.5 155.5L572.5 155.5" fill-rule="nonzero"/><path stroke="#cccccc" stroke-width="1.0" stroke-linecap="butt" d="M87.5 108.5L572.5 108.5" fill-rule="nonzero"/><path stroke="#cccccc" stroke-width="1.0" stroke-linecap="butt" d="M87.5 61.5L572.5 61.5" fill-rule="nonzero"/><clipPath id="id_0"><path d="M87.35 61.583332L572.65 61.583332L572.65 296.65L87.35 296.65L87.35 61.583332Z" clip-rule="nonzero"/></clipPath><path stroke="#4285f4" stroke-width="2.0" stroke-linecap="butt" clip-path="url(#id_0)" d="M87.35 249.63667L156.67857 226.13L226.00714 202.62334L295.33572 179.11667L364.66428 155.61L433.99286 132.10333L503.32144 108.596664L572.65 85.09" fill-rule="nonzero"/><path fill="#000000" fill-opacity="0.0" clip-path="url(#id_0)" d="M90.35 249.63667C90.35 251.29352 89.00685 252.63667 87.35 252.63667C85.693146 252.63667 84.35 251.29352 84.35 249.63667C84.35 247.97981 85.693146 246.63667 87.35 246.63667C89.00685 246.63667 90.35 247.97981 90.35 249.63667Z" fill-rule="nonzero"/><path fill="#000000" fill-opacity="0.0" clip-path="url(#id_0)" d="M159.67857 226.13C159.67857 227.78685 158.33542 229.13 156.67857 229.13C155.02171 229.13 153.67857 227.78685 153.67857 226.13C153.67857 224.47314 155.02171 223.13 156.67857 223.13C158.33542 223.13 159.67857 224.47314 159.67857 226.13Z" fill-rule="nonzero"/><path fill="#000000" fill-opacity="0.0" clip-path="url(#id_0)" d="M229.00714 202.62334C229.00714 204.28018 227.664 205.62334 226.00714 205.62334C224.3503 205.62334 223.00714 204.28018 223.00714 202.62334C223.00714 200.96648 224.3503 199.62334 226.00714 199.62334C227.664 199.62334 229.00714 200.96648 229.00714 202.62334Z" fill-rule="nonzero"/><path fill="#000000" fill-opacity="0.0" clip-path="url(#id_0)" d="M298.33572 179.11667C298.33572 180.77351 296.99255 182.11667 295.33572 182.11667C293.67886 182.11667 292.33572 180.77351 292.33572 179.11667C292.33572 177.45981 293.67886 176.11667 295.33572 176.11667C296.99255 176.11667 298.33572 177.45981 298.33572 179.11667Z" fill-rule="nonzero"/><path fill="#000000" fill-opacity="0.0" clip-path="url(#id_0)" d="M367.66428 155.61C367.66428 157.26686 366.32114 158.61 364.66428 158.61C363.00745 158.61 361.66428 157.26686 361.66428 155.61C361.66428 153.95314 363.00745 152.61 364.66428 152.61C366.32114 152.61 367.66428 153.95314 367.66428 155.61Z" fill-rule="nonzero"/><path fill="#000000" fill-opacity="0.0" clip-path="url(#id_0)" d="M436.99286 132.10333C436.99286 133.7602 435.64972 135.10333 433.99286 135.10333C432.336 135.10333 430.99286 133.7602 430.99286 132.10333C430.99286 130.44647 432.336 129.10333 433.99286 129.10333C435.64972 129.10333 436.99286 130.44647 436.99286 132.10333Z" fill-rule="nonzero"/><path fill="#000000" fill-opacity="0.0" clip-path="url(#id_0)" d="M506.32144 108.596664C506.32144 110.25352 504.97827 111.596664 503.32144 111.596664C501.66458 111.596664 500.32144 110.25352 500.32144 108.596664C500.32144 106.93981 501.66458 105.596664 503.32144 105.596664C504.97827 105.596664 506.32144 106.93981 506.32144 108.596664Z" fill-rule="nonzero"/><path fill="#000000" fill-opacity="0.0" clip-path="url(#id_0)" d="M575.65 85.09C575.65 86.74686 574.3069 88.09 572.65 88.09C570.99316 88.09 569.65 86.74686 569.65 85.09C569.65 83.43314 570.99316 82.09 572.65 82.09C574.3069 82.09 575.65 83.43314 575.65 85.09Z" fill-rule="nonzero"/><path fill="#000000" d="M281.92188 345.65L281.92188 337.05624L284.89062 337.05624Q285.89062 337.05624 286.42188 337.18124Q287.15625 337.35312 287.67188 337.79062Q288.35938 338.36874 288.6875 339.275Q289.03125 340.16562 289.03125 341.30624Q289.03125 342.29062 288.79688 343.04062Q288.57812 343.79062 288.21875 344.29062Q287.85938 344.79062 287.42188 345.07187Q287.0 345.35312 286.40625 345.50937Q285.8125 345.65 285.03125 345.65L281.92188 345.65ZM283.0625 344.63437L284.89062 344.63437Q285.75 344.63437 286.23438 344.47812Q286.71875 344.32187 287.0 344.025Q287.40625 343.63437 287.625 342.94687Q287.85938 342.25937 287.85938 341.29062Q287.85938 339.94687 287.40625 339.22812Q286.96875 338.49374 286.34375 338.24374Q285.875 338.07187 284.875 338.07187L283.0625 338.07187L283.0625 344.63437ZM297.0625 342.63437L298.1875 342.93124Q297.82812 344.32187 296.90625 345.05624Q295.98438 345.79062 294.64062 345.79062Q293.25 345.79062 292.375 345.22812Q291.5 344.66562 291.04688 343.60312Q290.59375 342.525 290.59375 341.29062Q290.59375 339.94687 291.10938 338.94687Q291.625 337.94687 292.5625 337.43124Q293.51562 336.91562 294.65625 336.91562Q295.9375 336.91562 296.8125 337.57187Q297.70312 338.22812 298.04688 339.41562L296.92188 339.68124Q296.625 338.74374 296.04688 338.32187Q295.48438 337.88437 294.625 337.88437Q293.64062 337.88437 292.96875 338.36874Q292.3125 338.8375 292.03125 339.63437Q291.76562 340.43124 291.76562 341.29062Q291.76562 342.38437 292.07812 343.19687Q292.40625 344.00937 293.07812 344.41562Q293.75 344.82187 294.54688 344.82187Q295.5 344.82187 296.15625 344.275Q296.82812 343.72812 297.0625 342.63437ZM305.375 345.65L302.04688 337.05624L303.28125 337.05624L305.51562 343.30624Q305.78125 344.05624 305.96875 344.7125Q306.17188 344.00937 306.4375 343.30624L308.75 337.05624L309.90625 337.05624L306.54688 345.65L305.375 345.65ZM309.40625 342.54062Q309.40625 340.80624 310.35938 339.97812Q311.15625 339.29062 312.3125 339.29062Q313.59375 339.29062 314.40625 340.13437Q315.23438 340.9625 315.23438 342.44687Q315.23438 343.65 314.875 344.3375Q314.51562 345.025 313.8125 345.41562Q313.125 345.79062 312.3125 345.79062Q311.01562 345.79062 310.20312 344.9625Q309.40625 344.11874 309.40625 342.54062ZM310.48438 342.54062Q310.48438 343.72812 311.0 344.32187Q311.53125 344.91562 312.3125 344.91562Q313.10938 344.91562 313.625 344.32187Q314.14062 343.72812 314.14062 342.50937Q314.14062 341.35312 313.60938 340.75937Q313.09375 340.16562 312.3125 340.16562Q311.53125 340.16562 311.0 340.75937Q310.48438 341.3375 310.48438 342.54062ZM316.76562 345.65L316.76562 337.05624L317.82812 337.05624L317.82812 345.65L316.76562 345.65ZM322.09375 344.7125L322.25 345.63437Q321.79688 345.72812 321.45312 345.72812Q320.875 345.72812 320.5625 345.55624Q320.25 345.36874 320.10938 345.07187Q319.98438 344.775 319.98438 343.82187L319.98438 340.24374L319.21875 340.24374L319.21875 339.43124L319.98438 339.43124L319.98438 337.88437L321.03125 337.25937L321.03125 339.43124L322.09375 339.43124L322.09375 340.24374L321.03125 340.24374L321.03125 343.88437Q321.03125 344.3375 321.07812 344.4625Q321.14062 344.5875 321.26562 344.66562Q321.39062 344.74374 321.625 344.74374Q321.8125 344.74374 322.09375 344.7125ZM326.85938 344.88437Q326.26562 345.38437 325.71875 345.5875Q325.1875 345.79062 324.5625 345.79062Q323.53125 345.79062 322.98438 345.29062Q322.4375 344.79062 322.4375 344.00937Q322.4375 343.55624 322.64062 343.18124Q322.84375 342.79062 323.1875 342.57187Q323.53125 342.3375 323.95312 342.22812Q324.25 342.13437 324.89062 342.05624Q326.15625 341.91562 326.76562 341.69687Q326.76562 341.47812 326.76562 341.43124Q326.76562 340.775 326.46875 340.50937Q326.0625 340.16562 325.26562 340.16562Q324.53125 340.16562 324.17188 340.43124Q323.8125 340.68124 323.64062 341.3375L322.60938 341.19687Q322.75 340.54062 323.07812 340.13437Q323.40625 339.72812 324.01562 339.50937Q324.625 339.29062 325.42188 339.29062Q326.21875 339.29062 326.71875 339.47812Q327.21875 339.66562 327.45312 339.94687Q327.6875 340.22812 327.78125 340.66562Q327.82812 340.93124 327.82812 341.63437L327.82812 343.04062Q327.82812 344.50937 327.89062 344.9Q327.96875 345.29062 328.17188 345.65L327.0625 345.65Q326.90625 345.32187 326.85938 344.88437ZM326.76562 342.525Q326.1875 342.75937 325.04688 342.93124Q324.39062 343.025 324.125 343.15Q323.85938 343.25937 323.70312 343.47812Q323.5625 343.69687 323.5625 343.97812Q323.5625 344.4 323.875 344.68124Q324.20312 344.9625 324.8125 344.9625Q325.42188 344.9625 325.89062 344.69687Q326.375 344.43124 326.59375 343.9625Q326.76562 343.60312 326.76562 342.91562L326.76562 342.525ZM329.59375 346.16562L330.625 346.32187Q330.6875 346.79062 330.98438 347.00937Q331.375 347.30624 332.04688 347.30624Q332.78125 347.30624 333.17188 347.00937Q333.57812 346.7125 333.71875 346.19687Q333.8125 345.86874 333.79688 344.8375Q333.10938 345.65 332.07812 345.65Q330.79688 345.65 330.09375 344.72812Q329.39062 343.79062 329.39062 342.50937Q329.39062 341.61874 329.70312 340.86874Q330.03125 340.10312 330.64062 339.69687Q331.25 339.29062 332.07812 339.29062Q333.1875 339.29062 333.90625 340.18124L333.90625 339.43124L334.875 339.43124L334.875 344.80624Q334.875 346.25937 334.57812 346.86874Q334.28125 347.47812 333.64062 347.82187Q333.0 348.18124 332.0625 348.18124Q330.95312 348.18124 330.26562 347.68124Q329.57812 347.18124 329.59375 346.16562ZM330.46875 342.43124Q330.46875 343.65 330.95312 344.2125Q331.4375 344.775 332.17188 344.775Q332.90625 344.775 333.39062 344.2125Q333.89062 343.65 333.89062 342.4625Q333.89062 341.32187 333.375 340.74374Q332.875 340.16562 332.15625 340.16562Q331.45312 340.16562 330.95312 340.74374Q330.46875 341.30624 330.46875 342.43124ZM341.04688 343.65L342.14062 343.775Q341.89062 344.72812 341.1875 345.25937Q340.48438 345.79062 339.40625 345.79062Q338.04688 345.79062 337.23438 344.94687Q336.4375 344.10312 336.4375 342.5875Q336.4375 341.025 337.25 340.16562Q338.0625 339.29062 339.34375 339.29062Q340.59375 339.29062 341.375 340.13437Q342.17188 340.97812 342.17188 342.525Q342.17188 342.61874 342.17188 342.80624L337.53125 342.80624Q337.59375 343.8375 338.10938 344.38437Q338.625 344.91562 339.40625 344.91562Q339.98438 344.91562 340.39062 344.61874Q340.8125 344.30624 341.04688 343.65ZM337.59375 341.94687L341.0625 341.94687Q341.0 341.15 340.67188 340.75937Q340.15625 340.15 339.35938 340.15Q338.625 340.15 338.125 340.63437Q337.64062 341.11874 337.59375 341.94687ZM346.8125 348.04062L346.8125 337.05624L349.14062 337.05624L349.14062 337.93124L347.875 337.93124L347.875 347.16562L349.14062 347.16562L349.14062 348.04062L346.8125 348.04062ZM352.375 345.65L349.04688 337.05624L350.28125 337.05624L352.51562 343.30624Q352.78125 344.05624 352.96875 344.7125Q353.17188 344.00937 353.4375 343.30624L355.75 337.05624L356.90625 337.05624L353.54688 345.65L352.375 345.65ZM356.40625 342.54062Q356.40625 340.80624 357.35938 339.97812Q358.15625 339.29062 359.3125 339.29062Q360.59375 339.29062 361.40625 340.13437Q362.23438 340.9625 362.23438 342.44687Q362.23438 343.65 361.875 344.3375Q361.51562 345.025 360.8125 345.41562Q360.125 345.79062 359.3125 345.79062Q358.01562 345.79062 357.20312 344.9625Q356.40625 344.11874 356.40625 342.54062ZM357.48438 342.54062Q357.48438 343.72812 358.0 344.32187Q358.53125 344.91562 359.3125 344.91562Q360.10938 344.91562 360.625 344.32187Q361.14062 343.72812 361.14062 342.50937Q361.14062 341.35312 360.60938 340.75937Q360.09375 340.16562 359.3125 340.16562Q358.53125 340.16562 358.0 340.75937Q357.48438 341.3375 357.48438 342.54062ZM363.76562 345.65L363.76562 337.05624L364.82812 337.05624L364.82812 345.65L363.76562 345.65ZM369.09375 344.7125L369.25 345.63437Q368.79688 345.72812 368.45312 345.72812Q367.875 345.72812 367.5625 345.55624Q367.25 345.36874 367.10938 345.07187Q366.98438 344.775 366.98438 343.82187L366.98438 340.24374L366.21875 340.24374L366.21875 339.43124L366.98438 339.43124L366.98438 337.88437L368.03125 337.25937L368.03125 339.43124L369.09375 339.43124L369.09375 340.24374L368.03125 340.24374L368.03125 343.88437Q368.03125 344.3375 368.07812 344.4625Q368.14062 344.5875 368.26562 344.66562Q368.39062 344.74374 368.625 344.74374Q368.8125 344.74374 369.09375 344.7125ZM369.375 343.79062L370.40625 343.63437Q370.5 344.25937 370.89062 344.5875Q371.29688 344.91562 372.03125 344.91562Q372.75 344.91562 373.09375 344.63437Q373.45312 344.3375 373.45312 343.93124Q373.45312 343.57187 373.14062 343.36874Q372.92188 343.22812 372.0625 343.00937Q370.90625 342.7125 370.45312 342.50937Q370.01562 342.29062 369.78125 341.91562Q369.54688 341.54062 369.54688 341.07187Q369.54688 340.66562 369.73438 340.30624Q369.92188 339.94687 370.25 339.7125Q370.5 339.54062 370.92188 339.41562Q371.34375 339.29062 371.84375 339.29062Q372.5625 339.29062 373.10938 339.50937Q373.67188 339.7125 373.9375 340.07187Q374.20312 340.43124 374.29688 341.025L373.26562 341.16562Q373.20312 340.69687 372.85938 340.43124Q372.53125 340.15 371.90625 340.15Q371.1875 340.15 370.875 340.4Q370.5625 340.63437 370.5625 340.9625Q370.5625 341.16562 370.6875 341.32187Q370.82812 341.49374 371.09375 341.60312Q371.25 341.66562 372.03125 341.86874Q373.15625 342.18124 373.59375 342.36874Q374.03125 342.55624 374.28125 342.91562Q374.53125 343.275 374.53125 343.82187Q374.53125 344.35312 374.21875 344.82187Q373.92188 345.275 373.34375 345.54062Q372.76562 345.79062 372.03125 345.79062Q370.8125 345.79062 370.17188 345.29062Q369.54688 344.775 369.375 343.79062ZM378.5625 348.04062L376.23438 348.04062L376.23438 347.16562L377.5 347.16562L377.5 337.93124L376.23438 337.93124L376.23438 337.05624L378.5625 337.05624L378.5625 348.04062Z" fill-rule="nonzero"/><path fill="#000000" d="M26.33437 278.05417L26.631245 276.92917Q28.02187 277.28854 28.756245 278.21042Q29.49062 279.1323 29.49062 280.47604Q29.49062 281.86667 28.92812 282.74167Q28.36562 283.61667 27.30312 284.0698Q26.224995 284.52292 24.99062 284.52292Q23.64687 284.52292 22.64687 284.0073Q21.64687 283.49167 21.131245 282.55417Q20.61562 281.60104 20.61562 280.46042Q20.61562 279.17917 21.27187 278.30417Q21.92812 277.41354 23.11562 277.0698L23.381245 278.1948Q22.443745 278.49167 22.02187 279.0698Q21.58437 279.6323 21.58437 280.49167Q21.58437 281.47604 22.068745 282.14792Q22.537495 282.80417 23.33437 283.08542Q24.131245 283.35104 24.99062 283.35104Q26.08437 283.35104 26.89687 283.03854Q27.70937 282.71042 28.11562 282.03854Q28.52187 281.36667 28.52187 280.5698Q28.52187 279.61667 27.974995 278.96042Q27.42812 278.28854 26.33437 278.05417ZM29.349995 271.24167L28.42812 271.24167Q29.49062 271.97604 29.49062 273.22604Q29.49062 273.77292 29.287495 274.2573Q29.068745 274.72604 28.756245 274.96042Q28.42812 275.1948 27.95937 275.28854Q27.662495 275.35104 26.974995 275.35104L23.131245 275.35104L23.131245 274.28854L26.58437 274.28854Q27.39687 274.28854 27.693745 274.22604Q28.099995 274.1323 28.349995 273.8198Q28.58437 273.49167 28.58437 273.0073Q28.58437 272.53854 28.349995 272.1323Q28.099995 271.71042 27.67812 271.53854Q27.256245 271.35104 26.45937 271.35104L23.131245 271.35104L23.131245 270.30417L29.349995 270.30417L29.349995 271.24167ZM29.349995 268.33542L23.131245 268.33542L23.131245 267.3823L24.068745 267.3823Q23.412495 267.02292 23.20937 266.72604Q22.99062 266.41354 22.99062 266.03854Q22.99062 265.5073 23.318745 264.96042L24.30312 265.3198Q24.068745 265.71042 24.068745 266.08542Q24.068745 266.4448 24.287495 266.72604Q24.49062 266.99167 24.86562 267.10104Q25.42812 267.28854 26.08437 267.28854L29.349995 267.28854L29.349995 268.33542ZM29.349995 264.33542L23.131245 264.33542L23.131245 263.3823L24.068745 263.3823Q23.412495 263.02292 23.20937 262.72604Q22.99062 262.41354 22.99062 262.03854Q22.99062 261.5073 23.318745 260.96042L24.30312 261.3198Q24.068745 261.71042 24.068745 262.08542Q24.068745 262.4448 24.287495 262.72604Q24.49062 262.99167 24.86562 263.10104Q25.42812 263.28854 26.08437 263.28854L29.349995 263.28854L29.349995 264.33542ZM27.349995 256.0698L27.474995 254.97604Q28.42812 255.22604 28.95937 255.92917Q29.49062 256.6323 29.49062 257.71042Q29.49062 259.0698 28.64687 259.8823Q27.80312 260.67917 26.287495 260.67917Q24.724995 260.67917 23.86562 259.86667Q22.99062 259.05417 22.99062 257.77292Q22.99062 256.52292 23.83437 255.74167Q24.67812 254.9448 26.224995 254.9448Q26.318745 254.9448 26.506245 254.9448L26.506245 259.58542Q27.537495 259.52292 28.08437 259.0073Q28.61562 258.49167 28.61562 257.71042Q28.61562 257.1323 28.318745 256.72604Q28.006245 256.30417 27.349995 256.0698ZM25.64687 259.52292L25.64687 256.05417Q24.849995 256.11667 24.45937 256.4448Q23.849995 256.96042 23.849995 257.7573Q23.849995 258.49167 24.33437 258.99167Q24.818745 259.47604 25.64687 259.52292ZM29.349995 253.3198L23.131245 253.3198L23.131245 252.3823L24.006245 252.3823Q22.99062 251.6948 22.99062 250.39792Q22.99062 249.83542 23.193745 249.36667Q23.39687 248.8823 23.724995 248.64792Q24.05312 248.41354 24.49062 248.3198Q24.787495 248.27292 25.52187 248.27292L29.349995 248.27292L29.349995 249.3198L25.568745 249.3198Q24.912495 249.3198 24.599995 249.4448Q24.287495 249.5698 24.099995 249.8823Q23.89687 250.1948 23.89687 250.61667Q23.89687 251.28854 24.33437 251.78854Q24.756245 252.27292 25.943745 252.27292L29.349995 252.27292L29.349995 253.3198ZM28.412495 244.02292L29.33437 243.86667Q29.42812 244.3198 29.42812 244.66354Q29.42812 245.24167 29.256245 245.55417Q29.068745 245.86667 28.77187 246.0073Q28.474995 246.1323 27.52187 246.1323L23.943745 246.1323L23.943745 246.89792L23.131245 246.89792L23.131245 246.1323L21.58437 246.1323L20.95937 245.08542L23.131245 245.08542L23.131245 244.02292L23.943745 244.02292L23.943745 245.08542L27.58437 245.08542Q28.037495 245.08542 28.162495 245.03854Q28.287495 244.97604 28.36562 244.85104Q28.443745 244.72604 28.443745 244.49167Q28.443745 244.30417 28.412495 244.02292ZM29.349995 239.17917L23.131245 241.08542L23.131245 239.99167L26.724995 239.0073L28.05312 238.6323Q27.95937 238.60104 26.77187 238.30417L23.131245 237.3198L23.131245 236.24167L26.74062 235.30417L27.92812 234.99167L26.724995 234.6323L23.131245 233.5698L23.131245 232.53854L29.349995 234.49167L29.349995 235.58542L25.61562 236.5698L24.568745 236.8198L29.349995 238.0698L29.349995 239.17917ZM21.974995 231.3198L20.756245 231.3198L20.756245 230.2573L21.974995 230.2573L21.974995 231.3198ZM29.349995 231.3198L23.131245 231.3198L23.131245 230.2573L29.349995 230.2573L29.349995 231.3198ZM28.412495 226.02292L29.33437 225.86667Q29.42812 226.3198 29.42812 226.66354Q29.42812 227.24167 29.256245 227.55417Q29.068745 227.86667 28.77187 228.0073Q28.474995 228.1323 27.52187 228.1323L23.943745 228.1323L23.943745 228.89792L23.131245 228.89792L23.131245 228.1323L21.58437 228.1323L20.95937 227.08542L23.131245 227.08542L23.131245 226.02292L23.943745 226.02292L23.943745 227.08542L27.58437 227.08542Q28.037495 227.08542 28.162495 227.03854Q28.287495 226.97604 28.36562 226.85104Q28.443745 226.72604 28.443745 226.49167Q28.443745 226.30417 28.412495 226.02292ZM29.349995 225.3198L20.756245 225.3198L20.756245 224.27292L23.83437 224.27292Q22.99062 223.53854 22.99062 222.41354Q22.99062 221.71042 23.27187 221.21042Q23.537495 220.6948 24.02187 220.47604Q24.49062 220.2573 25.412495 220.2573L29.349995 220.2573L29.349995 221.30417L25.412495 221.30417Q24.61562 221.30417 24.256245 221.64792Q23.89687 221.99167 23.89687 222.61667Q23.89687 223.08542 24.14687 223.5073Q24.381245 223.91354 24.80312 224.10104Q25.20937 224.27292 25.943745 224.27292L29.349995 224.27292L29.349995 225.3198ZM26.24062 215.71042Q24.506245 215.71042 23.67812 214.7573Q22.99062 213.96042 22.99062 212.80417Q22.99062 211.52292 23.83437 210.71042Q24.662495 209.8823 26.14687 209.8823Q27.349995 209.8823 28.037495 210.24167Q28.724995 210.60104 29.11562 211.30417Q29.49062 211.99167 29.49062 212.80417Q29.49062 214.10104 28.662495 214.91354Q27.818745 215.71042 26.24062 215.71042ZM26.24062 214.6323Q27.42812 214.6323 28.02187 214.11667Q28.61562 213.58542 28.61562 212.80417Q28.61562 212.0073 28.02187 211.49167Q27.42812 210.97604 26.20937 210.97604Q25.05312 210.97604 24.45937 211.5073Q23.86562 212.02292 23.86562 212.80417Q23.86562 213.58542 24.45937 214.11667Q25.037495 214.6323 26.24062 214.6323ZM29.349995 208.33542L23.131245 208.33542L23.131245 207.3823L24.068745 207.3823Q23.412495 207.02292 23.20937 206.72604Q22.99062 206.41354 22.99062 206.03854Q22.99062 205.5073 23.318745 204.96042L24.30312 205.3198Q24.068745 205.71042 24.068745 206.08542Q24.068745 206.4448 24.287495 206.72604Q24.49062 206.99167 24.86562 207.10104Q25.42812 207.28854 26.08437 207.28854L29.349995 207.28854L29.349995 208.33542ZM29.349995 200.28854L28.568745 200.28854Q29.49062 200.8823 29.49062 202.02292Q29.49062 202.77292 29.08437 203.39792Q28.662495 204.02292 27.92812 204.36667Q27.193745 204.71042 26.24062 204.71042Q25.318745 204.71042 24.55312 204.39792Q23.787495 204.08542 23.39687 203.46042Q22.99062 202.83542 22.99062 202.0698Q22.99062 201.5073 23.224995 201.0698Q23.45937 200.6323 23.83437 200.35104L20.756245 200.35104L20.756245 199.30417L29.349995 199.30417L29.349995 200.28854ZM26.24062 203.61667Q27.443745 203.61667 28.037495 203.11667Q28.61562 202.61667 28.61562 201.92917Q28.61562 201.24167 28.05312 200.7573Q27.49062 200.27292 26.33437 200.27292Q25.05312 200.27292 24.45937 200.77292Q23.86562 201.2573 23.86562 201.97604Q23.86562 202.67917 24.443745 203.14792Q25.006245 203.61667 26.24062 203.61667ZM21.974995 197.3198L20.756245 197.3198L20.756245 196.2573L21.974995 196.2573L21.974995 197.3198ZM29.349995 197.3198L23.131245 197.3198L23.131245 196.2573L29.349995 196.2573L29.349995 197.3198ZM29.349995 194.3198L23.131245 194.3198L23.131245 193.3823L24.006245 193.3823Q22.99062 192.6948 22.99062 191.39792Q22.99062 190.83542 23.193745 190.36667Q23.39687 189.8823 23.724995 189.64792Q24.05312 189.41354 24.49062 189.3198Q24.787495 189.27292 25.52187 189.27292L29.349995 189.27292L29.349995 190.3198L25.568745 190.3198Q24.912495 190.3198 24.599995 190.4448Q24.287495 190.5698 24.099995 190.8823Q23.89687 191.1948 23.89687 191.61667Q23.89687 192.28854 24.33437 192.78854Q24.756245 193.27292 25.943745 193.27292L29.349995 193.27292L29.349995 194.3198ZM28.58437 183.2573Q29.08437 183.85104 29.287495 184.39792Q29.49062 184.92917 29.49062 185.55417Q29.49062 186.58542 28.99062 187.1323Q28.49062 187.67917 27.70937 187.67917Q27.256245 187.67917 26.881245 187.47604Q26.49062 187.27292 26.27187 186.92917Q26.037495 186.58542 25.92812 186.16354Q25.83437 185.86667 25.756245 185.22604Q25.61562 183.96042 25.39687 183.35104Q25.17812 183.35104 25.131245 183.35104Q24.474995 183.35104 24.20937 183.64792Q23.86562 184.05417 23.86562 184.85104Q23.86562 185.58542 24.131245 185.9448Q24.381245 186.30417 25.037495 186.47604L24.89687 187.5073Q24.24062 187.36667 23.83437 187.03854Q23.42812 186.71042 23.20937 186.10104Q22.99062 185.49167 22.99062 184.6948Q22.99062 183.89792 23.17812 183.39792Q23.36562 182.89792 23.64687 182.66354Q23.92812 182.42917 24.36562 182.33542Q24.631245 182.28854 25.33437 182.28854L26.74062 182.28854Q28.20937 182.28854 28.599995 182.22604Q28.99062 182.14792 29.349995 181.9448L29.349995 183.05417Q29.02187 183.21042 28.58437 183.2573ZM26.224995 183.35104Q26.45937 183.92917 26.631245 185.0698Q26.724995 185.72604 26.849995 185.99167Q26.95937 186.2573 27.17812 186.41354Q27.39687 186.55417 27.67812 186.55417Q28.099995 186.55417 28.381245 186.24167Q28.662495 185.91354 28.662495 185.30417Q28.662495 184.6948 28.39687 184.22604Q28.131245 183.74167 27.662495 183.52292Q27.30312 183.35104 26.61562 183.35104L26.224995 183.35104ZM29.349995 180.33542L23.131245 180.33542L23.131245 179.3823L24.068745 179.3823Q23.412495 179.02292 23.20937 178.72604Q22.99062 178.41354 22.99062 178.03854Q22.99062 177.5073 23.318745 176.96042L24.30312 177.3198Q24.068745 177.71042 24.068745 178.08542Q24.068745 178.4448 24.287495 178.72604Q24.49062 178.99167 24.86562 179.10104Q25.42812 179.28854 26.08437 179.28854L29.349995 179.28854L29.349995 180.33542ZM31.74062 176.36667L30.756245 176.49167Q30.849995 176.14792 30.849995 175.8823Q30.849995 175.53854 30.724995 175.33542Q30.61562 175.11667 30.412495 174.97604Q30.24062 174.8823 29.61562 174.64792Q29.537495 174.6323 29.36562 174.55417L23.131245 176.92917L23.131245 175.78854L26.724995 174.49167Q27.412495 174.24167 28.17812 174.03854Q27.443745 173.85104 26.756245 173.60104L23.131245 172.27292L23.131245 171.22604L29.45937 173.58542Q30.474995 173.97604 30.86562 174.17917Q31.39687 174.46042 31.631245 174.83542Q31.881245 175.1948 31.881245 175.6948Q31.881245 175.99167 31.74062 176.36667ZM29.349995 168.33542L23.131245 168.33542L23.131245 167.3823L24.068745 167.3823Q23.412495 167.02292 23.20937 166.72604Q22.99062 166.41354 22.99062 166.03854Q22.99062 165.5073 23.318745 164.96042L24.30312 165.3198Q24.068745 165.71042 24.068745 166.08542Q24.068745 166.4448 24.287495 166.72604Q24.49062 166.99167 24.86562 167.10104Q25.42812 167.28854 26.08437 167.28854L29.349995 167.28854L29.349995 168.33542ZM27.349995 160.0698L27.474995 158.97604Q28.42812 159.22604 28.95937 159.92917Q29.49062 160.6323 29.49062 161.71042Q29.49062 163.0698 28.64687 163.8823Q27.80312 164.67917 26.287495 164.67917Q24.724995 164.67917 23.86562 163.86667Q22.99062 163.05417 22.99062 161.77292Q22.99062 160.52292 23.83437 159.74167Q24.67812 158.9448 26.224995 158.9448Q26.318745 158.9448 26.506245 158.9448L26.506245 163.58542Q27.537495 163.52292 28.08437 163.0073Q28.61562 162.49167 28.61562 161.71042Q28.61562 161.1323 28.318745 160.72604Q28.006245 160.30417 27.349995 160.0698ZM25.64687 163.52292L25.64687 160.05417Q24.849995 160.11667 24.45937 160.4448Q23.849995 160.96042 23.849995 161.7573Q23.849995 162.49167 24.33437 162.99167Q24.818745 163.47604 25.64687 163.52292ZM27.49062 157.74167L27.33437 156.71042Q27.95937 156.61667 28.287495 156.22604Q28.61562 155.8198 28.61562 155.08542Q28.61562 154.36667 28.33437 154.02292Q28.037495 153.66354 27.631245 153.66354Q27.27187 153.66354 27.068745 153.97604Q26.92812 154.1948 26.70937 155.05417Q26.412495 156.21042 26.20937 156.66354Q25.99062 157.10104 25.61562 157.33542Q25.24062 157.5698 24.77187 157.5698Q24.36562 157.5698 24.006245 157.3823Q23.64687 157.1948 23.412495 156.86667Q23.24062 156.61667 23.11562 156.1948Q22.99062 155.77292 22.99062 155.27292Q22.99062 154.55417 23.20937 154.0073Q23.412495 153.4448 23.77187 153.17917Q24.131245 152.91354 24.724995 152.8198L24.86562 153.85104Q24.39687 153.91354 24.131245 154.2573Q23.849995 154.58542 23.849995 155.21042Q23.849995 155.92917 24.099995 156.24167Q24.33437 156.55417 24.662495 156.55417Q24.86562 156.55417 25.02187 156.42917Q25.193745 156.28854 25.30312 156.02292Q25.36562 155.86667 25.568745 155.08542Q25.881245 153.96042 26.068745 153.52292Q26.256245 153.08542 26.61562 152.83542Q26.974995 152.58542 27.52187 152.58542Q28.05312 152.58542 28.52187 152.89792Q28.974995 153.1948 29.24062 153.77292Q29.49062 154.35104 29.49062 155.08542Q29.49062 156.30417 28.99062 156.9448Q28.474995 157.5698 27.49062 157.74167ZM21.974995 150.3198L20.756245 150.3198L20.756245 149.2573L21.974995 149.2573L21.974995 150.3198ZM29.349995 150.3198L23.131245 150.3198L23.131245 149.2573L29.349995 149.2573L29.349995 150.3198ZM27.49062 147.74167L27.33437 146.71042Q27.95937 146.61667 28.287495 146.22604Q28.61562 145.8198 28.61562 145.08542Q28.61562 144.36667 28.33437 144.02292Q28.037495 143.66354 27.631245 143.66354Q27.27187 143.66354 27.068745 143.97604Q26.92812 144.1948 26.70937 145.05417Q26.412495 146.21042 26.20937 146.66354Q25.99062 147.10104 25.61562 147.33542Q25.24062 147.5698 24.77187 147.5698Q24.36562 147.5698 24.006245 147.3823Q23.64687 147.1948 23.412495 146.86667Q23.24062 146.61667 23.11562 146.1948Q22.99062 145.77292 22.99062 145.27292Q22.99062 144.55417 23.20937 144.0073Q23.412495 143.4448 23.77187 143.17917Q24.131245 142.91354 24.724995 142.8198L24.86562 143.85104Q24.39687 143.91354 24.131245 144.2573Q23.849995 144.58542 23.849995 145.21042Q23.849995 145.92917 24.099995 146.24167Q24.33437 146.55417 24.662495 146.55417Q24.86562 146.55417 25.02187 146.42917Q25.193745 146.28854 25.30312 146.02292Q25.36562 145.86667 25.568745 145.08542Q25.881245 143.96042 26.068745 143.52292Q26.256245 143.08542 26.61562 142.83542Q26.974995 142.58542 27.52187 142.58542Q28.05312 142.58542 28.52187 142.89792Q28.974995 143.1948 29.24062 143.77292Q29.49062 144.35104 29.49062 145.08542Q29.49062 146.30417 28.99062 146.9448Q28.474995 147.5698 27.49062 147.74167ZM28.412495 138.02292L29.33437 137.86667Q29.42812 138.3198 29.42812 138.66354Q29.42812 139.24167 29.256245 139.55417Q29.068745 139.86667 28.77187 140.0073Q28.474995 140.1323 27.52187 140.1323L23.943745 140.1323L23.943745 140.89792L23.131245 140.89792L23.131245 140.1323L21.58437 140.1323L20.95937 139.08542L23.131245 139.08542L23.131245 138.02292L23.943745 138.02292L23.943745 139.08542L27.58437 139.08542Q28.037495 139.08542 28.162495 139.03854Q28.287495 138.97604 28.36562 138.85104Q28.443745 138.72604 28.443745 138.49167Q28.443745 138.30417 28.412495 138.02292ZM26.24062 137.71042Q24.506245 137.71042 23.67812 136.7573Q22.99062 135.96042 22.99062 134.80417Q22.99062 133.52292 23.83437 132.71042Q24.662495 131.8823 26.14687 131.8823Q27.349995 131.8823 28.037495 132.24167Q28.724995 132.60104 29.11562 133.30417Q29.49062 133.99167 29.49062 134.80417Q29.49062 136.10104 28.662495 136.91354Q27.818745 137.71042 26.24062 137.71042ZM26.24062 136.6323Q27.42812 136.6323 28.02187 136.11667Q28.61562 135.58542 28.61562 134.80417Q28.61562 134.0073 28.02187 133.49167Q27.42812 132.97604 26.20937 132.97604Q25.05312 132.97604 24.45937 133.5073Q23.86562 134.02292 23.86562 134.80417Q23.86562 135.58542 24.45937 136.11667Q25.037495 136.6323 26.24062 136.6323ZM29.349995 130.33542L23.131245 130.33542L23.131245 129.3823L24.068745 129.3823Q23.412495 129.02292 23.20937 128.72604Q22.99062 128.41354 22.99062 128.03854Q22.99062 127.50729 23.318745 126.96042L24.30312 127.31979Q24.068745 127.71042 24.068745 128.08542Q24.068745 128.4448 24.287495 128.72604Q24.49062 128.99167 24.86562 129.10104Q25.42812 129.28854 26.08437 129.28854L29.349995 129.28854L29.349995 130.33542ZM31.74062 123.30417L20.756245 123.30417L20.756245 120.97604L21.631245 120.97604L21.631245 122.24167L30.86562 122.24167L30.86562 120.97604L31.74062 120.97604L31.74062 123.30417ZM29.349995 121.13229L20.756245 117.83542L20.756245 116.61667L29.349995 113.10104L29.349995 114.38229L26.74062 115.39792L26.74062 118.97604L29.349995 119.92917L29.349995 121.13229ZM25.818745 118.64792L25.818745 115.74167L23.443745 116.63229Q22.36562 117.05417 21.662495 117.24167Q22.49062 117.41354 23.30312 117.71042L25.818745 118.64792ZM29.349995 113.31979L23.131245 113.31979L23.131245 112.38229L24.006245 112.38229Q23.537495 112.08542 23.27187 111.60104Q22.99062 111.11667 22.99062 110.49167Q22.99062 109.80417 23.27187 109.36667Q23.55312 108.91354 24.068745 108.74167Q22.99062 107.99167 22.99062 106.81979Q22.99062 105.88229 23.506245 105.39792Q24.006245 104.89792 25.08437 104.89792L29.349995 104.89792L29.349995 105.94479L25.42812 105.94479Q24.80312 105.94479 24.52187 106.05417Q24.24062 106.14792 24.068745 106.41354Q23.89687 106.67917 23.89687 107.05417Q23.89687 107.71042 24.33437 108.14792Q24.77187 108.56979 25.74062 108.56979L29.349995 108.56979L29.349995 109.63229L25.30312 109.63229Q24.599995 109.63229 24.256245 109.89792Q23.89687 110.14792 23.89687 110.72604Q23.89687 111.17917 24.131245 111.55417Q24.36562 111.92917 24.818745 112.10104Q25.27187 112.27292 26.11562 112.27292L29.349995 112.27292L29.349995 113.31979ZM31.74062 102.31979L23.131245 102.31979L23.131245 101.36667L23.92812 101.36667Q23.45937 101.02292 23.224995 100.60104Q22.99062 100.16354 22.99062 99.55417Q22.99062 98.75729 23.39687 98.14792Q23.80312 97.53854 24.55312 97.24167Q25.30312 96.92917 26.193745 96.92917Q27.14687 96.92917 27.912495 97.27292Q28.67812 97.60104 29.08437 98.25729Q29.49062 98.91354 29.49062 99.63229Q29.49062 100.16354 29.27187 100.58542Q29.037495 101.00729 28.70937 101.27292L31.74062 101.27292L31.74062 102.31979ZM26.27187 101.36667Q27.474995 101.36667 28.05312 100.88229Q28.61562 100.39792 28.61562 99.71042Q28.61562 99.00729 28.02187 98.50729Q27.42812 98.00729 26.17812 98.00729Q24.99062 98.00729 24.412495 98.49167Q23.818745 98.97604 23.818745 99.66354Q23.818745 100.33542 24.443745 100.85104Q25.068745 101.36667 26.27187 101.36667ZM27.49062 95.74167L27.33437 94.71042Q27.95937 94.61667 28.287495 94.22604Q28.61562 93.81979 28.61562 93.08542Q28.61562 92.36667 28.33437 92.02292Q28.037495 91.66354 27.631245 91.66354Q27.27187 91.66354 27.068745 91.97604Q26.92812 92.19479 26.70937 93.05417Q26.412495 94.21042 26.20937 94.66354Q25.99062 95.10104 25.61562 95.33542Q25.24062 95.56979 24.77187 95.56979Q24.36562 95.56979 24.006245 95.38229Q23.64687 95.19479 23.412495 94.86667Q23.24062 94.61667 23.11562 94.19479Q22.99062 93.77292 22.99062 93.27292Q22.99062 92.55417 23.20937 92.00729Q23.412495 91.44479 23.77187 91.17917Q24.131245 90.91354 24.724995 90.81979L24.86562 91.85104Q24.39687 91.91354 24.131245 92.25729Q23.849995 92.58542 23.849995 93.21042Q23.849995 93.92917 24.099995 94.24167Q24.33437 94.55417 24.662495 94.55417Q24.86562 94.55417 25.02187 94.42917Q25.193745 94.28854 25.30312 94.02292Q25.36562 93.86667 25.568745 93.08542Q25.881245 91.96042 26.068745 91.52292Q26.256245 91.08542 26.61562 90.83542Q26.974995 90.58542 27.52187 90.58542Q28.05312 90.58542 28.52187 90.89792Q28.974995 91.19479 29.24062 91.77292Q29.49062 92.35104 29.49062 93.08542Q29.49062 94.30417 28.99062 94.94479Q28.474995 95.56979 27.49062 95.74167ZM31.74062 86.55417L31.74062 88.88229L30.86562 88.88229L30.86562 87.61667L21.631245 87.61667L21.631245 88.88229L20.756245 88.88229L20.756245 86.55417L31.74062 86.55417Z" fill-rule="nonzero"/><path fill="#000000" d="M50.85 296.41562Q50.85 294.88437 51.1625 293.9625Q51.475 293.025 52.084373 292.525Q52.709373 292.025 53.646873 292.025Q54.334373 292.025 54.85 292.30624Q55.38125 292.5875 55.725 293.11874Q56.06875 293.63437 56.25625 294.38437Q56.44375 295.13437 56.44375 296.41562Q56.44375 297.93124 56.13125 298.85312Q55.834373 299.775 55.209373 300.29062Q54.6 300.79062 53.646873 300.79062Q52.4125 300.79062 51.69375 299.9Q50.85 298.8375 50.85 296.41562ZM51.928123 296.41562Q51.928123 298.525 52.428123 299.22812Q52.928123 299.93124 53.646873 299.93124Q54.38125 299.93124 54.865623 299.22812Q55.365623 298.525 55.365623 296.41562Q55.365623 294.29062 54.865623 293.60312Q54.38125 292.9 53.63125 292.9Q52.9125 292.9 52.475 293.50937Q51.928123 294.29062 51.928123 296.41562ZM58.44375 300.65L58.44375 299.44687L59.646873 299.44687L59.646873 300.65L58.44375 300.65ZM60.85 296.41562Q60.85 294.88437 61.1625 293.9625Q61.475 293.025 62.084373 292.525Q62.709373 292.025 63.646873 292.025Q64.33437 292.025 64.85 292.30624Q65.38125 292.5875 65.725 293.11874Q66.06875 293.63437 66.25625 294.38437Q66.44375 295.13437 66.44375 296.41562Q66.44375 297.93124 66.13125 298.85312Q65.83437 299.775 65.20937 300.29062Q64.6 300.79062 63.646873 300.79062Q62.4125 300.79062 61.69375 299.9Q60.85 298.8375 60.85 296.41562ZM61.928123 296.41562Q61.928123 298.525 62.428123 299.22812Q62.928123 299.93124 63.646873 299.93124Q64.38125 299.93124 64.86562 299.22812Q65.36562 298.525 65.36562 296.41562Q65.36562 294.29062 64.86562 293.60312Q64.38125 292.9 63.63125 292.9Q62.9125 292.9 62.475 293.50937Q61.928123 294.29062 61.928123 296.41562ZM67.85 296.41562Q67.85 294.88437 68.1625 293.9625Q68.475 293.025 69.08437 292.525Q69.70937 292.025 70.64687 292.025Q71.33437 292.025 71.85 292.30624Q72.38125 292.5875 72.725 293.11874Q73.06875 293.63437 73.25625 294.38437Q73.44375 295.13437 73.44375 296.41562Q73.44375 297.93124 73.13125 298.85312Q72.83437 299.775 72.20937 300.29062Q71.6 300.79062 70.64687 300.79062Q69.4125 300.79062 68.69375 299.9Q67.85 298.8375 67.85 296.41562ZM68.92812 296.41562Q68.92812 298.525 69.42812 299.22812Q69.92812 299.93124 70.64687 299.93124Q71.38125 299.93124 71.86562 299.22812Q72.36562 298.525 72.36562 296.41562Q72.36562 294.29062 71.86562 293.60312Q71.38125 292.9 70.63125 292.9Q69.9125 292.9 69.475 293.50937Q68.92812 294.29062 68.92812 296.41562ZM74.85 296.41562Q74.85 294.88437 75.1625 293.9625Q75.475 293.025 76.08437 292.525Q76.70937 292.025 77.64687 292.025Q78.33437 292.025 78.85 292.30624Q79.38125 292.5875 79.725 293.11874Q80.06875 293.63437 80.25625 294.38437Q80.44375 295.13437 80.44375 296.41562Q80.44375 297.93124 80.13125 298.85312Q79.83437 299.775 79.20937 300.29062Q78.6 300.79062 77.64687 300.79062Q76.4125 300.79062 75.69375 299.9Q74.85 298.8375 74.85 296.41562ZM75.92812 296.41562Q75.92812 298.525 76.42812 299.22812Q76.92812 299.93124 77.64687 299.93124Q78.38125 299.93124 78.86562 299.22812Q79.36562 298.525 79.36562 296.41562Q79.36562 294.29062 78.86562 293.60312Q78.38125 292.9 77.63125 292.9Q76.9125 292.9 76.475 293.50937Q75.92812 294.29062 75.92812 296.41562Z" fill-rule="nonzero"/><path fill="#000000" d="M50.85 249.4023Q50.85 247.87105 51.1625 246.94917Q51.475 246.01167 52.084373 245.51167Q52.709373 245.01167 53.646873 245.01167Q54.334373 245.01167 54.85 245.29292Q55.38125 245.57417 55.725 246.10542Q56.06875 246.62105 56.25625 247.37105Q56.44375 248.12105 56.44375 249.4023Q56.44375 250.91792 56.13125 251.8398Q55.834373 252.76167 55.209373 253.2773Q54.6 253.7773 53.646873 253.7773Q52.4125 253.7773 51.69375 252.88667Q50.85 251.82417 50.85 249.4023ZM51.928123 249.4023Q51.928123 251.51167 52.428123 252.2148Q52.928123 252.91792 53.646873 252.91792Q54.38125 252.91792 54.865623 252.2148Q55.365623 251.51167 55.365623 249.4023Q55.365623 247.2773 54.865623 246.5898Q54.38125 245.88667 53.63125 245.88667Q52.9125 245.88667 52.475 246.49605Q51.928123 247.2773 51.928123 249.4023ZM58.44375 253.63667L58.44375 252.43355L59.646873 252.43355L59.646873 253.63667L58.44375 253.63667ZM60.85 249.4023Q60.85 247.87105 61.1625 246.94917Q61.475 246.01167 62.084373 245.51167Q62.709373 245.01167 63.646873 245.01167Q64.33437 245.01167 64.85 245.29292Q65.38125 245.57417 65.725 246.10542Q66.06875 246.62105 66.25625 247.37105Q66.44375 248.12105 66.44375 249.4023Q66.44375 250.91792 66.13125 251.8398Q65.83437 252.76167 65.20937 253.2773Q64.6 253.7773 63.646873 253.7773Q62.4125 253.7773 61.69375 252.88667Q60.85 251.82417 60.85 249.4023ZM61.928123 249.4023Q61.928123 251.51167 62.428123 252.2148Q62.928123 252.91792 63.646873 252.91792Q64.38125 252.91792 64.86562 252.2148Q65.36562 251.51167 65.36562 249.4023Q65.36562 247.2773 64.86562 246.5898Q64.38125 245.88667 63.63125 245.88667Q62.9125 245.88667 62.475 246.49605Q61.928123 247.2773 61.928123 249.4023ZM67.85 249.4023Q67.85 247.87105 68.1625 246.94917Q68.475 246.01167 69.08437 245.51167Q69.70937 245.01167 70.64687 245.01167Q71.33437 245.01167 71.85 245.29292Q72.38125 245.57417 72.725 246.10542Q73.06875 246.62105 73.25625 247.37105Q73.44375 248.12105 73.44375 249.4023Q73.44375 250.91792 73.13125 251.8398Q72.83437 252.76167 72.20937 253.2773Q71.6 253.7773 70.64687 253.7773Q69.4125 253.7773 68.69375 252.88667Q67.85 251.82417 67.85 249.4023ZM68.92812 249.4023Q68.92812 251.51167 69.42812 252.2148Q69.92812 252.91792 70.64687 252.91792Q71.38125 252.91792 71.86562 252.2148Q72.36562 251.51167 72.36562 249.4023Q72.36562 247.2773 71.86562 246.5898Q71.38125 245.88667 70.63125 245.88667Q69.9125 245.88667 69.475 246.49605Q68.92812 247.2773 68.92812 249.4023ZM78.81875 253.63667L77.77187 253.63667L77.77187 246.91792Q77.38125 247.2773 76.75625 247.6523Q76.14687 248.01167 75.6625 248.18355L75.6625 247.16792Q76.5375 246.74605 77.19375 246.16792Q77.86562 245.57417 78.14687 245.01167L78.81875 245.01167L78.81875 253.63667Z" fill-rule="nonzero"/><path fill="#000000" d="M50.85 202.38896Q50.85 200.85771 51.1625 199.93584Q51.475 198.99834 52.084373 198.49834Q52.709373 197.99834 53.646873 197.99834Q54.334373 197.99834 54.85 198.27959Q55.38125 198.56084 55.725 199.09209Q56.06875 199.60771 56.25625 200.35771Q56.44375 201.10771 56.44375 202.38896Q56.44375 203.90459 56.13125 204.82646Q55.834373 205.74834 55.209373 206.26396Q54.6 206.76396 53.646873 206.76396Q52.4125 206.76396 51.69375 205.87334Q50.85 204.81084 50.85 202.38896ZM51.928123 202.38896Q51.928123 204.49834 52.428123 205.20146Q52.928123 205.90459 53.646873 205.90459Q54.38125 205.90459 54.865623 205.20146Q55.365623 204.49834 55.365623 202.38896Q55.365623 200.26396 54.865623 199.57646Q54.38125 198.87334 53.63125 198.87334Q52.9125 198.87334 52.475 199.48271Q51.928123 200.26396 51.928123 202.38896ZM58.44375 206.62334L58.44375 205.42021L59.646873 205.42021L59.646873 206.62334L58.44375 206.62334ZM60.85 202.38896Q60.85 200.85771 61.1625 199.93584Q61.475 198.99834 62.084373 198.49834Q62.709373 197.99834 63.646873 197.99834Q64.33437 197.99834 64.85 198.27959Q65.38125 198.56084 65.725 199.09209Q66.06875 199.60771 66.25625 200.35771Q66.44375 201.10771 66.44375 202.38896Q66.44375 203.90459 66.13125 204.82646Q65.83437 205.74834 65.20937 206.26396Q64.6 206.76396 63.646873 206.76396Q62.4125 206.76396 61.69375 205.87334Q60.85 204.81084 60.85 202.38896ZM61.928123 202.38896Q61.928123 204.49834 62.428123 205.20146Q62.928123 205.90459 63.646873 205.90459Q64.38125 205.90459 64.86562 205.20146Q65.36562 204.49834 65.36562 202.38896Q65.36562 200.26396 64.86562 199.57646Q64.38125 198.87334 63.63125 198.87334Q62.9125 198.87334 62.475 199.48271Q61.928123 200.26396 61.928123 202.38896ZM67.85 202.38896Q67.85 200.85771 68.1625 199.93584Q68.475 198.99834 69.08437 198.49834Q69.70937 197.99834 70.64687 197.99834Q71.33437 197.99834 71.85 198.27959Q72.38125 198.56084 72.725 199.09209Q73.06875 199.60771 73.25625 200.35771Q73.44375 201.10771 73.44375 202.38896Q73.44375 203.90459 73.13125 204.82646Q72.83437 205.74834 72.20937 206.26396Q71.6 206.76396 70.64687 206.76396Q69.4125 206.76396 68.69375 205.87334Q67.85 204.81084 67.85 202.38896ZM68.92812 202.38896Q68.92812 204.49834 69.42812 205.20146Q69.92812 205.90459 70.64687 205.90459Q71.38125 205.90459 71.86562 205.20146Q72.36562 204.49834 72.36562 202.38896Q72.36562 200.26396 71.86562 199.57646Q71.38125 198.87334 70.63125 198.87334Q69.9125 198.87334 69.475 199.48271Q68.92812 200.26396 68.92812 202.38896ZM80.39687 205.60771L80.39687 206.62334L74.70937 206.62334Q74.70937 206.24834 74.83437 205.88896Q75.05312 205.31084 75.52187 204.74834Q76.00625 204.18584 76.9125 203.45146Q78.31875 202.29521 78.80312 201.62334Q79.30312 200.95146 79.30312 200.35771Q79.30312 199.73271 78.85 199.31084Q78.39687 198.87334 77.67812 198.87334Q76.9125 198.87334 76.45937 199.32646Q76.00625 199.77959 75.99062 200.59209L74.9125 200.48271Q75.02187 199.26396 75.74062 198.63896Q76.475 197.99834 77.70937 197.99834Q78.94375 197.99834 79.6625 198.68584Q80.38125 199.37334 80.38125 200.38896Q80.38125 200.90459 80.1625 201.40459Q79.95937 201.88896 79.45937 202.45146Q78.975 202.99834 77.85 203.95146Q76.89687 204.74834 76.61562 205.04521Q76.35 205.32646 76.17812 205.60771L80.39687 205.60771Z" fill-rule="nonzero"/><path fill="#000000" d="M50.85 155.37563Q50.85 153.84438 51.1625 152.9225Q51.475 151.985 52.084373 151.485Q52.709373 150.985 53.646873 150.985Q54.334373 150.985 54.85 151.26625Q55.38125 151.5475 55.725 152.07875Q56.06875 152.59438 56.25625 153.34438Q56.44375 154.09438 56.44375 155.37563Q56.44375 156.89125 56.13125 157.81313Q55.834373 158.735 55.209373 159.25063Q54.6 159.75063 53.646873 159.75063Q52.4125 159.75063 51.69375 158.86Q50.85 157.7975 50.85 155.37563ZM51.928123 155.37563Q51.928123 157.485 52.428123 158.18813Q52.928123 158.89125 53.646873 158.89125Q54.38125 158.89125 54.865623 158.18813Q55.365623 157.485 55.365623 155.37563Q55.365623 153.25063 54.865623 152.56313Q54.38125 151.86 53.63125 151.86Q52.9125 151.86 52.475 152.46938Q51.928123 153.25063 51.928123 155.37563ZM58.44375 159.61L58.44375 158.40688L59.646873 158.40688L59.646873 159.61L58.44375 159.61ZM60.85 155.37563Q60.85 153.84438 61.1625 152.9225Q61.475 151.985 62.084373 151.485Q62.709373 150.985 63.646873 150.985Q64.33437 150.985 64.85 151.26625Q65.38125 151.5475 65.725 152.07875Q66.06875 152.59438 66.25625 153.34438Q66.44375 154.09438 66.44375 155.37563Q66.44375 156.89125 66.13125 157.81313Q65.83437 158.735 65.20937 159.25063Q64.6 159.75063 63.646873 159.75063Q62.4125 159.75063 61.69375 158.86Q60.85 157.7975 60.85 155.37563ZM61.928123 155.37563Q61.928123 157.485 62.428123 158.18813Q62.928123 158.89125 63.646873 158.89125Q64.38125 158.89125 64.86562 158.18813Q65.36562 157.485 65.36562 155.37563Q65.36562 153.25063 64.86562 152.56313Q64.38125 151.86 63.63125 151.86Q62.9125 151.86 62.475 152.46938Q61.928123 153.25063 61.928123 155.37563ZM67.85 155.37563Q67.85 153.84438 68.1625 152.9225Q68.475 151.985 69.08437 151.485Q69.70937 150.985 70.64687 150.985Q71.33437 150.985 71.85 151.26625Q72.38125 151.5475 72.725 152.07875Q73.06875 152.59438 73.25625 153.34438Q73.44375 154.09438 73.44375 155.37563Q73.44375 156.89125 73.13125 157.81313Q72.83437 158.735 72.20937 159.25063Q71.6 159.75063 70.64687 159.75063Q69.4125 159.75063 68.69375 158.86Q67.85 157.7975 67.85 155.37563ZM68.92812 155.37563Q68.92812 157.485 69.42812 158.18813Q69.92812 158.89125 70.64687 158.89125Q71.38125 158.89125 71.86562 158.18813Q72.36562 157.485 72.36562 155.37563Q72.36562 153.25063 71.86562 152.56313Q71.38125 151.86 70.63125 151.86Q69.9125 151.86 69.475 152.46938Q68.92812 153.25063 68.92812 155.37563ZM74.85 157.34438L75.9125 157.20375Q76.08437 158.09438 76.52187 158.50063Q76.95937 158.89125 77.58437 158.89125Q78.33437 158.89125 78.85 158.37563Q79.36562 157.86 79.36562 157.09438Q79.36562 156.37563 78.88125 155.90688Q78.4125 155.4225 77.67812 155.4225Q77.38125 155.4225 76.92812 155.5475L77.05312 154.61Q77.1625 154.62563 77.225 154.62563Q77.89687 154.62563 78.42812 154.28188Q78.975 153.9225 78.975 153.18813Q78.975 152.61 78.58437 152.235Q78.19375 151.84438 77.56875 151.84438Q76.95937 151.84438 76.5375 152.235Q76.13125 152.62563 76.02187 153.39125L74.95937 153.20375Q75.14687 152.15688 75.83437 151.57875Q76.52187 150.985 77.5375 150.985Q78.24062 150.985 78.83437 151.2975Q79.42812 151.59438 79.74062 152.11Q80.05312 152.62563 80.05312 153.21938Q80.05312 153.76625 79.75625 154.235Q79.45937 154.68813 78.88125 154.95375Q79.63125 155.12563 80.05312 155.68813Q80.475 156.235 80.475 157.07875Q80.475 158.20375 79.64687 158.985Q78.83437 159.76625 77.58437 159.76625Q76.45937 159.76625 75.70937 159.09438Q74.95937 158.40688 74.85 157.34438Z" fill-rule="nonzero"/><path fill="#000000" d="M50.85 108.36229Q50.85 106.83104 51.1625 105.909164Q51.475 104.971664 52.084373 104.471664Q52.709373 103.971664 53.646873 103.971664Q54.334373 103.971664 54.85 104.252914Q55.38125 104.534164 55.725 105.065414Q56.06875 105.58104 56.25625 106.33104Q56.44375 107.08104 56.44375 108.36229Q56.44375 109.877914 56.13125 110.79979Q55.834373 111.721664 55.209373 112.23729Q54.6 112.73729 53.646873 112.73729Q52.4125 112.73729 51.69375 111.846664Q50.85 110.784164 50.85 108.36229ZM51.928123 108.36229Q51.928123 110.471664 52.428123 111.17479Q52.928123 111.877914 53.646873 111.877914Q54.38125 111.877914 54.865623 111.17479Q55.365623 110.471664 55.365623 108.36229Q55.365623 106.23729 54.865623 105.54979Q54.38125 104.846664 53.63125 104.846664Q52.9125 104.846664 52.475 105.45604Q51.928123 106.23729 51.928123 108.36229ZM58.44375 112.596664L58.44375 111.39354L59.646873 111.39354L59.646873 112.596664L58.44375 112.596664ZM60.85 108.36229Q60.85 106.83104 61.1625 105.909164Q61.475 104.971664 62.084373 104.471664Q62.709373 103.971664 63.646873 103.971664Q64.33437 103.971664 64.85 104.252914Q65.38125 104.534164 65.725 105.065414Q66.06875 105.58104 66.25625 106.33104Q66.44375 107.08104 66.44375 108.36229Q66.44375 109.877914 66.13125 110.79979Q65.83437 111.721664 65.20937 112.23729Q64.6 112.73729 63.646873 112.73729Q62.4125 112.73729 61.69375 111.846664Q60.85 110.784164 60.85 108.36229ZM61.928123 108.36229Q61.928123 110.471664 62.428123 111.17479Q62.928123 111.877914 63.646873 111.877914Q64.38125 111.877914 64.86562 111.17479Q65.36562 110.471664 65.36562 108.36229Q65.36562 106.23729 64.86562 105.54979Q64.38125 104.846664 63.63125 104.846664Q62.9125 104.846664 62.475 105.45604Q61.928123 106.23729 61.928123 108.36229ZM67.85 108.36229Q67.85 106.83104 68.1625 105.909164Q68.475 104.971664 69.08437 104.471664Q69.70937 103.971664 70.64687 103.971664Q71.33437 103.971664 71.85 104.252914Q72.38125 104.534164 72.725 105.065414Q73.06875 105.58104 73.25625 106.33104Q73.44375 107.08104 73.44375 108.36229Q73.44375 109.877914 73.13125 110.79979Q72.83437 111.721664 72.20937 112.23729Q71.6 112.73729 70.64687 112.73729Q69.4125 112.73729 68.69375 111.846664Q67.85 110.784164 67.85 108.36229ZM68.92812 108.36229Q68.92812 110.471664 69.42812 111.17479Q69.92812 111.877914 70.64687 111.877914Q71.38125 111.877914 71.86562 111.17479Q72.36562 110.471664 72.36562 108.36229Q72.36562 106.23729 71.86562 105.54979Q71.38125 104.846664 70.63125 104.846664Q69.9125 104.846664 69.475 105.45604Q68.92812 106.23729 68.92812 108.36229ZM78.225 112.596664L78.225 110.534164L74.50625 110.534164L74.50625 109.565414L78.42812 104.002914L79.2875 104.002914L79.2875 109.565414L80.44375 109.565414L80.44375 110.534164L79.2875 110.534164L79.2875 112.596664L78.225 112.596664ZM78.225 109.565414L78.225 105.70604L75.5375 109.565414L78.225 109.565414Z" fill-rule="nonzero"/><path fill="#000000" d="M50.85 61.34896Q50.85 59.81771 51.1625 58.895836Q51.475 57.958336 52.084373 57.458336Q52.709373 56.958336 53.646873 56.958336Q54.334373 56.958336 54.85 57.239586Q55.38125 57.520836 55.725 58.052086Q56.06875 58.56771 56.25625 59.31771Q56.44375 60.06771 56.44375 61.34896Q56.44375 62.864586 56.13125 63.78646Q55.834373 64.708336 55.209373 65.22396Q54.6 65.72396 53.646873 65.72396Q52.4125 65.72396 51.69375 64.833336Q50.85 63.770836 50.85 61.34896ZM51.928123 61.34896Q51.928123 63.458336 52.428123 64.16146Q52.928123 64.864586 53.646873 64.864586Q54.38125 64.864586 54.865623 64.16146Q55.365623 63.458336 55.365623 61.34896Q55.365623 59.22396 54.865623 58.53646Q54.38125 57.833336 53.63125 57.833336Q52.9125 57.833336 52.475 58.44271Q51.928123 59.22396 51.928123 61.34896ZM58.44375 65.583336L58.44375 64.38021L59.646873 64.38021L59.646873 65.583336L58.44375 65.583336ZM60.85 61.34896Q60.85 59.81771 61.1625 58.895836Q61.475 57.958336 62.084373 57.458336Q62.709373 56.958336 63.646873 56.958336Q64.33437 56.958336 64.85 57.239586Q65.38125 57.520836 65.725 58.052086Q66.06875 58.56771 66.25625 59.31771Q66.44375 60.06771 66.44375 61.34896Q66.44375 62.864586 66.13125 63.78646Q65.83437 64.708336 65.20937 65.22396Q64.6 65.72396 63.646873 65.72396Q62.4125 65.72396 61.69375 64.833336Q60.85 63.770836 60.85 61.34896ZM61.928123 61.34896Q61.928123 63.458336 62.428123 64.16146Q62.928123 64.864586 63.646873 64.864586Q64.38125 64.864586 64.86562 64.16146Q65.36562 63.458336 65.36562 61.34896Q65.36562 59.22396 64.86562 58.53646Q64.38125 57.833336 63.63125 57.833336Q62.9125 57.833336 62.475 58.44271Q61.928123 59.22396 61.928123 61.34896ZM67.85 61.34896Q67.85 59.81771 68.1625 58.895836Q68.475 57.958336 69.08437 57.458336Q69.70937 56.958336 70.64687 56.958336Q71.33437 56.958336 71.85 57.239586Q72.38125 57.520836 72.725 58.052086Q73.06875 58.56771 73.25625 59.31771Q73.44375 60.06771 73.44375 61.34896Q73.44375 62.864586 73.13125 63.78646Q72.83437 64.708336 72.20937 65.22396Q71.6 65.72396 70.64687 65.72396Q69.4125 65.72396 68.69375 64.833336Q67.85 63.770836 67.85 61.34896ZM68.92812 61.34896Q68.92812 63.458336 69.42812 64.16146Q69.92812 64.864586 70.64687 64.864586Q71.38125 64.864586 71.86562 64.16146Q72.36562 63.458336 72.36562 61.34896Q72.36562 59.22396 71.86562 58.53646Q71.38125 57.833336 70.63125 57.833336Q69.9125 57.833336 69.475 58.44271Q68.92812 59.22396 68.92812 61.34896ZM74.85 63.333336L75.95937 63.239586Q76.08437 64.052086 76.52187 64.458336Q76.975 64.864586 77.61562 64.864586Q78.36562 64.864586 78.89687 64.28646Q79.42812 63.708336 79.42812 62.770836Q79.42812 61.864586 78.9125 61.34896Q78.4125 60.81771 77.58437 60.81771Q77.08437 60.81771 76.6625 61.052086Q76.25625 61.28646 76.02187 61.645836L75.0375 61.520836L75.86562 57.114586L80.14687 57.114586L80.14687 58.114586L76.70937 58.114586L76.25625 60.427086Q77.02187 59.88021 77.86562 59.88021Q78.99062 59.88021 79.75625 60.66146Q80.5375 61.44271 80.5375 62.677086Q80.5375 63.833336 79.86562 64.69271Q79.0375 65.72396 77.61562 65.72396Q76.44375 65.72396 75.69375 65.06771Q74.95937 64.41146 74.85 63.333336Z" fill-rule="nonzero"/><path fill="#000000" d="M88.31875 313.65L87.27187 313.65L87.27187 306.93124Q86.88125 307.29062 86.25625 307.66562Q85.64687 308.025 85.1625 308.19687L85.1625 307.18124Q86.0375 306.75937 86.69375 306.18124Q87.36562 305.5875 87.64687 305.025L88.31875 305.025L88.31875 313.65Z" fill-rule="nonzero"/><path fill="#000000" d="M228.55402 312.63437L228.55402 313.65L222.86652 313.65Q222.86652 313.275 222.99152 312.91562Q223.21027 312.3375 223.67902 311.775Q224.16339 311.2125 225.06964 310.47812Q226.47589 309.32187 226.96027 308.65Q227.46027 307.97812 227.46027 307.38437Q227.46027 306.75937 227.00714 306.3375Q226.55402 305.9 225.83527 305.9Q225.06964 305.9 224.61652 306.35312Q224.16339 306.80624 224.14777 307.61874L223.06964 307.50937Q223.17902 306.29062 223.89777 305.66562Q224.63214 305.025 225.86652 305.025Q227.10089 305.025 227.81964 305.7125Q228.53839 306.4 228.53839 307.41562Q228.53839 307.93124 228.31964 308.43124Q228.11652 308.91562 227.61652 309.47812Q227.13214 310.025 226.00714 310.97812Q225.05402 311.775 224.77277 312.07187Q224.50714 312.35312 224.33527 312.63437L228.55402 312.63437Z" fill-rule="nonzero"/><path fill="#000000" d="M361.66428 311.38437L362.72678 311.24374Q362.89865 312.13437 363.33615 312.54062Q363.77365 312.93124 364.39865 312.93124Q365.14865 312.93124 365.66428 312.41562Q366.1799 311.9 366.1799 311.13437Q366.1799 310.41562 365.69553 309.94687Q365.22678 309.4625 364.4924 309.4625Q364.19553 309.4625 363.7424 309.5875L363.8674 308.65Q363.97678 308.66562 364.03928 308.66562Q364.71115 308.66562 365.2424 308.32187Q365.78928 307.9625 365.78928 307.22812Q365.78928 306.65 365.39865 306.275Q365.00803 305.88437 364.38303 305.88437Q363.77365 305.88437 363.35178 306.275Q362.94553 306.66562 362.83615 307.43124L361.77365 307.24374Q361.96115 306.19687 362.64865 305.61874Q363.33615 305.025 364.35178 305.025Q365.0549 305.025 365.64865 305.3375Q366.2424 305.63437 366.5549 306.15Q366.8674 306.66562 366.8674 307.25937Q366.8674 307.80624 366.57053 308.275Q366.27365 308.72812 365.69553 308.99374Q366.44553 309.16562 366.8674 309.72812Q367.28928 310.275 367.28928 311.11874Q367.28928 312.24374 366.46115 313.025Q365.64865 313.80624 364.39865 313.80624Q363.27365 313.80624 362.52365 313.13437Q361.77365 312.44687 361.66428 311.38437Z" fill-rule="nonzero"/><path fill="#000000" d="M503.69644 313.65L503.69644 311.5875L499.9777 311.5875L499.9777 310.61874L503.89957 305.05624L504.75894 305.05624L504.75894 310.61874L505.9152 310.61874L505.9152 311.5875L504.75894 311.5875L504.75894 313.65L503.69644 313.65ZM503.69644 310.61874L503.69644 306.75937L501.00894 310.61874L503.69644 310.61874Z" fill-rule="nonzero"/><path fill="#757575" d="M30.115625 32.334373L32.00625 32.803123Q31.4125 35.146873 29.865625 36.38125Q28.31875 37.6 26.06875 37.6Q23.75625 37.6 22.303125 36.6625Q20.865625 35.709373 20.1 33.928123Q19.35 32.13125 19.35 30.084373Q19.35 27.849998 20.19375 26.193748Q21.053125 24.521873 22.63125 23.662498Q24.209375 22.787498 26.1 22.787498Q28.25625 22.787498 29.709375 23.881248Q31.178125 24.974998 31.75625 26.959373L29.896875 27.396873Q29.396875 25.834373 28.44375 25.131248Q27.50625 24.412498 26.06875 24.412498Q24.4125 24.412498 23.303125 25.209373Q22.19375 25.990623 21.740625 27.334373Q21.303125 28.662498 21.303125 30.068748Q21.303125 31.896873 21.834375 33.271873Q22.365625 34.63125 23.490625 35.303123Q24.615625 35.975 25.9125 35.975Q27.50625 35.975 28.615625 35.053123Q29.725 34.13125 30.115625 32.334373ZM40.459373 37.35L40.459373 35.81875Q39.25625 37.584373 37.178123 37.584373Q36.25625 37.584373 35.459373 37.240623Q34.6625 36.88125 34.271873 36.35Q33.896873 35.81875 33.740623 35.0375Q33.63125 34.521873 33.63125 33.396873L33.63125 26.974998L35.38125 26.974998L35.38125 32.725Q35.38125 34.1 35.490623 34.584373Q35.6625 35.271873 36.19375 35.678123Q36.740623 36.06875 37.521873 36.06875Q38.31875 36.06875 39.00625 35.6625Q39.709373 35.25625 39.990623 34.56875Q40.2875 33.865623 40.2875 32.5375L40.2875 26.974998L42.0375 26.974998L42.0375 37.35L40.459373 37.35ZM43.646873 37.35L43.646873 26.974998L45.225 26.974998L45.225 28.553123Q45.834373 27.443748 46.35 27.099998Q46.865623 26.740623 47.475 26.740623Q48.365623 26.740623 49.2875 27.303123L48.678123 28.943748Q48.0375 28.553123 47.396873 28.553123Q46.81875 28.553123 46.35 28.912498Q45.896873 29.256248 45.69375 29.865623Q45.4125 30.803123 45.4125 31.912498L45.4125 37.35L43.646873 37.35ZM50.646873 37.35L50.646873 26.974998L52.225 26.974998L52.225 28.553123Q52.834373 27.443748 53.35 27.099998Q53.865623 26.740623 54.475 26.740623Q55.365623 26.740623 56.2875 27.303123L55.678123 28.943748Q55.0375 28.553123 54.396873 28.553123Q53.81875 28.553123 53.35 28.912498Q52.896873 29.256248 52.69375 29.865623Q52.4125 30.803123 52.4125 31.912498L52.4125 37.35L50.646873 37.35ZM64.77187 34.00625L66.58437 34.240623Q66.1625 35.81875 64.99062 36.709373Q63.834373 37.584373 62.021873 37.584373Q59.75625 37.584373 58.4125 36.19375Q57.084373 34.7875 57.084373 32.25625Q57.084373 29.631248 58.428123 28.193748Q59.771873 26.740623 61.928123 26.740623Q64.00625 26.740623 65.31875 28.162498Q66.64687 29.568748 66.64687 32.146873Q66.64687 32.303123 66.63125 32.615623L58.896873 32.615623Q58.990623 34.31875 59.865623 35.225Q60.740623 36.13125 62.0375 36.13125Q63.00625 36.13125 63.678123 35.63125Q64.36562 35.115623 64.77187 34.00625ZM58.990623 31.162498L64.7875 31.162498Q64.67812 29.865623 64.13125 29.209373Q63.2875 28.193748 61.94375 28.193748Q60.740623 28.193748 59.9125 29.006248Q59.084373 29.803123 58.990623 31.162498ZM68.6625 37.35L68.6625 26.974998L70.25625 26.974998L70.25625 28.459373Q71.39687 26.740623 73.55312 26.740623Q74.49062 26.740623 75.27187 27.084373Q76.06875 27.412498 76.45937 27.959373Q76.85 28.506248 77.00625 29.256248Q77.1 29.756248 77.1 30.974998L77.1 37.35L75.33437 37.35L75.33437 31.037498Q75.33437 29.959373 75.13125 29.428123Q74.92812 28.896873 74.39687 28.584373Q73.88125 28.271873 73.17812 28.271873Q72.05312 28.271873 71.24062 28.990623Q70.42812 29.693748 70.42812 31.678123L70.42812 37.35L68.6625 37.35ZM82.50625 35.771873L82.75625 37.334373Q82.02187 37.490623 81.42812 37.490623Q80.475 37.490623 79.94375 37.19375Q79.42812 36.88125 79.20937 36.396873Q78.99062 35.896873 78.99062 34.31875L78.99062 28.349998L77.70937 28.349998L77.70937 26.974998L78.99062 26.974998L78.99062 24.412498L80.74062 23.349998L80.74062 26.974998L82.50625 26.974998L82.50625 28.349998L80.74062 28.349998L80.74062 34.4125Q80.74062 35.1625 80.83437 35.38125Q80.92812 35.584373 81.13125 35.725Q81.35 35.85 81.74062 35.85Q82.02187 35.85 82.50625 35.771873ZM92.58437 37.35L89.4125 26.974998L91.225 26.974998L92.88125 32.959373L93.49062 35.19375Q93.5375 35.021873 94.02187 33.053123L95.67812 26.974998L97.49062 26.974998L99.0375 32.990623L99.55312 34.975L100.14687 32.975L101.92812 26.974998L103.63125 26.974998L100.39687 37.35L98.56875 37.35L96.9125 31.131248L96.52187 29.365623L94.4125 37.35L92.58437 37.35ZM105.67812 25.053123L105.67812 23.037498L107.44375 23.037498L107.44375 25.053123L105.67812 25.053123ZM105.67812 37.35L105.67812 26.974998L107.44375 26.974998L107.44375 37.35L105.67812 37.35ZM113.50625 35.771873L113.75625 37.334373Q113.02187 37.490623 112.42812 37.490623Q111.475 37.490623 110.94375 37.19375Q110.42812 36.88125 110.20937 36.396873Q109.99062 35.896873 109.99062 34.31875L109.99062 28.349998L108.70937 28.349998L108.70937 26.974998L109.99062 26.974998L109.99062 24.412498L111.74062 23.349998L111.74062 26.974998L113.50625 26.974998L113.50625 28.349998L111.74062 28.349998L111.74062 34.4125Q111.74062 35.1625 111.83437 35.38125Q111.92812 35.584373 112.13125 35.725Q112.35 35.85 112.74062 35.85Q113.02187 35.85 113.50625 35.771873ZM115.6625 37.35L115.6625 23.037498L117.42812 23.037498L117.42812 28.162498Q118.6625 26.740623 120.5375 26.740623Q121.67812 26.740623 122.52187 27.193748Q123.38125 27.646873 123.74062 28.459373Q124.11562 29.256248 124.11562 30.771873L124.11562 37.35L122.36562 37.35L122.36562 30.771873Q122.36562 29.459373 121.7875 28.865623Q121.20937 28.256248 120.17812 28.256248Q119.39687 28.256248 118.69375 28.662498Q118.00625 29.068748 117.70937 29.771873Q117.42812 30.459373 117.42812 31.678123L117.42812 37.35L115.6625 37.35ZM131.02188 32.1625Q131.02188 29.287498 132.61563 27.896873Q133.95938 26.740623 135.88126 26.740623Q138.02188 26.740623 139.36563 28.146873Q140.725 29.553123 140.725 32.021873Q140.725 34.021873 140.13126 35.178123Q139.5375 36.31875 138.38126 36.959373Q137.24063 37.584373 135.88126 37.584373Q133.69376 37.584373 132.35 36.19375Q131.02188 34.7875 131.02188 32.1625ZM132.81876 32.1625Q132.81876 34.1625 133.67813 35.146873Q134.55313 36.13125 135.88126 36.13125Q137.19376 36.13125 138.05313 35.146873Q138.92813 34.146873 138.92813 32.1Q138.92813 30.178123 138.05313 29.193748Q137.17813 28.193748 135.88126 28.193748Q134.55313 28.193748 133.67813 29.193748Q132.81876 30.178123 132.81876 32.1625ZM142.64688 37.35L142.64688 26.974998L144.225 26.974998L144.225 28.553123Q144.83438 27.443748 145.35 27.099998Q145.86563 26.740623 146.475 26.740623Q147.36563 26.740623 148.2875 27.303123L147.67813 28.943748Q147.0375 28.553123 146.39688 28.553123Q145.81876 28.553123 145.35 28.912498Q144.89688 29.256248 144.69376 29.865623Q144.4125 30.803123 144.4125 31.912498L144.4125 37.35L142.64688 37.35ZM156.39688 37.35L156.39688 36.0375Q155.4125 37.584373 153.49063 37.584373Q152.25626 37.584373 151.20938 36.896873Q150.17813 36.209373 149.6 34.990623Q149.0375 33.771873 149.0375 32.178123Q149.0375 30.615623 149.55313 29.349998Q150.06876 28.084373 151.1 27.412498Q152.14688 26.740623 153.4125 26.740623Q154.35 26.740623 155.08438 27.146873Q155.81876 27.537498 156.2875 28.162498L156.2875 23.037498L158.02188 23.037498L158.02188 37.35L156.39688 37.35ZM150.83438 32.178123Q150.83438 34.1625 151.67813 35.146873Q152.52188 36.13125 153.6625 36.13125Q154.81876 36.13125 155.61563 35.19375Q156.42813 34.25625 156.42813 32.31875Q156.42813 30.193748 155.6 29.193748Q154.7875 28.193748 153.58438 28.193748Q152.4125 28.193748 151.61563 29.162498Q150.83438 30.115623 150.83438 32.178123ZM160.67813 25.053123L160.67813 23.037498L162.44376 23.037498L162.44376 25.053123L160.67813 25.053123ZM160.67813 37.35L160.67813 26.974998L162.44376 26.974998L162.44376 37.35L160.67813 37.35ZM164.6625 37.35L164.6625 26.974998L166.25626 26.974998L166.25626 28.459373Q167.39688 26.740623 169.55313 26.740623Q170.49063 26.740623 171.27188 27.084373Q172.06876 27.412498 172.45938 27.959373Q172.85 28.506248 173.00626 29.256248Q173.1 29.756248 173.1 30.974998L173.1 37.35L171.33438 37.35L171.33438 31.037498Q171.33438 29.959373 171.13126 29.428123Q170.92813 28.896873 170.39688 28.584373Q169.88126 28.271873 169.17813 28.271873Q168.05313 28.271873 167.24063 28.990623Q166.42813 29.693748 166.42813 31.678123L166.42813 37.35L164.6625 37.35ZM181.44376 36.06875Q180.45938 36.896873 179.55313 37.240623Q178.64688 37.584373 177.61563 37.584373Q175.9125 37.584373 174.99063 36.75625Q174.06876 35.9125 174.06876 34.615623Q174.06876 33.85 174.4125 33.225Q174.77188 32.6 175.33438 32.225Q175.89688 31.834373 176.6 31.631248Q177.11563 31.506248 178.1625 31.365623Q180.2875 31.115623 181.2875 30.771873Q181.30313 30.412498 181.30313 30.303123Q181.30313 29.240623 180.80313 28.787498Q180.13126 28.193748 178.80313 28.193748Q177.55313 28.193748 176.95938 28.631248Q176.38126 29.068748 176.1 30.178123L174.38126 29.943748Q174.61563 28.834373 175.14688 28.162498Q175.67813 27.474998 176.69376 27.115623Q177.70938 26.740623 179.05313 26.740623Q180.38126 26.740623 181.20938 27.053123Q182.0375 27.365623 182.42813 27.849998Q182.81876 28.318748 182.975 29.037498Q183.06876 29.490623 183.06876 30.662498L183.06876 33.00625Q183.06876 35.459373 183.17813 36.115623Q183.2875 36.75625 183.63126 37.35L181.7875 37.35Q181.52188 36.803123 181.44376 36.06875ZM181.2875 32.146873Q180.33438 32.5375 178.4125 32.803123Q177.33438 32.959373 176.88126 33.1625Q176.44376 33.35 176.19376 33.725Q175.94376 34.1 175.94376 34.56875Q175.94376 35.271873 176.475 35.740623Q177.00626 36.209373 178.0375 36.209373Q179.05313 36.209373 179.83438 35.771873Q180.63126 35.31875 181.00626 34.553123Q181.2875 33.94375 181.2875 32.7875L181.2875 32.146873ZM185.64688 37.35L185.64688 26.974998L187.225 26.974998L187.225 28.553123Q187.83438 27.443748 188.35 27.099998Q188.86563 26.740623 189.475 26.740623Q190.36563 26.740623 191.2875 27.303123L190.67813 28.943748Q190.0375 28.553123 189.39688 28.553123Q188.81876 28.553123 188.35 28.912498Q187.89688 29.256248 187.69376 29.865623Q187.4125 30.803123 187.4125 31.912498L187.4125 37.35L185.64688 37.35ZM192.58438 41.35L192.39688 39.69375Q192.975 39.85 193.39688 39.85Q193.99063 39.85 194.33438 39.646873Q194.69376 39.459373 194.9125 39.115623Q195.08438 38.85 195.45938 37.803123Q195.50626 37.646873 195.61563 37.365623L191.67813 26.974998L193.56876 26.974998L195.725 32.990623Q196.14688 34.13125 196.475 35.38125Q196.7875 34.178123 197.19376 33.021873L199.4125 26.974998L201.17813 26.974998L197.225 37.521873Q196.6 39.240623 196.24063 39.88125Q195.77188 40.75625 195.1625 41.146873Q194.56876 41.553123 193.725 41.553123Q193.20938 41.553123 192.58438 41.35ZM208.64688 37.35L208.64688 26.974998L210.225 26.974998L210.225 28.553123Q210.83438 27.443748 211.35 27.099998Q211.86563 26.740623 212.475 26.740623Q213.36563 26.740623 214.2875 27.303123L213.67813 28.943748Q213.0375 28.553123 212.39688 28.553123Q211.81876 28.553123 211.35 28.912498Q210.89688 29.256248 210.69376 29.865623Q210.4125 30.803123 210.4125 31.912498L210.4125 37.35L208.64688 37.35ZM222.77188 34.00625L224.58438 34.240623Q224.1625 35.81875 222.99063 36.709373Q221.83438 37.584373 220.02188 37.584373Q217.75626 37.584373 216.4125 36.19375Q215.08438 34.7875 215.08438 32.25625Q215.08438 29.631248 216.42813 28.193748Q217.77188 26.740623 219.92813 26.740623Q222.00626 26.740623 223.31876 28.162498Q224.64688 29.568748 224.64688 32.146873Q224.64688 32.303123 224.63126 32.615623L216.89688 32.615623Q216.99063 34.31875 217.86563 35.225Q218.74063 36.13125 220.0375 36.13125Q221.00626 36.13125 221.67813 35.63125Q222.36563 35.115623 222.77188 34.00625ZM216.99063 31.162498L222.7875 31.162498Q222.67813 29.865623 222.13126 29.209373Q221.2875 28.193748 219.94376 28.193748Q218.74063 28.193748 217.9125 29.006248Q217.08438 29.803123 216.99063 31.162498ZM225.95938 34.25625L227.70938 33.975Q227.85 35.021873 228.52188 35.584373Q229.19376 36.13125 230.39688 36.13125Q231.6 36.13125 232.17813 35.646873Q232.77188 35.146873 232.77188 34.490623Q232.77188 33.896873 232.25626 33.553123Q231.89688 33.31875 230.45938 32.959373Q228.52188 32.459373 227.77188 32.115623Q227.0375 31.756248 226.64688 31.131248Q226.25626 30.490623 226.25626 29.724998Q226.25626 29.037498 226.56876 28.443748Q226.89688 27.849998 227.44376 27.459373Q227.85 27.162498 228.55313 26.959373Q229.27188 26.740623 230.08438 26.740623Q231.30313 26.740623 232.225 27.099998Q233.14688 27.443748 233.58438 28.053123Q234.02188 28.646873 234.19376 29.646873L232.475 29.881248Q232.35 29.084373 231.7875 28.646873Q231.225 28.193748 230.20938 28.193748Q228.99063 28.193748 228.475 28.599998Q227.95938 28.990623 227.95938 29.521873Q227.95938 29.865623 228.17813 30.146873Q228.38126 30.428123 228.85 30.615623Q229.11563 30.709373 230.39688 31.053123Q232.27188 31.553123 233.00626 31.881248Q233.74063 32.19375 234.1625 32.803123Q234.58438 33.396873 234.58438 34.303123Q234.58438 35.178123 234.06876 35.959373Q233.55313 36.740623 232.58438 37.1625Q231.61563 37.584373 230.39688 37.584373Q228.38126 37.584373 227.31876 36.740623Q226.25626 35.896873 225.95938 34.25625ZM236.67813 25.053123L236.67813 23.037498L238.44376 23.037498L238.44376 25.053123L236.67813 25.053123ZM236.67813 37.35L236.67813 26.974998L238.44376 26.974998L238.44376 37.35L236.67813 37.35ZM239.95938 34.25625L241.70938 33.975Q241.85 35.021873 242.52188 35.584373Q243.19376 36.13125 244.39688 36.13125Q245.6 36.13125 246.17813 35.646873Q246.77188 35.146873 246.77188 34.490623Q246.77188 33.896873 246.25626 33.553123Q245.89688 33.31875 244.45938 32.959373Q242.52188 32.459373 241.77188 32.115623Q241.0375 31.756248 240.64688 31.131248Q240.25626 30.490623 240.25626 29.724998Q240.25626 29.037498 240.56876 28.443748Q240.89688 27.849998 241.44376 27.459373Q241.85 27.162498 242.55313 26.959373Q243.27188 26.740623 244.08438 26.740623Q245.30313 26.740623 246.225 27.099998Q247.14688 27.443748 247.58438 28.053123Q248.02188 28.646873 248.19376 29.646873L246.475 29.881248Q246.35 29.084373 245.7875 28.646873Q245.225 28.193748 244.20938 28.193748Q242.99063 28.193748 242.475 28.599998Q241.95938 28.990623 241.95938 29.521873Q241.95938 29.865623 242.17813 30.146873Q242.38126 30.428123 242.85 30.615623Q243.11563 30.709373 244.39688 31.053123Q246.27188 31.553123 247.00626 31.881248Q247.74063 32.19375 248.1625 32.803123Q248.58438 33.396873 248.58438 34.303123Q248.58438 35.178123 248.06876 35.959373Q247.55313 36.740623 246.58438 37.1625Q245.61563 37.584373 244.39688 37.584373Q242.38126 37.584373 241.31876 36.740623Q240.25626 35.896873 239.95938 34.25625ZM254.50626 35.771873L254.75626 37.334373Q254.02188 37.490623 253.42813 37.490623Q252.475 37.490623 251.94376 37.19375Q251.42813 36.88125 251.20938 36.396873Q250.99063 35.896873 250.99063 34.31875L250.99063 28.349998L249.70938 28.349998L249.70938 26.974998L250.99063 26.974998L250.99063 24.412498L252.74063 23.349998L252.74063 26.974998L254.50626 26.974998L254.50626 28.349998L252.74063 28.349998L252.74063 34.4125Q252.74063 35.1625 252.83438 35.38125Q252.92813 35.584373 253.13126 35.725Q253.35 35.85 253.74063 35.85Q254.02188 35.85 254.50626 35.771873ZM256.02188 32.1625Q256.02188 29.287498 257.61563 27.896873Q258.95938 26.740623 260.88126 26.740623Q263.02188 26.740623 264.36563 28.146873Q265.725 29.553123 265.725 32.021873Q265.725 34.021873 265.13126 35.178123Q264.5375 36.31875 263.38126 36.959373Q262.24063 37.584373 260.88126 37.584373Q258.69376 37.584373 257.35 36.19375Q256.02188 34.7875 256.02188 32.1625ZM257.81876 32.1625Q257.81876 34.1625 258.67813 35.146873Q259.55313 36.13125 260.88126 36.13125Q262.19376 36.13125 263.05313 35.146873Q263.92813 34.146873 263.92813 32.1Q263.92813 30.178123 263.05313 29.193748Q262.17813 28.193748 260.88126 28.193748Q259.55313 28.193748 258.67813 29.193748Q257.81876 30.178123 257.81876 32.1625ZM267.64688 37.35L267.64688 26.974998L269.225 26.974998L269.225 28.553123Q269.83438 27.443748 270.35 27.099998Q270.86563 26.740623 271.475 26.740623Q272.36563 26.740623 273.2875 27.303123L272.67813 28.943748Q272.0375 28.553123 271.39688 28.553123Q270.81876 28.553123 270.35 28.912498Q269.89688 29.256248 269.69376 29.865623Q269.4125 30.803123 269.4125 31.912498L269.4125 37.35L267.64688 37.35ZM280.70938 41.31875L280.70938 23.037498L284.58438 23.037498L284.58438 24.490623L282.45938 24.490623L282.45938 39.865623L284.58438 39.865623L284.58438 41.31875L280.70938 41.31875ZM285.31876 37.35L290.81876 23.037498L292.86563 23.037498L298.725 37.35L296.56876 37.35L294.89688 33.00625L288.9125 33.00625L287.33438 37.35L285.31876 37.35ZM289.45938 31.474998L294.30313 31.474998L292.81876 27.506248Q292.13126 25.693748 291.80313 24.537498Q291.52188 25.912498 291.02188 27.271873L289.45938 31.474998ZM299.6625 37.35L299.6625 26.974998L301.24063 26.974998L301.24063 28.428123Q301.725 27.678123 302.5375 27.209373Q303.35 26.740623 304.38126 26.740623Q305.5375 26.740623 306.27188 27.224998Q307.00626 27.693748 307.31876 28.553123Q308.55313 26.740623 310.52188 26.740623Q312.06876 26.740623 312.89688 27.599998Q313.725 28.459373 313.725 30.224998L313.725 37.35L311.975 37.35L311.975 30.818748Q311.975 29.756248 311.80313 29.303123Q311.63126 28.834373 311.17813 28.553123Q310.74063 28.271873 310.13126 28.271873Q309.0375 28.271873 308.30313 29.006248Q307.58438 29.724998 307.58438 31.318748L307.58438 37.35L305.83438 37.35L305.83438 30.615623Q305.83438 29.443748 305.39688 28.865623Q304.975 28.271873 303.99063 28.271873Q303.25626 28.271873 302.61563 28.662498Q301.99063 29.053123 301.70938 29.803123Q301.42813 30.553123 301.42813 31.974998L301.42813 37.35L299.6625 37.35ZM315.6625 41.31875L315.6625 26.974998L317.27188 26.974998L317.27188 28.318748Q317.83438 27.537498 318.5375 27.146873Q319.25626 26.740623 320.27188 26.740623Q321.6 26.740623 322.61563 27.428123Q323.63126 28.115623 324.14688 29.365623Q324.67813 30.599998 324.67813 32.084373Q324.67813 33.678123 324.1 34.959373Q323.5375 36.225 322.44376 36.9125Q321.35 37.584373 320.14688 37.584373Q319.27188 37.584373 318.56876 37.209373Q317.88126 36.834373 317.42813 36.271873L317.42813 41.31875L315.6625 41.31875ZM317.25626 32.225Q317.25626 34.225 318.06876 35.178123Q318.88126 36.13125 320.0375 36.13125Q321.20938 36.13125 322.0375 35.146873Q322.88126 34.1625 322.88126 32.06875Q322.88126 30.099998 322.05313 29.115623Q321.24063 28.115623 320.11563 28.115623Q318.99063 28.115623 318.11563 29.178123Q317.25626 30.224998 317.25626 32.225ZM325.95938 34.25625L327.70938 33.975Q327.85 35.021873 328.52188 35.584373Q329.19376 36.13125 330.39688 36.13125Q331.6 36.13125 332.17813 35.646873Q332.77188 35.146873 332.77188 34.490623Q332.77188 33.896873 332.25626 33.553123Q331.89688 33.31875 330.45938 32.959373Q328.52188 32.459373 327.77188 32.115623Q327.0375 31.756248 326.64688 31.131248Q326.25626 30.490623 326.25626 29.724998Q326.25626 29.037498 326.56876 28.443748Q326.89688 27.849998 327.44376 27.459373Q327.85 27.162498 328.55313 26.959373Q329.27188 26.740623 330.08438 26.740623Q331.30313 26.740623 332.225 27.099998Q333.14688 27.443748 333.58438 28.053123Q334.02188 28.646873 334.19376 29.646873L332.475 29.881248Q332.35 29.084373 331.7875 28.646873Q331.225 28.193748 330.20938 28.193748Q328.99063 28.193748 328.475 28.599998Q327.95938 28.990623 327.95938 29.521873Q327.95938 29.865623 328.17813 30.146873Q328.38126 30.428123 328.85 30.615623Q329.11563 30.709373 330.39688 31.053123Q332.27188 31.553123 333.00626 31.881248Q333.74063 32.19375 334.1625 32.803123Q334.58438 33.396873 334.58438 34.303123Q334.58438 35.178123 334.06876 35.959373Q333.55313 36.740623 332.58438 37.1625Q331.61563 37.584373 330.39688 37.584373Q328.38126 37.584373 327.31876 36.740623Q326.25626 35.896873 325.95938 34.25625ZM339.61563 41.31875L335.725 41.31875L335.725 39.865623L337.85 39.865623L337.85 24.490623L335.725 24.490623L335.725 23.037498L339.61563 23.037498L339.61563 41.31875ZM351.55313 37.35L347.6 26.974998L349.45938 26.974998L351.69376 33.19375Q352.05313 34.19375 352.35 35.271873Q352.58438 34.459373 353.00626 33.303123L355.30313 26.974998L357.11563 26.974998L353.19376 37.35L351.55313 37.35ZM356.95938 34.25625L358.70938 33.975Q358.85 35.021873 359.52188 35.584373Q360.19376 36.13125 361.39688 36.13125Q362.6 36.13125 363.17813 35.646873Q363.77188 35.146873 363.77188 34.490623Q363.77188 33.896873 363.25626 33.553123Q362.89688 33.31875 361.45938 32.959373Q359.52188 32.459373 358.77188 32.115623Q358.0375 31.756248 357.64688 31.131248Q357.25626 30.490623 357.25626 29.724998Q357.25626 29.037498 357.56876 28.443748Q357.89688 27.849998 358.44376 27.459373Q358.85 27.162498 359.55313 26.959373Q360.27188 26.740623 361.08438 26.740623Q362.30313 26.740623 363.225 27.099998Q364.14688 27.443748 364.58438 28.053123Q365.02188 28.646873 365.19376 29.646873L363.475 29.881248Q363.35 29.084373 362.7875 28.646873Q362.225 28.193748 361.20938 28.193748Q359.99063 28.193748 359.475 28.599998Q358.95938 28.990623 358.95938 29.521873Q358.95938 29.865623 359.17813 30.146873Q359.38126 30.428123 359.85 30.615623Q360.11563 30.709373 361.39688 31.053123Q363.27188 31.553123 364.00626 31.881248Q364.74063 32.19375 365.1625 32.803123Q365.58438 33.396873 365.58438 34.303123Q365.58438 35.178123 365.06876 35.959373Q364.55313 36.740623 363.58438 37.1625Q362.61563 37.584373 361.39688 37.584373Q359.38126 37.584373 358.31876 36.740623Q357.25626 35.896873 356.95938 34.25625ZM368.1625 37.35L368.1625 35.35L370.1625 35.35L370.1625 37.35L368.1625 37.35ZM379.89688 37.35L379.89688 23.037498L384.81876 23.037498Q386.49063 23.037498 387.38126 23.240623Q388.6 23.521873 389.475 24.256248Q390.6 25.224998 391.1625 26.709373Q391.725 28.193748 391.725 30.115623Q391.725 31.740623 391.35 33.00625Q390.975 34.25625 390.36563 35.084373Q389.77188 35.9125 389.06876 36.396873Q388.36563 36.865623 387.36563 37.115623Q386.36563 37.35 385.05313 37.35L379.89688 37.35ZM381.7875 35.6625L384.85 35.6625Q386.25626 35.6625 387.05313 35.396873Q387.86563 35.13125 388.35 34.646873Q389.02188 33.975 389.39688 32.85Q389.77188 31.709373 389.77188 30.084373Q389.77188 27.834373 389.0375 26.631248Q388.30313 25.428123 387.24063 25.021873Q386.49063 24.724998 384.80313 24.724998L381.7875 24.724998L381.7875 35.6625ZM404.11563 32.334373L406.00626 32.803123Q405.4125 35.146873 403.86563 36.38125Q402.31876 37.6 400.06876 37.6Q397.75626 37.6 396.30313 36.6625Q394.86563 35.709373 394.1 33.928123Q393.35 32.13125 393.35 30.084373Q393.35 27.849998 394.19376 26.193748Q395.05313 24.521873 396.63126 23.662498Q398.20938 22.787498 400.1 22.787498Q402.25626 22.787498 403.70938 23.881248Q405.17813 24.974998 405.75626 26.959373L403.89688 27.396873Q403.39688 25.834373 402.44376 25.131248Q401.50626 24.412498 400.06876 24.412498Q398.4125 24.412498 397.30313 25.209373Q396.19376 25.990623 395.74063 27.334373Q395.30313 28.662498 395.30313 30.068748Q395.30313 31.896873 395.83438 33.271873Q396.36563 34.63125 397.49063 35.303123Q398.61563 35.975 399.9125 35.975Q401.50626 35.975 402.61563 35.053123Q403.725 34.13125 404.11563 32.334373ZM417.99063 37.35L412.44376 23.037498L414.49063 23.037498L418.20938 33.428123Q418.6625 34.678123 418.95938 35.771873Q419.2875 34.6 419.74063 33.428123L423.6 23.037498L425.5375 23.037498L419.92813 37.35L417.99063 37.35ZM426.02188 32.1625Q426.02188 29.287498 427.61563 27.896873Q428.95938 26.740623 430.88126 26.740623Q433.02188 26.740623 434.36563 28.146873Q435.725 29.553123 435.725 32.021873Q435.725 34.021873 435.13126 35.178123Q434.5375 36.31875 433.38126 36.959373Q432.24063 37.584373 430.88126 37.584373Q428.69376 37.584373 427.35 36.19375Q426.02188 34.7875 426.02188 32.1625ZM427.81876 32.1625Q427.81876 34.1625 428.67813 35.146873Q429.55313 36.13125 430.88126 36.13125Q432.19376 36.13125 433.05313 35.146873Q433.92813 34.146873 433.92813 32.1Q433.92813 30.178123 433.05313 29.193748Q432.17813 28.193748 430.88126 28.193748Q429.55313 28.193748 428.67813 29.193748Q427.81876 30.178123 427.81876 32.1625ZM437.63126 37.35L437.63126 23.037498L439.38126 23.037498L439.38126 37.35L437.63126 37.35ZM445.50626 35.771873L445.75626 37.334373Q445.02188 37.490623 444.42813 37.490623Q443.475 37.490623 442.94376 37.19375Q442.42813 36.88125 442.20938 36.396873Q441.99063 35.896873 441.99063 34.31875L441.99063 28.349998L440.70938 28.349998L440.70938 26.974998L441.99063 26.974998L441.99063 24.412498L443.74063 23.349998L443.74063 26.974998L445.50626 26.974998L445.50626 28.349998L443.74063 28.349998L443.74063 34.4125Q443.74063 35.1625 443.83438 35.38125Q443.92813 35.584373 444.13126 35.725Q444.35 35.85 444.74063 35.85Q445.02188 35.85 445.50626 35.771873ZM454.44376 36.06875Q453.45938 36.896873 452.55313 37.240623Q451.64688 37.584373 450.61563 37.584373Q448.9125 37.584373 447.99063 36.75625Q447.06876 35.9125 447.06876 34.615623Q447.06876 33.85 447.4125 33.225Q447.77188 32.6 448.33438 32.225Q448.89688 31.834373 449.6 31.631248Q450.11563 31.506248 451.1625 31.365623Q453.2875 31.115623 454.2875 30.771873Q454.30313 30.412498 454.30313 30.303123Q454.30313 29.240623 453.80313 28.787498Q453.13126 28.193748 451.80313 28.193748Q450.55313 28.193748 449.95938 28.631248Q449.38126 29.068748 449.1 30.178123L447.38126 29.943748Q447.61563 28.834373 448.14688 28.162498Q448.67813 27.474998 449.69376 27.115623Q450.70938 26.740623 452.05313 26.740623Q453.38126 26.740623 454.20938 27.053123Q455.0375 27.365623 455.42813 27.849998Q455.81876 28.318748 455.975 29.037498Q456.06876 29.490623 456.06876 30.662498L456.06876 33.00625Q456.06876 35.459373 456.17813 36.115623Q456.2875 36.75625 456.63126 37.35L454.7875 37.35Q454.52188 36.803123 454.44376 36.06875ZM454.2875 32.146873Q453.33438 32.5375 451.4125 32.803123Q450.33438 32.959373 449.88126 33.1625Q449.44376 33.35 449.19376 33.725Q448.94376 34.1 448.94376 34.56875Q448.94376 35.271873 449.475 35.740623Q450.00626 36.209373 451.0375 36.209373Q452.05313 36.209373 452.83438 35.771873Q453.63126 35.31875 454.00626 34.553123Q454.2875 33.94375 454.2875 32.7875L454.2875 32.146873ZM458.35 38.209373L460.05313 38.459373Q460.1625 39.25625 460.64688 39.615623Q461.30313 40.1 462.44376 40.1Q463.6625 40.1 464.31876 39.615623Q464.99063 39.13125 465.225 38.25625Q465.36563 37.709373 465.35 35.990623Q464.19376 37.35 462.475 37.35Q460.33438 37.35 459.1625 35.803123Q457.99063 34.25625 457.99063 32.1Q457.99063 30.615623 458.52188 29.365623Q459.06876 28.115623 460.08438 27.428123Q461.11563 26.740623 462.49063 26.740623Q464.31876 26.740623 465.52188 28.224998L465.52188 26.974998L467.13126 26.974998L467.13126 35.94375Q467.13126 38.365623 466.63126 39.365623Q466.14688 40.38125 465.06876 40.959373Q464.00626 41.553123 462.44376 41.553123Q460.6 41.553123 459.44376 40.725Q458.30313 39.896873 458.35 38.209373ZM459.80313 31.974998Q459.80313 34.021873 460.61563 34.959373Q461.42813 35.896873 462.64688 35.896873Q463.85 35.896873 464.6625 34.959373Q465.49063 34.021873 465.49063 32.0375Q465.49063 30.131248 464.64688 29.162498Q463.80313 28.193748 462.61563 28.193748Q461.44376 28.193748 460.61563 29.146873Q459.80313 30.099998 459.80313 31.974998ZM476.77188 34.00625L478.58438 34.240623Q478.1625 35.81875 476.99063 36.709373Q475.83438 37.584373 474.02188 37.584373Q471.75626 37.584373 470.4125 36.19375Q469.08438 34.7875 469.08438 32.25625Q469.08438 29.631248 470.42813 28.193748Q471.77188 26.740623 473.92813 26.740623Q476.00626 26.740623 477.31876 28.162498Q478.64688 29.568748 478.64688 32.146873Q478.64688 32.303123 478.63126 32.615623L470.89688 32.615623Q470.99063 34.31875 471.86563 35.225Q472.74063 36.13125 474.0375 36.13125Q475.00626 36.13125 475.67813 35.63125Q476.36563 35.115623 476.77188 34.00625ZM470.99063 31.162498L476.7875 31.162498Q476.67813 29.865623 476.13126 29.209373Q475.2875 28.193748 473.94376 28.193748Q472.74063 28.193748 471.9125 29.006248Q471.08438 29.803123 470.99063 31.162498ZM486.70938 41.31875L486.70938 23.037498L490.58438 23.037498L490.58438 24.490623L488.45938 24.490623L488.45938 39.865623L490.58438 39.865623L490.58438 41.31875L486.70938 41.31875ZM496.99063 37.35L491.44376 23.037498L493.49063 23.037498L497.20938 33.428123Q497.6625 34.678123 497.95938 35.771873Q498.2875 34.6 498.74063 33.428123L502.6 23.037498L504.5375 23.037498L498.92813 37.35L496.99063 37.35ZM505.02188 32.1625Q505.02188 29.287498 506.61563 27.896873Q507.95938 26.740623 509.88126 26.740623Q512.02185 26.740623 513.3656 28.146873Q514.725 29.553123 514.725 32.021873Q514.725 34.021873 514.1312 35.178123Q513.5375 36.31875 512.3812 36.959373Q511.24063 37.584373 509.88126 37.584373Q507.69376 37.584373 506.35 36.19375Q505.02188 34.7875 505.02188 32.1625ZM506.81876 32.1625Q506.81876 34.1625 507.67813 35.146873Q508.55313 36.13125 509.88126 36.13125Q511.19376 36.13125 512.0531 35.146873Q512.9281 34.146873 512.9281 32.1Q512.9281 30.178123 512.0531 29.193748Q511.17813 28.193748 509.88126 28.193748Q508.55313 28.193748 507.67813 29.193748Q506.81876 30.178123 506.81876 32.1625ZM516.6312 37.35L516.6312 23.037498L518.3812 23.037498L518.3812 37.35L516.6312 37.35ZM524.5062 35.771873L524.7562 37.334373Q524.02185 37.490623 523.4281 37.490623Q522.475 37.490623 521.9437 37.19375Q521.4281 36.88125 521.20935 36.396873Q520.9906 35.896873 520.9906 34.31875L520.9906 28.349998L519.70935 28.349998L519.70935 26.974998L520.9906 26.974998L520.9906 24.412498L522.7406 23.349998L522.7406 26.974998L524.5062 26.974998L524.5062 28.349998L522.7406 28.349998L522.7406 34.4125Q522.7406 35.1625 522.83435 35.38125Q522.9281 35.584373 523.1312 35.725Q523.35 35.85 523.7406 35.85Q524.02185 35.85 524.5062 35.771873ZM525.95935 34.25625L527.70935 33.975Q527.85 35.021873 528.52185 35.584373Q529.1937 36.13125 530.39685 36.13125Q531.6 36.13125 532.1781 35.646873Q532.77185 35.146873 532.77185 34.490623Q532.77185 33.896873 532.2562 33.553123Q531.89685 33.31875 530.45935 32.959373Q528.52185 32.459373 527.77185 32.115623Q527.0375 31.756248 526.64685 31.131248Q526.2562 30.490623 526.2562 29.724998Q526.2562 29.037498 526.5687 28.443748Q526.89685 27.849998 527.4437 27.459373Q527.85 27.162498 528.5531 26.959373Q529.27185 26.740623 530.08435 26.740623Q531.3031 26.740623 532.225 27.099998Q533.14685 27.443748 533.58435 28.053123Q534.02185 28.646873 534.1937 29.646873L532.475 29.881248Q532.35 29.084373 531.7875 28.646873Q531.225 28.193748 530.20935 28.193748Q528.9906 28.193748 528.475 28.599998Q527.95935 28.990623 527.95935 29.521873Q527.95935 29.865623 528.1781 30.146873Q528.3812 30.428123 528.85 30.615623Q529.1156 30.709373 530.39685 31.053123Q532.27185 31.553123 533.0062 31.881248Q533.7406 32.19375 534.1625 32.803123Q534.58435 33.396873 534.58435 34.303123Q534.58435 35.178123 534.0687 35.959373Q533.5531 36.740623 532.58435 37.1625Q531.6156 37.584373 530.39685 37.584373Q528.3812 37.584373 527.3187 36.740623Q526.2562 35.896873 525.95935 34.25625ZM539.6156 41.31875L535.725 41.31875L535.725 39.865623L537.85 39.865623L537.85 24.490623L535.725 24.490623L535.725 23.037498L539.6156 23.037498L539.6156 41.31875Z" fill-rule="nonzero"/></svg>