<svg version="1.1" viewBox="0.0 0.0 591.0 367.0" fill="none" stroke="none" stroke-linecap="square" stroke-miterlimit="10" width="591" height="367" xmlns:xlink="http://www.w3.org/1999/xlink" xmlns="http://www.w3.org/2000/svg"><path fill="#ffffff" d="M0 0L591.0 0L591.0 367.0L0 367.0L0 0Z" fill-rule="nonzero"/><path stroke="#cccccc" stroke-width="1.0" stroke-linecap="butt" d="M87.5 61.5L87.5 296.5" fill-rule="nonzero"/><path stroke="#cccccc" stroke-width="1.0" stroke-linecap="butt" d="M226.5 61.5L226.5 296.5" fill-rule="nonzero"/><path stroke="#cccccc" stroke-width="1.0" stroke-linecap="butt" d="M364.5 61.5L364.5 296.5" fill-rule="nonzero"/><path stroke="#cccccc" stroke-width="1.0" stroke-linecap="butt" d="M503.5 61.5L503.5 296.5" fill-rule="nonzero"/><path stroke="#333333" stroke-width="1.0" stroke-linecap="butt" d="M87.5 296.5L572.5 296.5" fill-rule="nonzero"/><path stroke="#cccccc" stroke-width="1.0" stroke-linecap="butt" d="M87.5 249.5L572.5 249.5" fill-rule="nonzero"/><path stroke="#cccccc" stroke-width="1.0" stroke-linecap="butt" d="M87.5 202.5L572.5 202.5" fill-rule="nonzero"/><path stroke="#cccccc" stroke-width="1.0" stroke-linecap="butt" d="M87.5 155.5L572.5 155.5" fill-rule="nonzero"/><path stroke="#cccccc" stroke-width="1.0" stroke-linecap="butt" d="M87.5 108.5L572.5 108.5" fill-rule="nonzero"/><path stroke="#cccccc" stroke-width="1.0" stroke-linecap="butt" d="M87.5 61.5L572.5 61.5" fill-rule="nonzero"/><clipPath id="id_0"><path d="M87.35 61.583332L572.65 61.583332L572.65 296.65L87.35 296.65L87.35 61.583332Z" clip-rule="nonzero"/></clipPath><path stroke="#4285f4" stroke-width="2.0" stroke-linecap="butt" clip-path="url(#id_0)" d="M87.35 196.98174L156.67857 176.29587L226.00714 155.61L295.33572 140.56573L364.66428 123.64093L433.99286 110.4772L503.32144 95.43293L572.65 84.149734" fill-rule="nonzero"/><path fill="#000000" fill-opacity="0.0" clip-path="url(#id_0)" d="M90.35 196.98174C90.35 198.63858 89.00685 199.98174 87.35 199.98174C85.693146 199.98174 84.35 198.63858 84.35 196.98174C84.35 195.32487 85.693146 193.98174 87.35 193.98174C89.00685 193.98174 90.35 195.32487 90.35 196.98174Z" fill-rule="nonzero"/><path fill="#000000" fill-opacity="0.0" clip-path="url(#id_0)" d="M159.67857 176.29587C159.67857 177.95273 158.33542 179.29587 156.67857 179.29587C155.02171 179.29587 153.67857 177.95273 153.67857 176.29587C153.67857 174.639 155.02171 173.29587 156.67857 173.29587C158.33542 173.29587 159.67857 174.639 159.67857 176.29587Z" fill-rule="nonzero"/><path fill="#000000" fill-opacity="0.0" clip-path="url(#id_0)" d="M229.00714 155.61C229.00714 157.26686 227.664 158.61 226.00714 158.61C224.3503 158.61 223.00714 157.26686 223.00714 155.61C223.00714 153.95314 224.3503 152.61 226.00714 152.61C227.664 152.61 229.00714 153.95314 229.00714 155.61Z" fill-rule="nonzero"/><path fill="#000000" fill-opacity="0.0" clip-path="url(#id_0)" d="M298.33572 140.56573C298.33572 142.22258 296.99255 143.56573 295.33572 143.56573C293.67886 143.56573 292.33572 142.22258 292.33572 140.56573C292.33572 138.90887 293.67886 137.56573 295.33572 137.56573C296.99255 137.56573 298.33572 138.90887 298.33572 140.56573Z" fill-rule="nonzero"/><path fill="#000000" fill-opacity="0.0" clip-path="url(#id_0)" d="M367.66428 123.64093C367.66428 125.29779 366.32114 126.64093 364.66428 126.64093C363.00745 126.64093 361.66428 125.29779 361.66428 123.64093C361.66428 121.98408 363.00745 120.64093 364.66428 120.64093C366.32114 120.64093 367.66428 121.98408 367.66428 123.64093Z" fill-rule="nonzero"/><path fill="#000000" fill-opacity="0.0" clip-path="url(#id_0)" d="M436.99286 110.4772C436.99286 112.134056 435.64972 113.4772 433.99286 113.4772C432.336 113.4772 430.99286 112.134056 430.99286 110.4772C430.99286 108.82034 432.336 107.4772 433.99286 107.4772C435.64972 107.4772 436.99286 108.82034 436.99286 110.4772Z" fill-rule="nonzero"/><path fill="#000000" fill-opacity="0.0" clip-path="url(#id_0)" d="M506.32144 95.43293C506.32144 97.08979 504.97827 98.43293 503.32144 98.43293C501.66458 98.43293 500.32144 97.08979 500.32144 95.43293C500.32144 93.77608 501.66458 92.43293 503.32144 92.43293C504.97827 92.43293 506.32144 93.77608 506.32144 95.43293Z" fill-rule="nonzero"/><path fill="#000000" fill-opacity="0.0" clip-path="url(#id_0)" d="M575.65 84.149734C575.65 85.80659 574.3069 87.149734 572.65 87.149734C570.99316 87.149734 569.65 85.80659 569.65 84.149734C569.65 82.49288 570.99316 81.149734 572.65 81.149734C574.3069 81.149734 575.65 82.49288 575.65 84.149734Z" fill-rule="nonzero"/><path fill="#000000" d="M281.92188 345.65L281.92188 337.05624L284.89062 337.05624Q285.89062 337.05624 286.42188 337.18124Q287.15625 337.35312 287.67188 337.79062Q288.35938 338.36874 288.6875 339.275Q289.03125 340.16562 289.03125 341.30624Q289.03125 342.29062 288.79688 343.04062Q288.57812 343.79062 288.21875 344.29062Q287.85938 344.79062 287.42188 345.07187Q287.0 345.35312 286.40625 345.50937Q285.8125 345.65 285.03125 345.65L281.92188 345.65ZM283.0625 344.63437L284.89062 344.63437Q285.75 344.63437 286.23438 344.47812Q286.71875 344.32187 287.0 344.025Q287.40625 343.63437 287.625 342.94687Q287.85938 342.25937 287.85938 341.29062Q287.85938 339.94687 287.40625 339.22812Q286.96875 338.49374 286.34375 338.24374Q285.875 338.07187 284.875 338.07187L283.0625 338.07187L283.0625 344.63437ZM297.0625 342.63437L298.1875 342.93124Q297.82812 344.32187 296.90625 345.05624Q295.98438 345.79062 294.64062 345.79062Q293.25 345.79062 292.375 345.22812Q291.5 344.66562 291.04688 343.60312Q290.59375 342.525 290.59375 341.29062Q290.59375 339.94687 291.10938 338.94687Q291.625 337.94687 292.5625 337.43124Q293.51562 336.91562 294.65625 336.91562Q295.9375 336.91562 296.8125 337.57187Q297.70312 338.22812 298.04688 339.41562L296.92188 339.68124Q296.625 338.74374 296.04688 338.32187Q295.48438 337.88437 294.625 337.88437Q293.64062 337.88437 292.96875 338.36874Q292.3125 338.8375 292.03125 339.63437Q291.76562 340.43124 291.76562 341.29062Q291.76562 342.38437 292.07812 343.19687Q292.40625 344.00937 293.07812 344.41562Q293.75 344.82187 294.54688 344.82187Q295.5 344.82187 296.15625 344.275Q296.82812 343.72812 297.0625 342.63437ZM305.375 345.65L302.04688 337.05624L303.28125 337.05624L305.51562 343.30624Q305.78125 344.05624 305.96875 344.7125Q306.17188 344.00937 306.4375 343.30624L308.75 337.05624L309.90625 337.05624L306.54688 345.65L305.375 345.65ZM309.40625 342.54062Q309.40625 340.80624 310.35938 339.97812Q311.15625 339.29062 312.3125 339.29062Q313.59375 339.29062 314.40625 340.13437Q315.23438 340.9625 315.23438 342.44687Q315.23438 343.65 314.875 344.3375Q314.51562 345.025 313.8125 345.41562Q313.125 345.79062 312.3125 345.79062Q311.01562 345.79062 310.20312 344.9625Q309.40625 344.11874 309.40625 342.54062ZM310.48438 342.54062Q310.48438 343.72812 311.0 344.32187Q311.53125 344.91562 312.3125 344.91562Q313.10938 344.91562 313.625 344.32187Q314.14062 343.72812 314.14062 342.50937Q314.14062 341.35312 313.60938 340.75937Q313.09375 340.16562 312.3125 340.16562Q311.53125 340.16562 311.0 340.75937Q310.48438 341.3375 310.48438 342.54062ZM316.76562 345.65L316.76562 337.05624L317.82812 337.05624L317.82812 345.65L316.76562 345.65ZM322.09375 344.7125L322.25 345.63437Q321.79688 345.72812 321.45312 345.72812Q320.875 345.72812 320.5625 345.55624Q320.25 345.36874 320.10938 345.07187Q319.98438 344.775 319.98438 343.82187L319.98438 340.24374L319.21875 340.24374L319.21875 339.43124L319.98438 339.43124L319.98438 337.88437L321.03125 337.25937L321.03125 339.43124L322.09375 339.43124L322.09375 340.24374L321.03125 340.24374L321.03125 343.88437Q321.03125 344.3375 321.07812 344.4625Q321.14062 344.5875 321.26562 344.66562Q321.39062 344.74374 321.625 344.74374Q321.8125 344.74374 322.09375 344.7125ZM326.85938 344.88437Q326.26562 345.38437 325.71875 345.5875Q325.1875 345.79062 324.5625 345.79062Q323.53125 345.79062 322.98438 345.29062Q322.4375 344.79062 322.4375 344.00937Q322.4375 343.55624 322.64062 343.18124Q322.84375 342.79062 323.1875 342.57187Q323.53125 342.3375 323.95312 342.22812Q324.25 342.13437 324.89062 342.05624Q326.15625 341.91562 326.76562 341.69687Q326.76562 341.47812 326.76562 341.43124Q326.76562 340.775 326.46875 340.50937Q326.0625 340.16562 325.26562 340.16562Q324.53125 340.16562 324.17188 340.43124Q323.8125 340.68124 323.64062 341.3375L322.60938 341.19687Q322.75 340.54062 323.07812 340.13437Q323.40625 339.72812 324.01562 339.50937Q324.625 339.29062 325.42188 339.29062Q326.21875 339.29062 326.71875 339.47812Q327.21875 339.66562 327.45312 339.94687Q327.6875 340.22812 327.78125 340.66562Q327.82812 340.93124 327.82812 341.63437L327.82812 343.04062Q327.82812 344.50937 327.89062 344.9Q327.96875 345.29062 328.17188 345.65L327.0625 345.65Q326.90625 345.32187 326.85938 344.88437ZM326.76562 342.525Q326.1875 342.75937 325.04688 342.93124Q324.39062 343.025 324.125 343.15Q323.85938 343.25937 323.70312 343.47812Q323.5625 343.69687 323.5625 343.97812Q323.5625 344.4 323.875 344.68124Q324.20312 344.9625 324.8125 344.9625Q325.42188 344.9625 325.89062 344.69687Q326.375 344.43124 326.59375 343.9625Q326.76562 343.60312 326.76562 342.91562L326.76562 342.525ZM329.59375 346.16562L330.625 346.32187Q330.6875 346.79062 330.98438 347.00937Q331.375 347.30624 332.04688 347.30624Q332.78125 347.30624 333.17188 347.00937Q333.57812 346.7125 333.71875 346.19687Q333.8125 345.86874 333.79688 344.8375Q333.10938 345.65 332.07812 345.65Q330.79688 345.65 330.09375 344.72812Q329.39062 343.79062 329.39062 342.50937Q329.39062 341.61874 329.70312 340.86874Q330.03125 340.10312 330.64062 339.69687Q331.25 339.29062 332.07812 339.29062Q333.1875 339.29062 333.90625 340.18124L333.90625 339.43124L334.875 339.43124L334.875 344.80624Q334.875 346.25937 334.57812 346.86874Q334.28125 347.47812 333.64062 347.82187Q333.0 348.18124 332.0625 348.18124Q330.95312 348.18124 330.26562 347.68124Q329.57812 347.18124 329.59375 346.16562ZM330.46875 342.43124Q330.46875 343.65 330.95312 344.2125Q331.4375 344.775 332.17188 344.775Q332.90625 344.775 333.39062 344.2125Q333.89062 343.65 333.89062 342.4625Q333.89062 341.32187 333.375 340.74374Q332.875 340.16562 332.15625 340.16562Q331.45312 340.16562 330.95312 340.74374Q330.46875 341.30624 330.46875 342.43124ZM341.04688 343.65L342.14062 343.775Q341.89062 344.72812 341.1875 345.25937Q340.48438 345.79062 339.40625 345.79062Q338.04688 345.79062 337.23438 344.94687Q336.4375 344.10312 336.4375 342.5875Q336.4375 341.025 337.25 340.16562Q338.0625 339.29062 339.34375 339.29062Q340.59375 339.29062 341.375 340.13437Q342.17188 340.97812 342.17188 342.525Q342.17188 342.61874 342.17188 342.80624L337.53125 342.80624Q337.59375 343.8375 338.10938 344.38437Q338.625 344.91562 339.40625 344.91562Q339.98438 344.91562 340.39062 344.61874Q340.8125 344.30624 341.04688 343.65ZM337.59375 341.94687L341.0625 341.94687Q341.0 341.15 340.67188 340.75937Q340.15625 340.15 339.35938 340.15Q338.625 340.15 338.125 340.63437Q337.64062 341.11874 337.59375 341.94687ZM346.8125 348.04062L346.8125 337.05624L349.14062 337.05624L349.14062 337.93124L347.875 337.93124L347.875 347.16562L349.14062 347.16562L349.14062 348.04062L346.8125 348.04062ZM352.375 345.65L349.04688 337.05624L350.28125 337.05624L352.51562 343.30624Q352.78125 344.05624 352.96875 344.7125Q353.17188 344.00937 353.4375 343.30624L355.75 337.05624L356.90625 337.05624L353.54688 345.65L352.375 345.65ZM356.40625 342.54062Q356.40625 340.80624 357.35938 339.97812Q358.15625 339.29062 359.3125 339.29062Q360.59375 339.29062 361.40625 340.13437Q362.23438 340.9625 362.23438 342.44687Q362.23438 343.65 361.875 344.3375Q361.51562 345.025 360.8125 345.41562Q360.125 345.79062 359.3125 345.79062Q358.01562 345.79062 357.20312 344.9625Q356.40625 344.11874 356.40625 342.54062ZM357.48438 342.54062Q357.48438 343.72812 358.0 344.32187Q358.53125 344.91562 359.3125 344.91562Q360.10938 344.91562 360.625 344.32187Q361.14062 343.72812 361.14062 342.50937Q361.14062 341.35312 360.60938 340.75937Q360.09375 340.16562 359.3125 340.16562Q358.53125 340.16562 358.0 340.75937Q357.48438 341.3375 357.48438 342.54062ZM363.76562 345.65L363.76562 337.05624L364.82812 337.05624L364.82812 345.65L363.76562 345.65ZM369.09375 344.7125L369.25 345.63437Q368.79688 345.72812 368.45312 345.72812Q367.875 345.72812 367.5625 345.55624Q367.25 345.36874 367.10938 345.07187Q366.98438 344.775 366.98438 343.82187L366.98438 340.24374L366.21875 340.24374L366.21875 339.43124L366.98438 339.43124L366.98438 337.88437L368.03125 337.25937L368.03125 339.43124L369.09375 339.43124L369.09375 340.24374L368.03125 340.24374L368.03125 343.88437Q368.03125 344.3375 368.07812 344.4625Q368.14062 344.5875 368.26562 344.66562Q368.39062 344.74374 368.625 344.74374Q368.8125 344.74374 369.09375 344.7125ZM369.375 343.79062L370.40625 343.63437Q370.5 344.25937 370.89062 344.5875Q371.29688 344.91562 372.03125 344.91562Q372.75 344.91562 373.09375 344.63437Q373.45312 344.3375 373.45312 343.93124Q373.45312 343.57187 373.14062 343.36874Q372.92188 343.22812 372.0625 343.00937Q370.90625 342.7125 370.45312 342.50937Q370.01562 342.29062 369.78125 341.91562Q369.54688 341.54062 369.54688 341.07187Q369.54688 340.66562 369.73438 340.30624Q369.92188 339.94687 370.25 339.7125Q370.5 339.54062 370.92188 339.41562Q371.34375 339.29062 371.84375 339.29062Q372.5625 339.29062 373.10938 339.50937Q373.67188 339.7125 373.9375 340.07187Q374.20312 340.43124 374.29688 341.025L373.26562 341.16562Q373.20312 340.69687 372.85938 340.43124Q372.53125 340.15 371.90625 340.15Q371.1875 340.15 370.875 340.4Q370.5625 340.63437 370.5625 340.9625Q370.5625 341.16562 370.6875 341.32187Q370.82812 341.49374 371.09375 341.60312Q371.25 341.66562 372.03125 341.86874Q373.15625 342.18124 373.59375 342.36874Q374.03125 342.55624 374.28125 342.91562Q374.53125 343.275 374.53125 343.82187Q374.53125 344.35312 374.21875 344.82187Q373.92188 345.275 373.34375 345.54062Q372.76562 345.79062 372.03125 345.79062Q370.8125 345.79062 370.17188 345.29062Q369.54688 344.775 369.375 343.79062ZM378.5625 348.04062L376.23438 348.04062L376.23438 347.16562L377.5 347.16562L377.5 337.93124L376.23438 337.93124L376.23438 337.05624L378.5625 337.05624L378.5625 348.04062Z" fill-rule="nonzero"/><path fill="#000000" d="M26.33437 247.55417L26.631245 246.42917Q28.02187 246.78854 28.756245 247.71042Q29.49062 248.6323 29.49062 249.97604Q29.49062 251.36667 28.92812 252.24167Q28.36562 253.11667 27.30312 253.5698Q26.224995 254.02292 24.99062 254.02292Q23.64687 254.02292 22.64687 253.5073Q21.64687 252.99167 21.131245 252.05417Q20.61562 251.10104 20.61562 249.96042Q20.61562 248.67917 21.27187 247.80417Q21.92812 246.91354 23.11562 246.5698L23.381245 247.6948Q22.443745 247.99167 22.02187 248.5698Q21.58437 249.1323 21.58437 249.99167Q21.58437 250.97604 22.068745 251.64792Q22.537495 252.30417 23.33437 252.58542Q24.131245 252.85104 24.99062 252.85104Q26.08437 252.85104 26.89687 252.53854Q27.70937 252.21042 28.11562 251.53854Q28.52187 250.86667 28.52187 250.0698Q28.52187 249.11667 27.974995 248.46042Q27.42812 247.78854 26.33437 247.55417ZM29.349995 240.74167L28.42812 240.74167Q29.49062 241.47604 29.49062 242.72604Q29.49062 243.27292 29.287495 243.7573Q29.068745 244.22604 28.756245 244.46042Q28.42812 244.6948 27.95937 244.78854Q27.662495 244.85104 26.974995 244.85104L23.131245 244.85104L23.131245 243.78854L26.58437 243.78854Q27.39687 243.78854 27.693745 243.72604Q28.099995 243.6323 28.349995 243.3198Q28.58437 242.99167 28.58437 242.5073Q28.58437 242.03854 28.349995 241.6323Q28.099995 241.21042 27.67812 241.03854Q27.256245 240.85104 26.45937 240.85104L23.131245 240.85104L23.131245 239.80417L29.349995 239.80417L29.349995 240.74167ZM29.349995 237.83542L23.131245 237.83542L23.131245 236.8823L24.068745 236.8823Q23.412495 236.52292 23.20937 236.22604Q22.99062 235.91354 22.99062 235.53854Q22.99062 235.0073 23.318745 234.46042L24.30312 234.8198Q24.068745 235.21042 24.068745 235.58542Q24.068745 235.9448 24.287495 236.22604Q24.49062 236.49167 24.86562 236.60104Q25.42812 236.78854 26.08437 236.78854L29.349995 236.78854L29.349995 237.83542ZM29.349995 233.83542L23.131245 233.83542L23.131245 232.8823L24.068745 232.8823Q23.412495 232.52292 23.20937 232.22604Q22.99062 231.91354 22.99062 231.53854Q22.99062 231.0073 23.318745 230.46042L24.30312 230.8198Q24.068745 231.21042 24.068745 231.58542Q24.068745 231.9448 24.287495 232.22604Q24.49062 232.49167 24.86562 232.60104Q25.42812 232.78854 26.08437 232.78854L29.349995 232.78854L29.349995 233.83542ZM27.349995 225.5698L27.474995 224.47604Q28.42812 224.72604 28.95937 225.42917Q29.49062 226.1323 29.49062 227.21042Q29.49062 228.5698 28.64687 229.3823Q27.80312 230.17917 26.287495 230.17917Q24.724995 230.17917 23.86562 229.36667Q22.99062 228.55417 22.99062 227.27292Q22.99062 226.02292 23.83437 225.24167Q24.67812 224.4448 26.224995 224.4448Q26.318745 224.4448 26.506245 224.4448L26.506245 229.08542Q27.537495 229.02292 28.08437 228.5073Q28.61562 227.99167 28.61562 227.21042Q28.61562 226.6323 28.318745 226.22604Q28.006245 225.80417 27.349995 225.5698ZM25.64687 229.02292L25.64687 225.55417Q24.849995 225.61667 24.45937 225.9448Q23.849995 226.46042 23.849995 227.2573Q23.849995 227.99167 24.33437 228.49167Q24.818745 228.97604 25.64687 229.02292ZM29.349995 222.8198L23.131245 222.8198L23.131245 221.8823L24.006245 221.8823Q22.99062 221.1948 22.99062 219.89792Q22.99062 219.33542 23.193745 218.86667Q23.39687 218.3823 23.724995 218.14792Q24.05312 217.91354 24.49062 217.8198Q24.787495 217.77292 25.52187 217.77292L29.349995 217.77292L29.349995 218.8198L25.568745 218.8198Q24.912495 218.8198 24.599995 218.9448Q24.287495 219.0698 24.099995 219.3823Q23.89687 219.6948 23.89687 220.11667Q23.89687 220.78854 24.33437 221.28854Q24.756245 221.77292 25.943745 221.77292L29.349995 221.77292L29.349995 222.8198ZM28.412495 213.52292L29.33437 213.36667Q29.42812 213.8198 29.42812 214.16354Q29.42812 214.74167 29.256245 215.05417Q29.068745 215.36667 28.77187 215.5073Q28.474995 215.6323 27.52187 215.6323L23.943745 215.6323L23.943745 216.39792L23.131245 216.39792L23.131245 215.6323L21.58437 215.6323L20.95937 214.58542L23.131245 214.58542L23.131245 213.52292L23.943745 213.52292L23.943745 214.58542L27.58437 214.58542Q28.037495 214.58542 28.162495 214.53854Q28.287495 214.47604 28.36562 214.35104Q28.443745 214.22604 28.443745 213.99167Q28.443745 213.80417 28.412495 213.52292ZM29.349995 208.67917L23.131245 210.58542L23.131245 209.49167L26.724995 208.5073L28.05312 208.1323Q27.95937 208.10104 26.77187 207.80417L23.131245 206.8198L23.131245 205.74167L26.74062 204.80417L27.92812 204.49167L26.724995 204.1323L23.131245 203.0698L23.131245 202.03854L29.349995 203.99167L29.349995 205.08542L25.61562 206.0698L24.568745 206.3198L29.349995 207.5698L29.349995 208.67917ZM21.974995 200.8198L20.756245 200.8198L20.756245 199.7573L21.974995 199.7573L21.974995 200.8198ZM29.349995 200.8198L23.131245 200.8198L23.131245 199.7573L29.349995 199.7573L29.349995 200.8198ZM28.412495 195.52292L29.33437 195.36667Q29.42812 195.8198 29.42812 196.16354Q29.42812 196.74167 29.256245 197.05417Q29.068745 197.36667 28.77187 197.5073Q28.474995 197.6323 27.52187 197.6323L23.943745 197.6323L23.943745 198.39792L23.131245 198.39792L23.131245 197.6323L21.58437 197.6323L20.95937 196.58542L23.131245 196.58542L23.131245 195.52292L23.943745 195.52292L23.943745 196.58542L27.58437 196.58542Q28.037495 196.58542 28.162495 196.53854Q28.287495 196.47604 28.36562 196.35104Q28.443745 196.22604 28.443745 195.99167Q28.443745 195.80417 28.412495 195.52292ZM29.349995 194.8198L20.756245 194.8198L20.756245 193.77292L23.83437 193.77292Q22.99062 193.03854 22.99062 191.91354Q22.99062 191.21042 23.27187 190.71042Q23.537495 190.1948 24.02187 189.97604Q24.49062 189.7573 25.412495 189.7573L29.349995 189.7573L29.349995 190.80417L25.412495 190.80417Q24.61562 190.80417 24.256245 191.14792Q23.89687 191.49167 23.89687 192.11667Q23.89687 192.58542 24.14687 193.0073Q24.381245 193.41354 24.80312 193.60104Q25.20937 193.77292 25.943745 193.77292L29.349995 193.77292L29.349995 194.8198ZM29.349995 184.85104L20.756245 184.85104L20.756245 183.78854L29.349995 183.78854L29.349995 184.85104ZM28.58437 177.7573Q29.08437 178.35104 29.287495 178.89792Q29.49062 179.42917 29.49062 180.05417Q29.49062 181.08542 28.99062 181.6323Q28.49062 182.17917 27.70937 182.17917Q27.256245 182.17917 26.881245 181.97604Q26.49062 181.77292 26.27187 181.42917Q26.037495 181.08542 25.92812 180.66354Q25.83437 180.36667 25.756245 179.72604Q25.61562 178.46042 25.39687 177.85104Q25.17812 177.85104 25.131245 177.85104Q24.474995 177.85104 24.20937 178.14792Q23.86562 178.55417 23.86562 179.35104Q23.86562 180.08542 24.131245 180.4448Q24.381245 180.80417 25.037495 180.97604L24.89687 182.0073Q24.24062 181.86667 23.83437 181.53854Q23.42812 181.21042 23.20937 180.60104Q22.99062 179.99167 22.99062 179.1948Q22.99062 178.39792 23.17812 177.89792Q23.36562 177.39792 23.64687 177.16354Q23.92812 176.92917 24.36562 176.83542Q24.631245 176.78854 25.33437 176.78854L26.74062 176.78854Q28.20937 176.78854 28.599995 176.72604Q28.99062 176.64792 29.349995 176.4448L29.349995 177.55417Q29.02187 177.71042 28.58437 177.7573ZM26.224995 177.85104Q26.45937 178.42917 26.631245 179.5698Q26.724995 180.22604 26.849995 180.49167Q26.95937 180.7573 27.17812 180.91354Q27.39687 181.05417 27.67812 181.05417Q28.099995 181.05417 28.381245 180.74167Q28.662495 180.41354 28.662495 179.80417Q28.662495 179.1948 28.39687 178.72604Q28.131245 178.24167 27.662495 178.02292Q27.30312 177.85104 26.61562 177.85104L26.224995 177.85104ZM29.349995 174.8198L23.131245 174.8198L23.131245 173.8823L24.006245 173.8823Q23.537495 173.58542 23.27187 173.10104Q22.99062 172.61667 22.99062 171.99167Q22.99062 171.30417 23.27187 170.86667Q23.55312 170.41354 24.068745 170.24167Q22.99062 169.49167 22.99062 168.3198Q22.99062 167.3823 23.506245 166.89792Q24.006245 166.39792 25.08437 166.39792L29.349995 166.39792L29.349995 167.4448L25.42812 167.4448Q24.80312 167.4448 24.52187 167.55417Q24.24062 167.64792 24.068745 167.91354Q23.89687 168.17917 23.89687 168.55417Q23.89687 169.21042 24.33437 169.64792Q24.77187 170.0698 25.74062 170.0698L29.349995 170.0698L29.349995 171.1323L25.30312 171.1323Q24.599995 171.1323 24.256245 171.39792Q23.89687 171.64792 23.89687 172.22604Q23.89687 172.67917 24.131245 173.05417Q24.36562 173.42917 24.818745 173.60104Q25.27187 173.77292 26.11562 173.77292L29.349995 173.77292L29.349995 174.8198ZM31.74062 163.8198L23.131245 163.8198L23.131245 162.86667L23.92812 162.86667Q23.45937 162.52292 23.224995 162.10104Q22.99062 161.66354 22.99062 161.05417Q22.99062 160.2573 23.39687 159.64792Q23.80312 159.03854 24.55312 158.74167Q25.30312 158.42917 26.193745 158.42917Q27.14687 158.42917 27.912495 158.77292Q28.67812 159.10104 29.08437 159.7573Q29.49062 160.41354 29.49062 161.1323Q29.49062 161.66354 29.27187 162.08542Q29.037495 162.5073 28.70937 162.77292L31.74062 162.77292L31.74062 163.8198ZM26.27187 162.86667Q27.474995 162.86667 28.05312 162.3823Q28.61562 161.89792 28.61562 161.21042Q28.61562 160.5073 28.02187 160.0073Q27.42812 159.5073 26.17812 159.5073Q24.99062 159.5073 24.412495 159.99167Q23.818745 160.47604 23.818745 161.16354Q23.818745 161.83542 24.443745 162.35104Q25.068745 162.86667 26.27187 162.86667ZM31.74062 153.80417L20.756245 153.80417L20.756245 151.47604L21.631245 151.47604L21.631245 152.74167L30.86562 152.74167L30.86562 151.47604L31.74062 151.47604L31.74062 153.80417ZM29.349995 151.6323L20.756245 148.33542L20.756245 147.11667L29.349995 143.60104L29.349995 144.8823L26.74062 145.89792L26.74062 149.47604L29.349995 150.42917L29.349995 151.6323ZM25.818745 149.14792L25.818745 146.24167L23.443745 147.1323Q22.36562 147.55417 21.662495 147.74167Q22.49062 147.91354 23.30312 148.21042L25.818745 149.14792ZM29.349995 143.8198L23.131245 143.8198L23.131245 142.8823L24.006245 142.8823Q23.537495 142.58542 23.27187 142.10104Q22.99062 141.61667 22.99062 140.99167Q22.99062 140.30417 23.27187 139.86667Q23.55312 139.41354 24.068745 139.24167Q22.99062 138.49167 22.99062 137.3198Q22.99062 136.3823 23.506245 135.89792Q24.006245 135.39792 25.08437 135.39792L29.349995 135.39792L29.349995 136.4448L25.42812 136.4448Q24.80312 136.4448 24.52187 136.55417Q24.24062 136.64792 24.068745 136.91354Q23.89687 137.17917 23.89687 137.55417Q23.89687 138.21042 24.33437 138.64792Q24.77187 139.0698 25.74062 139.0698L29.349995 139.0698L29.349995 140.1323L25.30312 140.1323Q24.599995 140.1323 24.256245 140.39792Q23.89687 140.64792 23.89687 141.22604Q23.89687 141.67917 24.131245 142.05417Q24.36562 142.42917 24.818745 142.60104Q25.27187 142.77292 26.11562 142.77292L29.349995 142.77292L29.349995 143.8198ZM31.74062 132.8198L23.131245 132.8198L23.131245 131.86667L23.92812 131.86667Q23.45937 131.52292 23.224995 131.10104Q22.99062 130.66354 22.99062 130.05417Q22.99062 129.2573 23.39687 128.64792Q23.80312 128.03854 24.55312 127.74167Q25.30312 127.42917 26.193745 127.42917Q27.14687 127.42917 27.912495 127.77292Q28.67812 128.10104 29.08437 128.7573Q29.49062 129.41354 29.49062 130.1323Q29.49062 130.66354 29.27187 131.08542Q29.037495 131.5073 28.70937 131.77292L31.74062 131.77292L31.74062 132.8198ZM26.27187 131.86667Q27.474995 131.86667 28.05312 131.3823Q28.61562 130.89792 28.61562 130.21042Q28.61562 129.5073 28.02187 129.0073Q27.42812 128.5073 26.17812 128.5073Q24.99062 128.5073 24.412495 128.99167Q23.818745 129.47604 23.818745 130.16354Q23.818745 130.83542 24.443745 131.35104Q25.068745 131.86667 26.27187 131.86667ZM27.49062 126.24167L27.33437 125.21042Q27.95937 125.11667 28.287495 124.72604Q28.61562 124.31979 28.61562 123.58542Q28.61562 122.86667 28.33437 122.52292Q28.037495 122.16354 27.631245 122.16354Q27.27187 122.16354 27.068745 122.47604Q26.92812 122.69479 26.70937 123.55417Q26.412495 124.71042 26.20937 125.16354Q25.99062 125.60104 25.61562 125.83542Q25.24062 126.06979 24.77187 126.06979Q24.36562 126.06979 24.006245 125.88229Q23.64687 125.69479 23.412495 125.36667Q23.24062 125.11667 23.11562 124.69479Q22.99062 124.27292 22.99062 123.77292Q22.99062 123.05417 23.20937 122.50729Q23.412495 121.94479 23.77187 121.67917Q24.131245 121.41354 24.724995 121.31979L24.86562 122.35104Q24.39687 122.41354 24.131245 122.75729Q23.849995 123.08542 23.849995 123.71042Q23.849995 124.42917 24.099995 124.74167Q24.33437 125.05417 24.662495 125.05417Q24.86562 125.05417 25.02187 124.92917Q25.193745 124.78854 25.30312 124.52292Q25.36562 124.36667 25.568745 123.58542Q25.881245 122.46042 26.068745 122.02292Q26.256245 121.58542 26.61562 121.33542Q26.974995 121.08542 27.52187 121.08542Q28.05312 121.08542 28.52187 121.39792Q28.974995 121.69479 29.24062 122.27292Q29.49062 122.85104 29.49062 123.58542Q29.49062 124.80417 28.99062 125.44479Q28.474995 126.06979 27.49062 126.24167ZM31.74062 117.05417L31.74062 119.38229L30.86562 119.38229L30.86562 118.11667L21.631245 118.11667L21.631245 119.38229L20.756245 119.38229L20.756245 117.05417L31.74062 117.05417Z" fill-rule="nonzero"/><path fill="#000000" d="M50.85 296.41562Q50.85 294.88437 51.1625 293.9625Q51.475 293.025 52.084373 292.525Q52.709373 292.025 53.646873 292.025Q54.334373 292.025 54.85 292.30624Q55.38125 292.5875 55.725 293.11874Q56.06875 293.63437 56.25625 294.38437Q56.44375 295.13437 56.44375 296.41562Q56.44375 297.93124 56.13125 298.85312Q55.834373 299.775 55.209373 300.29062Q54.6 300.79062 53.646873 300.79062Q52.4125 300.79062 51.69375 299.9Q50.85 298.8375 50.85 296.41562ZM51.928123 296.41562Q51.928123 298.525 52.428123 299.22812Q52.928123 299.93124 53.646873 299.93124Q54.38125 299.93124 54.865623 299.22812Q55.365623 298.525 55.365623 296.41562Q55.365623 294.29062 54.865623 293.60312Q54.38125 292.9 53.63125 292.9Q52.9125 292.9 52.475 293.50937Q51.928123 294.29062 51.928123 296.41562ZM58.44375 300.65L58.44375 299.44687L59.646873 299.44687L59.646873 300.65L58.44375 300.65ZM60.85 296.41562Q60.85 294.88437 61.1625 293.9625Q61.475 293.025 62.084373 292.525Q62.709373 292.025 63.646873 292.025Q64.33437 292.025 64.85 292.30624Q65.38125 292.5875 65.725 293.11874Q66.06875 293.63437 66.25625 294.38437Q66.44375 295.13437 66.44375 296.41562Q66.44375 297.93124 66.13125 298.85312Q65.83437 299.775 65.20937 300.29062Q64.6 300.79062 63.646873 300.79062Q62.4125 300.79062 61.69375 299.9Q60.85 298.8375 60.85 296.41562ZM61.928123 296.41562Q61.928123 298.525 62.428123 299.22812Q62.928123 299.93124 63.646873 299.93124Q64.38125 299.93124 64.86562 299.22812Q65.36562 298.525 65.36562 296.41562Q65.36562 294.29062 64.86562 293.60312Q64.38125 292.9 63.63125 292.9Q62.9125 292.9 62.475 293.50937Q61.928123 294.29062 61.928123 296.41562ZM67.85 296.41562Q67.85 294.88437 68.1625 293.9625Q68.475 293.025 69.08437 292.525Q69.70937 292.025 70.64687 292.025Q71.33437 292.025 71.85 292.30624Q72.38125 292.5875 72.725 293.11874Q73.06875 293.63437 73.25625 294.38437Q73.44375 295.13437 73.44375 296.41562Q73.44375 297.93124 73.13125 298.85312Q72.83437 299.775 72.20937 300.29062Q71.6 300.79062 70.64687 300.79062Q69.4125 300.79062 68.69375 299.9Q67.85 298.8375 67.85 296.41562ZM68.92812 296.41562Q68.92812 298.525 69.42812 299.22812Q69.92812 299.93124 70.64687 299.93124Q71.38125 299.93124 71.86562 299.22812Q72.36562 298.525 72.36562 296.41562Q72.36562 294.29062 71.86562 293.60312Q71.38125 292.9 70.63125 292.9Q69.9125 292.9 69.475 293.50937Q68.92812 294.29062 68.92812 296.41562ZM74.85 296.41562Q74.85 294.88437 75.1625 293.9625Q75.475 293.025 76.08437 292.525Q76.70937 292.025 77.64687 292.025Q78.33437 292.025 78.85 292.30624Q79.38125 292.5875 79.725 293.11874Q80.06875 293.63437 80.25625 294.38437Q80.44375 295.13437 80.44375 296.41562Q80.44375 297.93124 80.13125 298.85312Q79.83437 299.775 79.20937 300.29062Q78.6 300.79062 77.64687 300.79062Q76.4125 300.79062 75.69375 299.9Q74.85 298.8375 74.85 296.41562ZM75.92812 296.41562Q75.92812 298.525 76.42812 299.22812Q76.92812 299.93124 77.64687 299.93124Q78.38125 299.93124 78.86562 299.22812Q79.36562 298.525 79.36562 296.41562Q79.36562 294.29062 78.86562 293.60312Q78.38125 292.9 77.63125 292.9Q76.9125 292.9 76.475 293.50937Q75.92812 294.29062 75.92812 296.41562Z" fill-rule="nonzero"/><path fill="#000000" d="M50.85 249.4023Q50.85 247.87105 51.1625 246.94917Q51.475 246.01167 52.084373 245.51167Q52.709373 245.01167 53.646873 245.01167Q54.334373 245.01167 54.85 245.29292Q55.38125 245.57417 55.725 246.10542Q56.06875 246.62105 56.25625 247.37105Q56.44375 248.12105 56.44375 249.4023Q56.44375 250.91792 56.13125 251.8398Q55.834373 252.76167 55.209373 253.2773Q54.6 253.7773 53.646873 253.7773Q52.4125 253.7773 51.69375 252.88667Q50.85 251.82417 50.85 249.4023ZM51.928123 249.4023Q51.928123 251.51167 52.428123 252.2148Q52.928123 252.91792 53.646873 252.91792Q54.38125 252.91792 54.865623 252.2148Q55.365623 251.51167 55.365623 249.4023Q55.365623 247.2773 54.865623 246.5898Q54.38125 245.88667 53.63125 245.88667Q52.9125 245.88667 52.475 246.49605Q51.928123 247.2773 51.928123 249.4023ZM58.44375 253.63667L58.44375 252.43355L59.646873 252.43355L59.646873 253.63667L58.44375 253.63667ZM60.85 249.4023Q60.85 247.87105 61.1625 246.94917Q61.475 246.01167 62.084373 245.51167Q62.709373 245.01167 63.646873 245.01167Q64.33437 245.01167 64.85 245.29292Q65.38125 245.57417 65.725 246.10542Q66.06875 246.62105 66.25625 247.37105Q66.44375 248.12105 66.44375 249.4023Q66.44375 250.91792 66.13125 251.8398Q65.83437 252.76167 65.20937 253.2773Q64.6 253.7773 63.646873 253.7773Q62.4125 253.7773 61.69375 252.88667Q60.85 251.82417 60.85 249.4023ZM61.928123 249.4023Q61.928123 251.51167 62.428123 252.2148Q62.928123 252.91792 63.646873 252.91792Q64.38125 252.91792 64.86562 252.2148Q65.36562 251.51167 65.36562 249.4023Q65.36562 247.2773 64.86562 246.5898Q64.38125 245.88667 63.63125 245.88667Q62.9125 245.88667 62.475 246.49605Q61.928123 247.2773 61.928123 249.4023ZM73.39687 252.62105L73.39687 253.63667L67.70937 253.63667Q67.70937 253.26167 67.83437 252.9023Q68.05312 252.32417 68.52187 251.76167Q69.00625 251.19917 69.9125 250.4648Q71.31875 249.30855 71.80312 248.63667Q72.30312 247.9648 72.30312 247.37105Q72.30312 246.74605 71.85 246.32417Q71.39687 245.88667 70.67812 245.88667Q69.9125 245.88667 69.45937 246.3398Q69.00625 246.79292 68.99062 247.60542L67.9125 247.49605Q68.02187 246.2773 68.74062 245.6523Q69.475 245.01167 70.70937 245.01167Q71.94375 245.01167 72.6625 245.69917Q73.38125 246.38667 73.38125 247.4023Q73.38125 247.91792 73.1625 248.41792Q72.95937 248.9023 72.45937 249.4648Q71.975 250.01167 70.85 250.9648Q69.89687 251.76167 69.61562 252.05855Q69.35 252.3398 69.17812 252.62105L73.39687 252.62105ZM74.85 251.38667L75.95937 251.29292Q76.08437 252.10542 76.52187 252.51167Q76.975 252.91792 77.61562 252.91792Q78.36562 252.91792 78.89687 252.3398Q79.42812 251.76167 79.42812 250.82417Q79.42812 249.91792 78.9125 249.4023Q78.4125 248.87105 77.58437 248.87105Q77.08437 248.87105 76.6625 249.10542Q76.25625 249.3398 76.02187 249.69917L75.0375 249.57417L75.86562 245.16792L80.14687 245.16792L80.14687 246.16792L76.70937 246.16792L76.25625 248.48042Q77.02187 247.93355 77.86562 247.93355Q78.99062 247.93355 79.75625 248.7148Q80.5375 249.49605 80.5375 250.73042Q80.5375 251.88667 79.86562 252.74605Q79.0375 253.7773 77.61562 253.7773Q76.44375 253.7773 75.69375 253.12105Q74.95937 252.4648 74.85 251.38667Z" fill-rule="nonzero"/><path fill="#000000" d="M50.85 202.38896Q50.85 200.85771 51.1625 199.93584Q51.475 198.99834 52.084373 198.49834Q52.709373 197.99834 53.646873 197.99834Q54.334373 197.99834 54.85 198.27959Q55.38125 198.56084 55.725 199.09209Q56.06875 199.60771 56.25625 200.35771Q56.44375 201.10771 56.44375 202.38896Q56.44375 203.90459 56.13125 204.82646Q55.834373 205.74834 55.209373 206.26396Q54.6 206.76396 53.646873 206.76396Q52.4125 206.76396 51.69375 205.87334Q50.85 204.81084 50.85 202.38896ZM51.928123 202.38896Q51.928123 204.49834 52.428123 205.20146Q52.928123 205.90459 53.646873 205.90459Q54.38125 205.90459 54.865623 205.20146Q55.365623 204.49834 55.365623 202.38896Q55.365623 200.26396 54.865623 199.57646Q54.38125 198.87334 53.63125 198.87334Q52.9125 198.87334 52.475 199.48271Q51.928123 200.26396 51.928123 202.38896ZM58.44375 206.62334L58.44375 205.42021L59.646873 205.42021L59.646873 206.62334L58.44375 206.62334ZM60.85 202.38896Q60.85 200.85771 61.1625 199.93584Q61.475 198.99834 62.084373 198.49834Q62.709373 197.99834 63.646873 197.99834Q64.33437 197.99834 64.85 198.27959Q65.38125 198.56084 65.725 199.09209Q66.06875 199.60771 66.25625 200.35771Q66.44375 201.10771 66.44375 202.38896Q66.44375 203.90459 66.13125 204.82646Q65.83437 205.74834 65.20937 206.26396Q64.6 206.76396 63.646873 206.76396Q62.4125 206.76396 61.69375 205.87334Q60.85 204.81084 60.85 202.38896ZM61.928123 202.38896Q61.928123 204.49834 62.428123 205.20146Q62.928123 205.90459 63.646873 205.90459Q64.38125 205.90459 64.86562 205.20146Q65.36562 204.49834 65.36562 202.38896Q65.36562 200.26396 64.86562 199.57646Q64.38125 198.87334 63.63125 198.87334Q62.9125 198.87334 62.475 199.48271Q61.928123 200.26396 61.928123 202.38896ZM67.85 204.37334L68.95937 204.27959Q69.08437 205.09209 69.52187 205.49834Q69.975 205.90459 70.61562 205.90459Q71.36562 205.90459 71.89687 205.32646Q72.42812 204.74834 72.42812 203.81084Q72.42812 202.90459 71.9125 202.38896Q71.4125 201.85771 70.58437 201.85771Q70.08437 201.85771 69.6625 202.09209Q69.25625 202.32646 69.02187 202.68584L68.0375 202.56084L68.86562 198.15459L73.14687 198.15459L73.14687 199.15459L69.70937 199.15459L69.25625 201.46709Q70.02187 200.92021 70.86562 200.92021Q71.99062 200.92021 72.75625 201.70146Q73.5375 202.48271 73.5375 203.71709Q73.5375 204.87334 72.86562 205.73271Q72.0375 206.76396 70.61562 206.76396Q69.44375 206.76396 68.69375 206.10771Q67.95937 205.45146 67.85 204.37334ZM74.85 202.38896Q74.85 200.85771 75.1625 199.93584Q75.475 198.99834 76.08437 198.49834Q76.70937 197.99834 77.64687 197.99834Q78.33437 197.99834 78.85 198.27959Q79.38125 198.56084 79.725 199.09209Q80.06875 199.60771 80.25625 200.35771Q80.44375 201.10771 80.44375 202.38896Q80.44375 203.90459 80.13125 204.82646Q79.83437 205.74834 79.20937 206.26396Q78.6 206.76396 77.64687 206.76396Q76.4125 206.76396 75.69375 205.87334Q74.85 204.81084 74.85 202.38896ZM75.92812 202.38896Q75.92812 204.49834 76.42812 205.20146Q76.92812 205.90459 77.64687 205.90459Q78.38125 205.90459 78.86562 205.20146Q79.36562 204.49834 79.36562 202.38896Q79.36562 200.26396 78.86562 199.57646Q78.38125 198.87334 77.63125 198.87334Q76.9125 198.87334 76.475 199.48271Q75.92812 200.26396 75.92812 202.38896Z" fill-rule="nonzero"/><path fill="#000000" d="M50.85 155.37563Q50.85 153.84438 51.1625 152.9225Q51.475 151.985 52.084373 151.485Q52.709373 150.985 53.646873 150.985Q54.334373 150.985 54.85 151.26625Q55.38125 151.5475 55.725 152.07875Q56.06875 152.59438 56.25625 153.34438Q56.44375 154.09438 56.44375 155.37563Q56.44375 156.89125 56.13125 157.81313Q55.834373 158.735 55.209373 159.25063Q54.6 159.75063 53.646873 159.75063Q52.4125 159.75063 51.69375 158.86Q50.85 157.7975 50.85 155.37563ZM51.928123 155.37563Q51.928123 157.485 52.428123 158.18813Q52.928123 158.89125 53.646873 158.89125Q54.38125 158.89125 54.865623 158.18813Q55.365623 157.485 55.365623 155.37563Q55.365623 153.25063 54.865623 152.56313Q54.38125 151.86 53.63125 151.86Q52.9125 151.86 52.475 152.46938Q51.928123 153.25063 51.928123 155.37563ZM58.44375 159.61L58.44375 158.40688L59.646873 158.40688L59.646873 159.61L58.44375 159.61ZM60.85 155.37563Q60.85 153.84438 61.1625 152.9225Q61.475 151.985 62.084373 151.485Q62.709373 150.985 63.646873 150.985Q64.33437 150.985 64.85 151.26625Q65.38125 151.5475 65.725 152.07875Q66.06875 152.59438 66.25625 153.34438Q66.44375 154.09438 66.44375 155.37563Q66.44375 156.89125 66.13125 157.81313Q65.83437 158.735 65.20937 159.25063Q64.6 159.75063 63.646873 159.75063Q62.4125 159.75063 61.69375 158.86Q60.85 157.7975 60.85 155.37563ZM61.928123 155.37563Q61.928123 157.485 62.428123 158.18813Q62.928123 158.89125 63.646873 158.89125Q64.38125 158.89125 64.86562 158.18813Q65.36562 157.485 65.36562 155.37563Q65.36562 153.25063 64.86562 152.56313Q64.38125 151.86 63.63125 151.86Q62.9125 151.86 62.475 152.46938Q61.928123 153.25063 61.928123 155.37563ZM67.9125 152.14125L67.9125 151.12563L73.475 151.12563L73.475 151.95375Q72.6625 152.82875 71.85 154.28188Q71.05312 155.71938 70.61562 157.25063Q70.2875 158.32875 70.20937 159.61L69.11562 159.61Q69.13125 158.59438 69.50625 157.15688Q69.89687 155.71938 70.6 154.39125Q71.31875 153.06313 72.13125 152.14125L67.9125 152.14125ZM74.85 157.36L75.95937 157.26625Q76.08437 158.07875 76.52187 158.485Q76.975 158.89125 77.61562 158.89125Q78.36562 158.89125 78.89687 158.31313Q79.42812 157.735 79.42812 156.7975Q79.42812 155.89125 78.9125 155.37563Q78.4125 154.84438 77.58437 154.84438Q77.08437 154.84438 76.6625 155.07875Q76.25625 155.31313 76.02187 155.6725L75.0375 155.5475L75.86562 151.14125L80.14687 151.14125L80.14687 152.14125L76.70937 152.14125L76.25625 154.45375Q77.02187 153.90688 77.86562 153.90688Q78.99062 153.90688 79.75625 154.68813Q80.5375 155.46938 80.5375 156.70375Q80.5375 157.86 79.86562 158.71938Q79.0375 159.75063 77.61562 159.75063Q76.44375 159.75063 75.69375 159.09438Q74.95937 158.43813 74.85 157.36Z" fill-rule="nonzero"/><path fill="#000000" d="M50.85 108.36229Q50.85 106.83104 51.1625 105.909164Q51.475 104.971664 52.084373 104.471664Q52.709373 103.971664 53.646873 103.971664Q54.334373 103.971664 54.85 104.252914Q55.38125 104.534164 55.725 105.065414Q56.06875 105.58104 56.25625 106.33104Q56.44375 107.08104 56.44375 108.36229Q56.44375 109.877914 56.13125 110.79979Q55.834373 111.721664 55.209373 112.23729Q54.6 112.73729 53.646873 112.73729Q52.4125 112.73729 51.69375 111.846664Q50.85 110.784164 50.85 108.36229ZM51.928123 108.36229Q51.928123 110.471664 52.428123 111.17479Q52.928123 111.877914 53.646873 111.877914Q54.38125 111.877914 54.865623 111.17479Q55.365623 110.471664 55.365623 108.36229Q55.365623 106.23729 54.865623 105.54979Q54.38125 104.846664 53.63125 104.846664Q52.9125 104.846664 52.475 105.45604Q51.928123 106.23729 51.928123 108.36229ZM58.44375 112.596664L58.44375 111.39354L59.646873 111.39354L59.646873 112.596664L58.44375 112.596664ZM64.81875 112.596664L63.771873 112.596664L63.771873 105.877914Q63.38125 106.23729 62.75625 106.61229Q62.146873 106.971664 61.6625 107.14354L61.6625 106.127914Q62.5375 105.70604 63.19375 105.127914Q63.865623 104.534164 64.14687 103.971664L64.81875 103.971664L64.81875 112.596664ZM67.85 108.36229Q67.85 106.83104 68.1625 105.909164Q68.475 104.971664 69.08437 104.471664Q69.70937 103.971664 70.64687 103.971664Q71.33437 103.971664 71.85 104.252914Q72.38125 104.534164 72.725 105.065414Q73.06875 105.58104 73.25625 106.33104Q73.44375 107.08104 73.44375 108.36229Q73.44375 109.877914 73.13125 110.79979Q72.83437 111.721664 72.20937 112.23729Q71.6 112.73729 70.64687 112.73729Q69.4125 112.73729 68.69375 111.846664Q67.85 110.784164 67.85 108.36229ZM68.92812 108.36229Q68.92812 110.471664 69.42812 111.17479Q69.92812 111.877914 70.64687 111.877914Q71.38125 111.877914 71.86562 111.17479Q72.36562 110.471664 72.36562 108.36229Q72.36562 106.23729 71.86562 105.54979Q71.38125 104.846664 70.63125 104.846664Q69.9125 104.846664 69.475 105.45604Q68.92812 106.23729 68.92812 108.36229ZM74.85 108.36229Q74.85 106.83104 75.1625 105.909164Q75.475 104.971664 76.08437 104.471664Q76.70937 103.971664 77.64687 103.971664Q78.33437 103.971664 78.85 104.252914Q79.38125 104.534164 79.725 105.065414Q80.06875 105.58104 80.25625 106.33104Q80.44375 107.08104 80.44375 108.36229Q80.44375 109.877914 80.13125 110.79979Q79.83437 111.721664 79.20937 112.23729Q78.6 112.73729 77.64687 112.73729Q76.4125 112.73729 75.69375 111.846664Q74.85 110.784164 74.85 108.36229ZM75.92812 108.36229Q75.92812 110.471664 76.42812 111.17479Q76.92812 111.877914 77.64687 111.877914Q78.38125 111.877914 78.86562 111.17479Q79.36562 110.471664 79.36562 108.36229Q79.36562 106.23729 78.86562 105.54979Q78.38125 104.846664 77.63125 104.846664Q76.9125 104.846664 76.475 105.45604Q75.92812 106.23729 75.92812 108.36229Z" fill-rule="nonzero"/><path fill="#000000" d="M50.85 61.34896Q50.85 59.81771 51.1625 58.895836Q51.475 57.958336 52.084373 57.458336Q52.709373 56.958336 53.646873 56.958336Q54.334373 56.958336 54.85 57.239586Q55.38125 57.520836 55.725 58.052086Q56.06875 58.56771 56.25625 59.31771Q56.44375 60.06771 56.44375 61.34896Q56.44375 62.864586 56.13125 63.78646Q55.834373 64.708336 55.209373 65.22396Q54.6 65.72396 53.646873 65.72396Q52.4125 65.72396 51.69375 64.833336Q50.85 63.770836 50.85 61.34896ZM51.928123 61.34896Q51.928123 63.458336 52.428123 64.16146Q52.928123 64.864586 53.646873 64.864586Q54.38125 64.864586 54.865623 64.16146Q55.365623 63.458336 55.365623 61.34896Q55.365623 59.22396 54.865623 58.53646Q54.38125 57.833336 53.63125 57.833336Q52.9125 57.833336 52.475 58.44271Q51.928123 59.22396 51.928123 61.34896ZM58.44375 65.583336L58.44375 64.38021L59.646873 64.38021L59.646873 65.583336L58.44375 65.583336ZM64.81875 65.583336L63.771873 65.583336L63.771873 58.864586Q63.38125 59.22396 62.75625 59.59896Q62.146873 59.958336 61.6625 60.13021L61.6625 59.114586Q62.5375 58.69271 63.19375 58.114586Q63.865623 57.520836 64.14687 56.958336L64.81875 56.958336L64.81875 65.583336ZM73.39687 64.56771L73.39687 65.583336L67.70937 65.583336Q67.70937 65.208336 67.83437 64.84896Q68.05312 64.270836 68.52187 63.708336Q69.00625 63.145836 69.9125 62.41146Q71.31875 61.25521 71.80312 60.583336Q72.30312 59.91146 72.30312 59.31771Q72.30312 58.69271 71.85 58.270836Q71.39687 57.833336 70.67812 57.833336Q69.9125 57.833336 69.45937 58.28646Q69.00625 58.739586 68.99062 59.552086L67.9125 59.44271Q68.02187 58.22396 68.74062 57.59896Q69.475 56.958336 70.70937 56.958336Q71.94375 56.958336 72.6625 57.645836Q73.38125 58.333336 73.38125 59.34896Q73.38125 59.864586 73.1625 60.364586Q72.95937 60.84896 72.45937 61.41146Q71.975 61.958336 70.85 62.91146Q69.89687 63.708336 69.61562 64.00521Q69.35 64.28646 69.17812 64.56771L73.39687 64.56771ZM74.85 63.333336L75.95937 63.239586Q76.08437 64.052086 76.52187 64.458336Q76.975 64.864586 77.61562 64.864586Q78.36562 64.864586 78.89687 64.28646Q79.42812 63.708336 79.42812 62.770836Q79.42812 61.864586 78.9125 61.34896Q78.4125 60.81771 77.58437 60.81771Q77.08437 60.81771 76.6625 61.052086Q76.25625 61.28646 76.02187 61.645836L75.0375 61.520836L75.86562 57.114586L80.14687 57.114586L80.14687 58.114586L76.70937 58.114586L76.25625 60.427086Q77.02187 59.88021 77.86562 59.88021Q78.99062 59.88021 79.75625 60.66146Q80.5375 61.44271 80.5375 62.677086Q80.5375 63.833336 79.86562 64.69271Q79.0375 65.72396 77.61562 65.72396Q76.44375 65.72396 75.69375 65.06771Q74.95937 64.41146 74.85 63.333336Z" fill-rule="nonzero"/><path fill="#000000" d="M88.31875 313.65L87.27187 313.65L87.27187 306.93124Q86.88125 307.29062 86.25625 307.66562Q85.64687 308.025 85.1625 308.19687L85.1625 307.18124Q86.0375 306.75937 86.69375 306.18124Q87.36562 305.5875 87.64687 305.025L88.31875 305.025L88.31875 313.65Z" fill-rule="nonzero"/><path fill="#000000" d="M228.55402 312.63437L228.55402 313.65L222.86652 313.65Q222.86652 313.275 222.99152 312.91562Q223.21027 312.3375 223.67902 311.775Q224.16339 311.2125 225.06964 310.47812Q226.47589 309.32187 226.96027 308.65Q227.46027 307.97812 227.46027 307.38437Q227.46027 306.75937 227.00714 306.3375Q226.55402 305.9 225.83527 305.9Q225.06964 305.9 224.61652 306.35312Q224.16339 306.80624 224.14777 307.61874L223.06964 307.50937Q223.17902 306.29062 223.89777 305.66562Q224.63214 305.025 225.86652 305.025Q227.10089 305.025 227.81964 305.7125Q228.53839 306.4 228.53839 307.41562Q228.53839 307.93124 228.31964 308.43124Q228.11652 308.91562 227.61652 309.47812Q227.13214 310.025 226.00714 310.97812Q225.05402 311.775 224.77277 312.07187Q224.50714 312.35312 224.33527 312.63437L228.55402 312.63437Z" fill-rule="nonzero"/><path fill="#000000" d="M361.66428 311.38437L362.72678 311.24374Q362.89865 312.13437 363.33615 312.54062Q363.77365 312.93124 364.39865 312.93124Q365.14865 312.93124 365.66428 312.41562Q366.1799 311.9 366.1799 311.13437Q366.1799 310.41562 365.69553 309.94687Q365.22678 309.4625 364.4924 309.4625Q364.19553 309.4625 363.7424 309.5875L363.8674 308.65Q363.97678 308.66562 364.03928 308.66562Q364.71115 308.66562 365.2424 308.32187Q365.78928 307.9625 365.78928 307.22812Q365.78928 306.65 365.39865 306.275Q365.00803 305.88437 364.38303 305.88437Q363.77365 305.88437 363.35178 306.275Q362.94553 306.66562 362.83615 307.43124L361.77365 307.24374Q361.96115 306.19687 362.64865 305.61874Q363.33615 305.025 364.35178 305.025Q365.0549 305.025 365.64865 305.3375Q366.2424 305.63437 366.5549 306.15Q366.8674 306.66562 366.8674 307.25937Q366.8674 307.80624 366.57053 308.275Q366.27365 308.72812 365.69553 308.99374Q366.44553 309.16562 366.8674 309.72812Q367.28928 310.275 367.28928 311.11874Q367.28928 312.24374 366.46115 313.025Q365.64865 313.80624 364.39865 313.80624Q363.27365 313.80624 362.52365 313.13437Q361.77365 312.44687 361.66428 311.38437Z" fill-rule="nonzero"/><path fill="#000000" d="M503.69644 313.65L503.69644 311.5875L499.9777 311.5875L499.9777 310.61874L503.89957 305.05624L504.75894 305.05624L504.75894 310.61874L505.9152 310.61874L505.9152 311.5875L504.75894 311.5875L504.75894 313.65L503.69644 313.65ZM503.69644 310.61874L503.69644 306.75937L501.00894 310.61874L503.69644 310.61874Z" fill-rule="nonzero"/><path fill="#757575" d="M30.115625 32.334373L32.00625 32.803123Q31.4125 35.146873 29.865625 36.38125Q28.31875 37.6 26.06875 37.6Q23.75625 37.6 22.303125 36.6625Q20.865625 35.709373 20.1 33.928123Q19.35 32.13125 19.35 30.084373Q19.35 27.849998 20.19375 26.193748Q21.053125 24.521873 22.63125 23.662498Q24.209375 22.787498 26.1 22.787498Q28.25625 22.787498 29.709375 23.881248Q31.178125 24.974998 31.75625 26.959373L29.896875 27.396873Q29.396875 25.834373 28.44375 25.131248Q27.50625 24.412498 26.06875 24.412498Q24.4125 24.412498 23.303125 25.209373Q22.19375 25.990623 21.740625 27.334373Q21.303125 28.662498 21.303125 30.068748Q21.303125 31.896873 21.834375 33.271873Q22.365625 34.63125 23.490625 35.303123Q24.615625 35.975 25.9125 35.975Q27.50625 35.975 28.615625 35.053123Q29.725 34.13125 30.115625 32.334373ZM40.459373 37.35L40.459373 35.81875Q39.25625 37.584373 37.178123 37.584373Q36.25625 37.584373 35.459373 37.240623Q34.6625 36.88125 34.271873 36.35Q33.896873 35.81875 33.740623 35.0375Q33.63125 34.521873 33.63125 33.396873L33.63125 26.974998L35.38125 26.974998L35.38125 32.725Q35.38125 34.1 35.490623 34.584373Q35.6625 35.271873 36.19375 35.678123Q36.740623 36.06875 37.521873 36.06875Q38.31875 36.06875 39.00625 35.6625Q39.709373 35.25625 39.990623 34.56875Q40.2875 33.865623 40.2875 32.5375L40.2875 26.974998L42.0375 26.974998L42.0375 37.35L40.459373 37.35ZM43.646873 37.35L43.646873 26.974998L45.225 26.974998L45.225 28.553123Q45.834373 27.443748 46.35 27.099998Q46.865623 26.740623 47.475 26.740623Q48.365623 26.740623 49.2875 27.303123L48.678123 28.943748Q48.0375 28.553123 47.396873 28.553123Q46.81875 28.553123 46.35 28.912498Q45.896873 29.256248 45.69375 29.865623Q45.4125 30.803123 45.4125 31.912498L45.4125 37.35L43.646873 37.35ZM50.646873 37.35L50.646873 26.974998L52.225 26.974998L52.225 28.553123Q52.834373 27.443748 53.35 27.099998Q53.865623 26.740623 54.475 26.740623Q55.365623 26.740623 56.2875 27.303123L55.678123 28.943748Q55.0375 28.553123 54.396873 28.553123Q53.81875 28.553123 53.35 28.912498Q52.896873 29.256248 52.69375 29.865623Q52.4125 30.803123 52.4125 31.912498L52.4125 37.35L50.646873 37.35ZM64.77187 34.00625L66.58437 34.240623Q66.1625 35.81875 64.99062 36.709373Q63.834373 37.584373 62.021873 37.584373Q59.75625 37.584373 58.4125 36.19375Q57.084373 34.7875 57.084373 32.25625Q57.084373 29.631248 58.428123 28.193748Q59.771873 26.740623 61.928123 26.740623Q64.00625 26.740623 65.31875 28.162498Q66.64687 29.568748 66.64687 32.146873Q66.64687 32.303123 66.63125 32.615623L58.896873 32.615623Q58.990623 34.31875 59.865623 35.225Q60.740623 36.13125 62.0375 36.13125Q63.00625 36.13125 63.678123 35.63125Q64.36562 35.115623 64.77187 34.00625ZM58.990623 31.162498L64.7875 31.162498Q64.67812 29.865623 64.13125 29.209373Q63.2875 28.193748 61.94375 28.193748Q60.740623 28.193748 59.9125 29.006248Q59.084373 29.803123 58.990623 31.162498ZM68.6625 37.35L68.6625 26.974998L70.25625 26.974998L70.25625 28.459373Q71.39687 26.740623 73.55312 26.740623Q74.49062 26.740623 75.27187 27.084373Q76.06875 27.412498 76.45937 27.959373Q76.85 28.506248 77.00625 29.256248Q77.1 29.756248 77.1 30.974998L77.1 37.35L75.33437 37.35L75.33437 31.037498Q75.33437 29.959373 75.13125 29.428123Q74.92812 28.896873 74.39687 28.584373Q73.88125 28.271873 73.17812 28.271873Q72.05312 28.271873 71.24062 28.990623Q70.42812 29.693748 70.42812 31.678123L70.42812 37.35L68.6625 37.35ZM82.50625 35.771873L82.75625 37.334373Q82.02187 37.490623 81.42812 37.490623Q80.475 37.490623 79.94375 37.19375Q79.42812 36.88125 79.20937 36.396873Q78.99062 35.896873 78.99062 34.31875L78.99062 28.349998L77.70937 28.349998L77.70937 26.974998L78.99062 26.974998L78.99062 24.412498L80.74062 23.349998L80.74062 26.974998L82.50625 26.974998L82.50625 28.349998L80.74062 28.349998L80.74062 34.4125Q80.74062 35.1625 80.83437 35.38125Q80.92812 35.584373 81.13125 35.725Q81.35 35.85 81.74062 35.85Q82.02187 35.85 82.50625 35.771873ZM92.58437 37.35L89.4125 26.974998L91.225 26.974998L92.88125 32.959373L93.49062 35.19375Q93.5375 35.021873 94.02187 33.053123L95.67812 26.974998L97.49062 26.974998L99.0375 32.990623L99.55312 34.975L100.14687 32.975L101.92812 26.974998L103.63125 26.974998L100.39687 37.35L98.56875 37.35L96.9125 31.131248L96.52187 29.365623L94.4125 37.35L92.58437 37.35ZM105.67812 25.053123L105.67812 23.037498L107.44375 23.037498L107.44375 25.053123L105.67812 25.053123ZM105.67812 37.35L105.67812 26.974998L107.44375 26.974998L107.44375 37.35L105.67812 37.35ZM113.50625 35.771873L113.75625 37.334373Q113.02187 37.490623 112.42812 37.490623Q111.475 37.490623 110.94375 37.19375Q110.42812 36.88125 110.20937 36.396873Q109.99062 35.896873 109.99062 34.31875L109.99062 28.349998L108.70937 28.349998L108.70937 26.974998L109.99062 26.974998L109.99062 24.412498L111.74062 23.349998L111.74062 26.974998L113.50625 26.974998L113.50625 28.349998L111.74062 28.349998L111.74062 34.4125Q111.74062 35.1625 111.83437 35.38125Q111.92812 35.584373 112.13125 35.725Q112.35 35.85 112.74062 35.85Q113.02187 35.85 113.50625 35.771873ZM115.6625 37.35L115.6625 23.037498L117.42812 23.037498L117.42812 28.162498Q118.6625 26.740623 120.5375 26.740623Q121.67812 26.740623 122.52187 27.193748Q123.38125 27.646873 123.74062 28.459373Q124.11562 29.256248 124.11562 30.771873L124.11562 37.35L122.36562 37.35L122.36562 30.771873Q122.36562 29.459373 121.7875 28.865623Q121.20937 28.256248 120.17812 28.256248Q119.39687 28.256248 118.69375 28.662498Q118.00625 29.068748 117.70937 29.771873Q117.42812 30.459373 117.42812 31.678123L117.42812 37.35L115.6625 37.35ZM131.63126 37.35L131.63126 23.037498L133.38126 23.037498L133.38126 37.35L131.63126 37.35ZM142.44376 36.06875Q141.45938 36.896873 140.55313 37.240623Q139.64688 37.584373 138.61563 37.584373Q136.9125 37.584373 135.99063 36.75625Q135.06876 35.9125 135.06876 34.615623Q135.06876 33.85 135.4125 33.225Q135.77188 32.6 136.33438 32.225Q136.89688 31.834373 137.6 31.631248Q138.11563 31.506248 139.1625 31.365623Q141.2875 31.115623 142.2875 30.771873Q142.30313 30.412498 142.30313 30.303123Q142.30313 29.240623 141.80313 28.787498Q141.13126 28.193748 139.80313 28.193748Q138.55313 28.193748 137.95938 28.631248Q137.38126 29.068748 137.1 30.178123L135.38126 29.943748Q135.61563 28.834373 136.14688 28.162498Q136.67813 27.474998 137.69376 27.115623Q138.70938 26.740623 140.05313 26.740623Q141.38126 26.740623 142.20938 27.053123Q143.0375 27.365623 143.42813 27.849998Q143.81876 28.318748 143.975 29.037498Q144.06876 29.490623 144.06876 30.662498L144.06876 33.00625Q144.06876 35.459373 144.17813 36.115623Q144.2875 36.75625 144.63126 37.35L142.7875 37.35Q142.52188 36.803123 142.44376 36.06875ZM142.2875 32.146873Q141.33438 32.5375 139.4125 32.803123Q138.33438 32.959373 137.88126 33.1625Q137.44376 33.35 137.19376 33.725Q136.94376 34.1 136.94376 34.56875Q136.94376 35.271873 137.475 35.740623Q138.00626 36.209373 139.0375 36.209373Q140.05313 36.209373 140.83438 35.771873Q141.63126 35.31875 142.00626 34.553123Q142.2875 33.94375 142.2875 32.7875L142.2875 32.146873ZM146.6625 37.35L146.6625 26.974998L148.24063 26.974998L148.24063 28.428123Q148.725 27.678123 149.5375 27.209373Q150.35 26.740623 151.38126 26.740623Q152.5375 26.740623 153.27188 27.224998Q154.00626 27.693748 154.31876 28.553123Q155.55313 26.740623 157.52188 26.740623Q159.06876 26.740623 159.89688 27.599998Q160.725 28.459373 160.725 30.224998L160.725 37.35L158.975 37.35L158.975 30.818748Q158.975 29.756248 158.80313 29.303123Q158.63126 28.834373 158.17813 28.553123Q157.74063 28.271873 157.13126 28.271873Q156.0375 28.271873 155.30313 29.006248Q154.58438 29.724998 154.58438 31.318748L154.58438 37.35L152.83438 37.35L152.83438 30.615623Q152.83438 29.443748 152.39688 28.865623Q151.975 28.271873 150.99063 28.271873Q150.25626 28.271873 149.61563 28.662498Q148.99063 29.053123 148.70938 29.803123Q148.42813 30.553123 148.42813 31.974998L148.42813 37.35L146.6625 37.35ZM162.6625 41.31875L162.6625 26.974998L164.27188 26.974998L164.27188 28.318748Q164.83438 27.537498 165.5375 27.146873Q166.25626 26.740623 167.27188 26.740623Q168.6 26.740623 169.61563 27.428123Q170.63126 28.115623 171.14688 29.365623Q171.67813 30.599998 171.67813 32.084373Q171.67813 33.678123 171.1 34.959373Q170.5375 36.225 169.44376 36.9125Q168.35 37.584373 167.14688 37.584373Q166.27188 37.584373 165.56876 37.209373Q164.88126 36.834373 164.42813 36.271873L164.42813 41.31875L162.6625 41.31875ZM164.25626 32.225Q164.25626 34.225 165.06876 35.178123Q165.88126 36.13125 167.0375 36.13125Q168.20938 36.13125 169.0375 35.146873Q169.88126 34.1625 169.88126 32.06875Q169.88126 30.099998 169.05313 29.115623Q168.24063 28.115623 167.11563 28.115623Q165.99063 28.115623 165.11563 29.178123Q164.25626 30.224998 164.25626 32.225ZM179.70938 41.31875L179.70938 23.037498L183.58438 23.037498L183.58438 24.490623L181.45938 24.490623L181.45938 39.865623L183.58438 39.865623L183.58438 41.31875L179.70938 41.31875ZM184.31876 37.35L189.81876 23.037498L191.86563 23.037498L197.725 37.35L195.56876 37.35L193.89688 33.00625L187.9125 33.00625L186.33438 37.35L184.31876 37.35ZM188.45938 31.474998L193.30313 31.474998L191.81876 27.506248Q191.13126 25.693748 190.80313 24.537498Q190.52188 25.912498 190.02188 27.271873L188.45938 31.474998ZM198.6625 37.35L198.6625 26.974998L200.24063 26.974998L200.24063 28.428123Q200.725 27.678123 201.5375 27.209373Q202.35 26.740623 203.38126 26.740623Q204.5375 26.740623 205.27188 27.224998Q206.00626 27.693748 206.31876 28.553123Q207.55313 26.740623 209.52188 26.740623Q211.06876 26.740623 211.89688 27.599998Q212.725 28.459373 212.725 30.224998L212.725 37.35L210.975 37.35L210.975 30.818748Q210.975 29.756248 210.80313 29.303123Q210.63126 28.834373 210.17813 28.553123Q209.74063 28.271873 209.13126 28.271873Q208.0375 28.271873 207.30313 29.006248Q206.58438 29.724998 206.58438 31.318748L206.58438 37.35L204.83438 37.35L204.83438 30.615623Q204.83438 29.443748 204.39688 28.865623Q203.975 28.271873 202.99063 28.271873Q202.25626 28.271873 201.61563 28.662498Q200.99063 29.053123 200.70938 29.803123Q200.42813 30.553123 200.42813 31.974998L200.42813 37.35L198.6625 37.35ZM214.6625 41.31875L214.6625 26.974998L216.27188 26.974998L216.27188 28.318748Q216.83438 27.537498 217.5375 27.146873Q218.25626 26.740623 219.27188 26.740623Q220.6 26.740623 221.61563 27.428123Q222.63126 28.115623 223.14688 29.365623Q223.67813 30.599998 223.67813 32.084373Q223.67813 33.678123 223.1 34.959373Q222.5375 36.225 221.44376 36.9125Q220.35 37.584373 219.14688 37.584373Q218.27188 37.584373 217.56876 37.209373Q216.88126 36.834373 216.42813 36.271873L216.42813 41.31875L214.6625 41.31875ZM216.25626 32.225Q216.25626 34.225 217.06876 35.178123Q217.88126 36.13125 219.0375 36.13125Q220.20938 36.13125 221.0375 35.146873Q221.88126 34.1625 221.88126 32.06875Q221.88126 30.099998 221.05313 29.115623Q220.24063 28.115623 219.11563 28.115623Q217.99063 28.115623 217.11563 29.178123Q216.25626 30.224998 216.25626 32.225ZM224.95938 34.25625L226.70938 33.975Q226.85 35.021873 227.52188 35.584373Q228.19376 36.13125 229.39688 36.13125Q230.6 36.13125 231.17813 35.646873Q231.77188 35.146873 231.77188 34.490623Q231.77188 33.896873 231.25626 33.553123Q230.89688 33.31875 229.45938 32.959373Q227.52188 32.459373 226.77188 32.115623Q226.0375 31.756248 225.64688 31.131248Q225.25626 30.490623 225.25626 29.724998Q225.25626 29.037498 225.56876 28.443748Q225.89688 27.849998 226.44376 27.459373Q226.85 27.162498 227.55313 26.959373Q228.27188 26.740623 229.08438 26.740623Q230.30313 26.740623 231.225 27.099998Q232.14688 27.443748 232.58438 28.053123Q233.02188 28.646873 233.19376 29.646873L231.475 29.881248Q231.35 29.084373 230.7875 28.646873Q230.225 28.193748 229.20938 28.193748Q227.99063 28.193748 227.475 28.599998Q226.95938 28.990623 226.95938 29.521873Q226.95938 29.865623 227.17813 30.146873Q227.38126 30.428123 227.85 30.615623Q228.11563 30.709373 229.39688 31.053123Q231.27188 31.553123 232.00626 31.881248Q232.74063 32.19375 233.1625 32.803123Q233.58438 33.396873 233.58438 34.303123Q233.58438 35.178123 233.06876 35.959373Q232.55313 36.740623 231.58438 37.1625Q230.61563 37.584373 229.39688 37.584373Q227.38126 37.584373 226.31876 36.740623Q225.25626 35.896873 224.95938 34.25625ZM238.61563 41.31875L234.725 41.31875L234.725 39.865623L236.85 39.865623L236.85 24.490623L234.725 24.490623L234.725 23.037498L238.61563 23.037498L238.61563 41.31875ZM250.55313 37.35L246.6 26.974998L248.45938 26.974998L250.69376 33.19375Q251.05313 34.19375 251.35 35.271873Q251.58438 34.459373 252.00626 33.303123L254.30313 26.974998L256.11563 26.974998L252.19376 37.35L250.55313 37.35ZM255.95938 34.25625L257.70938 33.975Q257.85 35.021873 258.52188 35.584373Q259.19376 36.13125 260.39688 36.13125Q261.6 36.13125 262.17813 35.646873Q262.77188 35.146873 262.77188 34.490623Q262.77188 33.896873 262.25626 33.553123Q261.89688 33.31875 260.45938 32.959373Q258.52188 32.459373 257.77188 32.115623Q257.0375 31.756248 256.64688 31.131248Q256.25626 30.490623 256.25626 29.724998Q256.25626 29.037498 256.56876 28.443748Q256.89688 27.849998 257.44376 27.459373Q257.85 27.162498 258.55313 26.959373Q259.27188 26.740623 260.08438 26.740623Q261.30313 26.740623 262.225 27.099998Q263.14688 27.443748 263.58438 28.053123Q264.02188 28.646873 264.19376 29.646873L262.475 29.881248Q262.35 29.084373 261.7875 28.646873Q261.225 28.193748 260.20938 28.193748Q258.99063 28.193748 258.475 28.599998Q257.95938 28.990623 257.95938 29.521873Q257.95938 29.865623 258.17813 30.146873Q258.38126 30.428123 258.85 30.615623Q259.11563 30.709373 260.39688 31.053123Q262.27188 31.553123 263.00626 31.881248Q263.74063 32.19375 264.1625 32.803123Q264.58438 33.396873 264.58438 34.303123Q264.58438 35.178123 264.06876 35.959373Q263.55313 36.740623 262.58438 37.1625Q261.61563 37.584373 260.39688 37.584373Q258.38126 37.584373 257.31876 36.740623Q256.25626 35.896873 255.95938 34.25625ZM267.1625 37.35L267.1625 35.35L269.1625 35.35L269.1625 37.35L267.1625 37.35ZM278.89688 37.35L278.89688 23.037498L283.81876 23.037498Q285.49063 23.037498 286.38126 23.240623Q287.6 23.521873 288.475 24.256248Q289.6 25.224998 290.1625 26.709373Q290.725 28.193748 290.725 30.115623Q290.725 31.740623 290.35 33.00625Q289.975 34.25625 289.36563 35.084373Q288.77188 35.9125 288.06876 36.396873Q287.36563 36.865623 286.36563 37.115623Q285.36563 37.35 284.05313 37.35L278.89688 37.35ZM280.7875 35.6625L283.85 35.6625Q285.25626 35.6625 286.05313 35.396873Q286.86563 35.13125 287.35 34.646873Q288.02188 33.975 288.39688 32.85Q288.77188 31.709373 288.77188 30.084373Q288.77188 27.834373 288.0375 26.631248Q287.30313 25.428123 286.24063 25.021873Q285.49063 24.724998 283.80313 24.724998L280.7875 24.724998L280.7875 35.6625ZM303.11563 32.334373L305.00626 32.803123Q304.4125 35.146873 302.86563 36.38125Q301.31876 37.6 299.06876 37.6Q296.75626 37.6 295.30313 36.6625Q293.86563 35.709373 293.1 33.928123Q292.35 32.13125 292.35 30.084373Q292.35 27.849998 293.19376 26.193748Q294.05313 24.521873 295.63126 23.662498Q297.20938 22.787498 299.1 22.787498Q301.25626 22.787498 302.70938 23.881248Q304.17813 24.974998 304.75626 26.959373L302.89688 27.396873Q302.39688 25.834373 301.44376 25.131248Q300.50626 24.412498 299.06876 24.412498Q297.4125 24.412498 296.30313 25.209373Q295.19376 25.990623 294.74063 27.334373Q294.30313 28.662498 294.30313 30.068748Q294.30313 31.896873 294.83438 33.271873Q295.36563 34.63125 296.49063 35.303123Q297.61563 35.975 298.9125 35.975Q300.50626 35.975 301.61563 35.053123Q302.725 34.13125 303.11563 32.334373ZM316.99063 37.35L311.44376 23.037498L313.49063 23.037498L317.20938 33.428123Q317.6625 34.678123 317.95938 35.771873Q318.2875 34.6 318.74063 33.428123L322.6 23.037498L324.5375 23.037498L318.92813 37.35L316.99063 37.35ZM325.02188 32.1625Q325.02188 29.287498 326.61563 27.896873Q327.95938 26.740623 329.88126 26.740623Q332.02188 26.740623 333.36563 28.146873Q334.725 29.553123 334.725 32.021873Q334.725 34.021873 334.13126 35.178123Q333.5375 36.31875 332.38126 36.959373Q331.24063 37.584373 329.88126 37.584373Q327.69376 37.584373 326.35 36.19375Q325.02188 34.7875 325.02188 32.1625ZM326.81876 32.1625Q326.81876 34.1625 327.67813 35.146873Q328.55313 36.13125 329.88126 36.13125Q331.19376 36.13125 332.05313 35.146873Q332.92813 34.146873 332.92813 32.1Q332.92813 30.178123 332.05313 29.193748Q331.17813 28.193748 329.88126 28.193748Q328.55313 28.193748 327.67813 29.193748Q326.81876 30.178123 326.81876 32.1625ZM336.63126 37.35L336.63126 23.037498L338.38126 23.037498L338.38126 37.35L336.63126 37.35ZM344.50626 35.771873L344.75626 37.334373Q344.02188 37.490623 343.42813 37.490623Q342.475 37.490623 341.94376 37.19375Q341.42813 36.88125 341.20938 36.396873Q340.99063 35.896873 340.99063 34.31875L340.99063 28.349998L339.70938 28.349998L339.70938 26.974998L340.99063 26.974998L340.99063 24.412498L342.74063 23.349998L342.74063 26.974998L344.50626 26.974998L344.50626 28.349998L342.74063 28.349998L342.74063 34.4125Q342.74063 35.1625 342.83438 35.38125Q342.92813 35.584373 343.13126 35.725Q343.35 35.85 343.74063 35.85Q344.02188 35.85 344.50626 35.771873ZM353.44376 36.06875Q352.45938 36.896873 351.55313 37.240623Q350.64688 37.584373 349.61563 37.584373Q347.9125 37.584373 346.99063 36.75625Q346.06876 35.9125 346.06876 34.615623Q346.06876 33.85 346.4125 33.225Q346.77188 32.6 347.33438 32.225Q347.89688 31.834373 348.6 31.631248Q349.11563 31.506248 350.1625 31.365623Q352.2875 31.115623 353.2875 30.771873Q353.30313 30.412498 353.30313 30.303123Q353.30313 29.240623 352.80313 28.787498Q352.13126 28.193748 350.80313 28.193748Q349.55313 28.193748 348.95938 28.631248Q348.38126 29.068748 348.1 30.178123L346.38126 29.943748Q346.61563 28.834373 347.14688 28.162498Q347.67813 27.474998 348.69376 27.115623Q349.70938 26.740623 351.05313 26.740623Q352.38126 26.740623 353.20938 27.053123Q354.0375 27.365623 354.42813 27.849998Q354.81876 28.318748 354.975 29.037498Q355.06876 29.490623 355.06876 30.662498L355.06876 33.00625Q355.06876 35.459373 355.17813 36.115623Q355.2875 36.75625 355.63126 37.35L353.7875 37.35Q353.52188 36.803123 353.44376 36.06875ZM353.2875 32.146873Q352.33438 32.5375 350.4125 32.803123Q349.33438 32.959373 348.88126 33.1625Q348.44376 33.35 348.19376 33.725Q347.94376 34.1 347.94376 34.56875Q347.94376 35.271873 348.475 35.740623Q349.00626 36.209373 350.0375 36.209373Q351.05313 36.209373 351.83438 35.771873Q352.63126 35.31875 353.00626 34.553123Q353.2875 33.94375 353.2875 32.7875L353.2875 32.146873ZM357.35 38.209373L359.05313 38.459373Q359.1625 39.25625 359.64688 39.615623Q360.30313 40.1 361.44376 40.1Q362.6625 40.1 363.31876 39.615623Q363.99063 39.13125 364.225 38.25625Q364.36563 37.709373 364.35 35.990623Q363.19376 37.35 361.475 37.35Q359.33438 37.35 358.1625 35.803123Q356.99063 34.25625 356.99063 32.1Q356.99063 30.615623 357.52188 29.365623Q358.06876 28.115623 359.08438 27.428123Q360.11563 26.740623 361.49063 26.740623Q363.31876 26.740623 364.52188 28.224998L364.52188 26.974998L366.13126 26.974998L366.13126 35.94375Q366.13126 38.365623 365.63126 39.365623Q365.14688 40.38125 364.06876 40.959373Q363.00626 41.553123 361.44376 41.553123Q359.6 41.553123 358.44376 40.725Q357.30313 39.896873 357.35 38.209373ZM358.80313 31.974998Q358.80313 34.021873 359.61563 34.959373Q360.42813 35.896873 361.64688 35.896873Q362.85 35.896873 363.6625 34.959373Q364.49063 34.021873 364.49063 32.0375Q364.49063 30.131248 363.64688 29.162498Q362.80313 28.193748 361.61563 28.193748Q360.44376 28.193748 359.61563 29.146873Q358.80313 30.099998 358.80313 31.974998ZM375.77188 34.00625L377.58438 34.240623Q377.1625 35.81875 375.99063 36.709373Q374.83438 37.584373 373.02188 37.584373Q370.75626 37.584373 369.4125 36.19375Q368.08438 34.7875 368.08438 32.25625Q368.08438 29.631248 369.42813 28.193748Q370.77188 26.740623 372.92813 26.740623Q375.00626 26.740623 376.31876 28.162498Q377.64688 29.568748 377.64688 32.146873Q377.64688 32.303123 377.63126 32.615623L369.89688 32.615623Q369.99063 34.31875 370.86563 35.225Q371.74063 36.13125 373.0375 36.13125Q374.00626 36.13125 374.67813 35.63125Q375.36563 35.115623 375.77188 34.00625ZM369.99063 31.162498L375.7875 31.162498Q375.67813 29.865623 375.13126 29.209373Q374.2875 28.193748 372.94376 28.193748Q371.74063 28.193748 370.9125 29.006248Q370.08438 29.803123 369.99063 31.162498ZM385.70938 41.31875L385.70938 23.037498L389.58438 23.037498L389.58438 24.490623L387.45938 24.490623L387.45938 39.865623L389.58438 39.865623L389.58438 41.31875L385.70938 41.31875ZM395.99063 37.35L390.44376 23.037498L392.49063 23.037498L396.20938 33.428123Q396.6625 34.678123 396.95938 35.771873Q397.2875 34.6 397.74063 33.428123L401.6 23.037498L403.5375 23.037498L397.92813 37.35L395.99063 37.35ZM404.02188 32.1625Q404.02188 29.287498 405.61563 27.896873Q406.95938 26.740623 408.88126 26.740623Q411.02188 26.740623 412.36563 28.146873Q413.725 29.553123 413.725 32.021873Q413.725 34.021873 413.13126 35.178123Q412.5375 36.31875 411.38126 36.959373Q410.24063 37.584373 408.88126 37.584373Q406.69376 37.584373 405.35 36.19375Q404.02188 34.7875 404.02188 32.1625ZM405.81876 32.1625Q405.81876 34.1625 406.67813 35.146873Q407.55313 36.13125 408.88126 36.13125Q410.19376 36.13125 411.05313 35.146873Q411.92813 34.146873 411.92813 32.1Q411.92813 30.178123 411.05313 29.193748Q410.17813 28.193748 408.88126 28.193748Q407.55313 28.193748 406.67813 29.193748Q405.81876 30.178123 405.81876 32.1625ZM415.63126 37.35L415.63126 23.037498L417.38126 23.037498L417.38126 37.35L415.63126 37.35ZM423.50626 35.771873L423.75626 37.334373Q423.02188 37.490623 422.42813 37.490623Q421.475 37.490623 420.94376 37.19375Q420.42813 36.88125 420.20938 36.396873Q419.99063 35.896873 419.99063 34.31875L419.99063 28.349998L418.70938 28.349998L418.70938 26.974998L419.99063 26.974998L419.99063 24.412498L421.74063 23.349998L421.74063 26.974998L423.50626 26.974998L423.50626 28.349998L421.74063 28.349998L421.74063 34.4125Q421.74063 35.1625 421.83438 35.38125Q421.92813 35.584373 422.13126 35.725Q422.35 35.85 422.74063 35.85Q423.02188 35.85 423.50626 35.771873ZM424.95938 34.25625L426.70938 33.975Q426.85 35.021873 427.52188 35.584373Q428.19376 36.13125 429.39688 36.13125Q430.6 36.13125 431.17813 35.646873Q431.77188 35.146873 431.77188 34.490623Q431.77188 33.896873 431.25626 33.553123Q430.89688 33.31875 429.45938 32.959373Q427.52188 32.459373 426.77188 32.115623Q426.0375 31.756248 425.64688 31.131248Q425.25626 30.490623 425.25626 29.724998Q425.25626 29.037498 425.56876 28.443748Q425.89688 27.849998 426.44376 27.459373Q426.85 27.162498 427.55313 26.959373Q428.27188 26.740623 429.08438 26.740623Q430.30313 26.740623 431.225 27.099998Q432.14688 27.443748 432.58438 28.053123Q433.02188 28.646873 433.19376 29.646873L431.475 29.881248Q431.35 29.084373 430.7875 28.646873Q430.225 28.193748 429.20938 28.193748Q427.99063 28.193748 427.475 28.599998Q426.95938 28.990623 426.95938 29.521873Q426.95938 29.865623 427.17813 30.146873Q427.38126 30.428123 427.85 30.615623Q428.11563 30.709373 429.39688 31.053123Q431.27188 31.553123 432.00626 31.881248Q432.74063 32.19375 433.1625 32.803123Q433.58438 33.396873 433.58438 34.303123Q433.58438 35.178123 433.06876 35.959373Q432.55313 36.740623 431.58438 37.1625Q430.61563 37.584373 429.39688 37.584373Q427.38126 37.584373 426.31876 36.740623Q425.25626 35.896873 424.95938 34.25625ZM438.61563 41.31875L434.725 41.31875L434.725 39.865623L436.85 39.865623L436.85 24.490623L434.725 24.490623L434.725 23.037498L438.61563 23.037498L438.61563 41.31875Z" fill-rule="nonzero"/></svg>