<svg version="1.1" viewBox="0.0 0.0 528.0 326.0" fill="none" stroke="none" stroke-linecap="square" stroke-miterlimit="10" width="528" height="326" xmlns:xlink="http://www.w3.org/1999/xlink" xmlns="http://www.w3.org/2000/svg"><path fill="#ffffff" d="M0 0L528.0 0L528.0 326.0L0 326.0L0 0Z" fill-rule="nonzero"/><path stroke="#cccccc" stroke-width="1.0" stroke-linecap="butt" d="M82.5 58.5L82.5 257.5" fill-rule="nonzero"/><path stroke="#cccccc" stroke-width="1.0" stroke-linecap="butt" d="M179.5 58.5L179.5 257.5" fill-rule="nonzero"/><path stroke="#cccccc" stroke-width="1.0" stroke-linecap="butt" d="M277.5 58.5L277.5 257.5" fill-rule="nonzero"/><path stroke="#cccccc" stroke-width="1.0" stroke-linecap="butt" d="M374.5 58.5L374.5 257.5" fill-rule="nonzero"/><path stroke="#cccccc" stroke-width="1.0" stroke-linecap="butt" d="M472.5 58.5L472.5 257.5" fill-rule="nonzero"/><path stroke="#cccccc" stroke-width="1.0" stroke-linecap="butt" d="M75.5 257.5L511.5 257.5" fill-rule="nonzero"/><path stroke="#cccccc" stroke-width="1.0" stroke-linecap="butt" d="M75.5 207.5L511.5 207.5" fill-rule="nonzero"/><path stroke="#cccccc" stroke-width="1.0" stroke-linecap="butt" d="M75.5 157.5L511.5 157.5" fill-rule="nonzero"/><path stroke="#333333" stroke-width="1.0" stroke-linecap="butt" d="M75.5 108.5L511.5 108.5" fill-rule="nonzero"/><path stroke="#cccccc" stroke-width="1.0" stroke-linecap="butt" d="M75.5 58.5L511.5 58.5" fill-rule="nonzero"/><clipPath id="id_0"><path d="M75.3 58.166668L511.7 58.166668L511.7 257.7L75.3 257.7L75.3 58.166668Z" clip-rule="nonzero"/></clipPath><path fill="#4285f4" clip-path="url(#id_0)" d="M86.58241 68.89159C86.58241 71.37686 84.567696 73.39159 82.08241 73.39159C79.59714 73.39159 77.58241 71.37686 77.58241 68.89159C77.58241 66.4063 79.59714 64.39159 82.08241 64.39159C84.567696 64.39159 86.58241 66.4063 86.58241 68.89159Z" fill-rule="nonzero"/><path fill="#4285f4" clip-path="url(#id_0)" d="M184.41727 110.045334C184.41727 112.53062 182.40254 114.545334 179.91727 114.545334C177.43198 114.545334 175.41727 112.53062 175.41727 110.045334C175.41727 107.56005 177.43198 105.545334 179.91727 105.545334C182.40254 105.545334 184.41727 107.56005 184.41727 110.045334Z" fill-rule="nonzero"/><path fill="#4285f4" clip-path="url(#id_0)" d="M282.2521 151.19908C282.2521 153.68437 280.2374 155.69908 277.7521 155.69908C275.2668 155.69908 273.2521 153.68437 273.2521 151.19908C273.2521 148.7138 275.2668 146.69908 277.7521 146.69908C280.2374 146.69908 282.2521 148.7138 282.2521 151.19908Z" fill-rule="nonzero"/><path fill="#4285f4" clip-path="url(#id_0)" d="M411.58273 192.10342C411.58273 194.5887 409.56802 196.60342 407.08273 196.60342C404.59744 196.60342 402.58273 194.5887 402.58273 192.10342C402.58273 189.61813 404.59744 187.60342 407.08273 187.60342C409.56802 187.60342 411.58273 189.61813 411.58273 192.10342Z" fill-rule="nonzero"/><path fill="#4285f4" clip-path="url(#id_0)" d="M509.41757 210.80966C509.41757 213.29495 507.40286 215.30966 504.91757 215.30966C502.4323 215.30966 500.41757 213.29495 500.41757 210.80966C500.41757 208.32439 502.4323 206.30966 504.91757 206.30966C507.40286 206.30966 509.41757 208.32439 509.41757 210.80966Z" fill-rule="nonzero"/><path fill="#000000" d="M267.76562 306.7L267.76562 298.10626L268.82812 298.10626L268.82812 306.7L267.76562 306.7ZM270.79688 306.7L270.79688 300.48126L271.73438 300.48126L271.73438 301.35626Q272.42188 300.34064 273.71875 300.34064Q274.28125 300.34064 274.75 300.54376Q275.23438 300.7469 275.46875 301.075Q275.70312 301.40314 275.79688 301.84064Q275.84375 302.1375 275.84375 302.8719L275.84375 306.7L274.79688 306.7L274.79688 302.91876Q274.79688 302.2625 274.67188 301.95Q274.54688 301.6375 274.23438 301.45Q273.92188 301.2469 273.5 301.2469Q272.82812 301.2469 272.32812 301.6844Q271.84375 302.10626 271.84375 303.29376L271.84375 306.7L270.79688 306.7ZM279.8125 309.23126Q278.9375 308.1219 278.32812 306.65314Q277.73438 305.16876 277.73438 303.59064Q277.73438 302.2 278.17188 300.91876Q278.70312 299.4344 279.8125 297.96564L280.5625 297.96564Q279.85938 299.1844 279.625 299.7Q279.26562 300.5125 279.0625 301.3875Q278.8125 302.48126 278.8125 303.59064Q278.8125 306.41876 280.5625 309.23126L279.8125 309.23126ZM281.9375 306.7L281.9375 298.10626L285.75 298.10626Q286.90625 298.10626 287.5 298.34064Q288.09375 298.575 288.45312 299.16876Q288.8125 299.7469 288.8125 300.45Q288.8125 301.3719 288.21875 301.9969Q287.625 302.6219 286.39062 302.79376Q286.84375 303.0125 287.07812 303.21564Q287.57812 303.66876 288.01562 304.35626L289.51562 306.7L288.07812 306.7L286.95312 304.91876Q286.45312 304.1375 286.125 303.73126Q285.8125 303.325 285.54688 303.16876Q285.29688 302.9969 285.03125 302.91876Q284.84375 302.8875 284.40625 302.8875L283.07812 302.8875L283.07812 306.7L281.9375 306.7ZM283.07812 301.90314L285.53125 301.90314Q286.29688 301.90314 286.73438 301.7469Q287.1875 301.575 287.40625 301.23126Q287.64062 300.8719 287.64062 300.45Q287.64062 299.84064 287.1875 299.45Q286.75 299.0594 285.79688 299.0594L283.07812 299.0594L283.07812 301.90314ZM293.875 306.7L293.875 304.6375L290.15625 304.6375L290.15625 303.66876L294.07812 298.10626L294.9375 298.10626L294.9375 303.66876L296.09375 303.66876L296.09375 304.6375L294.9375 304.6375L294.9375 306.7L293.875 306.7ZM293.875 303.66876L293.875 299.8094L291.1875 303.66876L293.875 303.66876ZM297.0 306.84064L299.48438 297.96564L300.32812 297.96564L297.84375 306.84064L297.0 306.84064ZM300.9375 306.7L300.9375 298.10626L304.75 298.10626Q305.90625 298.10626 306.5 298.34064Q307.09375 298.575 307.45312 299.16876Q307.8125 299.7469 307.8125 300.45Q307.8125 301.3719 307.21875 301.9969Q306.625 302.6219 305.39062 302.79376Q305.84375 303.0125 306.07812 303.21564Q306.57812 303.66876 307.01562 304.35626L308.51562 306.7L307.07812 306.7L305.95312 304.91876Q305.45312 304.1375 305.125 303.73126Q304.8125 303.325 304.54688 303.16876Q304.29688 302.9969 304.03125 302.91876Q303.84375 302.8875 303.40625 302.8875L302.07812 302.8875L302.07812 306.7L300.9375 306.7ZM302.07812 301.90314L304.53125 301.90314Q305.29688 301.90314 305.73438 301.7469Q306.1875 301.575 306.40625 301.23126Q306.64062 300.8719 306.64062 300.45Q306.64062 299.84064 306.1875 299.45Q305.75 299.0594 304.79688 299.0594L302.07812 299.0594L302.07812 301.90314ZM309.5 304.4344L310.5625 304.29376Q310.73438 305.1844 311.17188 305.59064Q311.60938 305.98126 312.23438 305.98126Q312.98438 305.98126 313.5 305.46564Q314.01562 304.95 314.01562 304.1844Q314.01562 303.46564 313.53125 302.9969Q313.0625 302.5125 312.32812 302.5125Q312.03125 302.5125 311.57812 302.6375L311.70312 301.7Q311.8125 301.71564 311.875 301.71564Q312.54688 301.71564 313.07812 301.3719Q313.625 301.0125 313.625 300.27814Q313.625 299.7 313.23438 299.325Q312.84375 298.9344 312.21875 298.9344Q311.60938 298.9344 311.1875 299.325Q310.78125 299.71564 310.67188 300.48126L309.60938 300.29376Q309.79688 299.2469 310.48438 298.66876Q311.17188 298.075 312.1875 298.075Q312.89062 298.075 313.48438 298.3875Q314.07812 298.6844 314.39062 299.2Q314.70312 299.71564 314.70312 300.3094Q314.70312 300.85626 314.40625 301.325Q314.10938 301.77814 313.53125 302.04376Q314.28125 302.21564 314.70312 302.77814Q315.125 303.325 315.125 304.16876Q315.125 305.29376 314.29688 306.075Q313.48438 306.85626 312.23438 306.85626Q311.10938 306.85626 310.35938 306.1844Q309.60938 305.4969 309.5 304.4344ZM317.48438 309.23126L316.73438 309.23126Q318.48438 306.41876 318.48438 303.59064Q318.48438 302.4969 318.23438 301.40314Q318.03125 300.52814 317.67188 299.71564Q317.4375 299.2 316.73438 297.96564L317.48438 297.96564Q318.57812 299.4344 319.10938 300.91876Q319.5625 302.2 319.5625 303.59064Q319.5625 305.16876 318.95312 306.65314Q318.34375 308.1219 317.48438 309.23126Z" fill-rule="nonzero"/><path fill="#000000" d="M27.300013 233.01146L18.706263 233.01146L18.706263 230.04271Q18.706263 229.04271 18.831263 228.51146Q19.003138 227.77708 19.440638 227.26146Q20.018763 226.57396 20.925013 226.24583Q21.815638 225.90208 22.956263 225.90208Q23.940638 225.90208 24.690638 226.13646Q25.440638 226.35521 25.940638 226.71458Q26.440638 227.07396 26.721888 227.51146Q27.003138 227.93333 27.159388 228.52708Q27.300013 229.12083 27.300013 229.90208L27.300013 233.01146ZM26.284388 231.87083L26.284388 230.04271Q26.284388 229.18333 26.128138 228.69896Q25.971888 228.21458 25.675013 227.93333Q25.284388 227.52708 24.596888 227.30833Q23.909388 227.07396 22.940638 227.07396Q21.596888 227.07396 20.878138 227.52708Q20.143763 227.96458 19.893763 228.58958Q19.721888 229.05833 19.721888 230.05833L19.721888 231.87083L26.284388 231.87083ZM19.925013 224.13646L18.706263 224.13646L18.706263 223.07396L19.925013 223.07396L19.925013 224.13646ZM27.300013 224.13646L21.081263 224.13646L21.081263 223.07396L27.300013 223.07396L27.300013 224.13646ZM27.300013 220.88646L21.893763 220.88646L21.893763 221.82396L21.081263 221.82396L21.081263 220.88646L20.409388 220.88646Q19.784388 220.88646 19.487513 220.77708Q19.065638 220.62083 18.815638 220.24583Q18.565638 219.85521 18.565638 219.16771Q18.565638 218.71458 18.675013 218.18333L19.581263 218.33958Q19.534388 218.66771 19.534388 218.96458Q19.534388 219.44896 19.737513 219.65208Q19.940638 219.83958 20.503138 219.83958L21.081263 219.83958L21.081263 218.62083L21.893763 218.62083L21.893763 219.83958L27.300013 219.83958L27.300013 220.88646ZM27.300013 217.88646L21.893763 217.88646L21.893763 218.82396L21.081263 218.82396L21.081263 217.88646L20.409388 217.88646Q19.784388 217.88646 19.487513 217.77708Q19.065638 217.62083 18.815638 217.24583Q18.565638 216.85521 18.565638 216.16771Q18.565638 215.71458 18.675013 215.18333L19.581263 215.33958Q19.534388 215.66771 19.534388 215.96458Q19.534388 216.44896 19.737513 216.65208Q19.940638 216.83958 20.503138 216.83958L21.081263 216.83958L21.081263 215.62083L21.893763 215.62083L21.893763 216.83958L27.300013 216.83958L27.300013 217.88646ZM25.300013 210.88646L25.425013 209.79271Q26.378138 210.04271 26.909388 210.74583Q27.440638 211.44896 27.440638 212.52708Q27.440638 213.88646 26.596888 214.69896Q25.753138 215.49583 24.237513 215.49583Q22.675013 215.49583 21.815638 214.68333Q20.940638 213.87083 20.940638 212.58958Q20.940638 211.33958 21.784388 210.55833Q22.628138 209.76146 24.175013 209.76146Q24.268763 209.76146 24.456263 209.76146L24.456263 214.40208Q25.487513 214.33958 26.034388 213.82396Q26.565638 213.30833 26.565638 212.52708Q26.565638 211.94896 26.268763 211.54271Q25.956263 211.12083 25.300013 210.88646ZM23.596888 214.33958L23.596888 210.87083Q22.800013 210.93333 22.409388 211.26146Q21.800013 211.77708 21.800013 212.57396Q21.800013 213.30833 22.284388 213.80833Q22.768763 214.29271 23.596888 214.33958ZM27.300013 208.15208L21.081263 208.15208L21.081263 207.19896L22.018763 207.19896Q21.362513 206.83958 21.159388 206.54271Q20.940638 206.23021 20.940638 205.85521Q20.940638 205.32396 21.268763 204.77708L22.253138 205.13646Q22.018763 205.52708 22.018763 205.90208Q22.018763 206.26146 22.237513 206.54271Q22.440638 206.80833 22.815638 206.91771Q23.378138 207.10521 24.034388 207.10521L27.300013 207.10521L27.300013 208.15208ZM25.300013 199.88646L25.425013 198.79271Q26.378138 199.04271 26.909388 199.74583Q27.440638 200.44896 27.440638 201.52708Q27.440638 202.88646 26.596888 203.69896Q25.753138 204.49583 24.237513 204.49583Q22.675013 204.49583 21.815638 203.68333Q20.940638 202.87083 20.940638 201.58958Q20.940638 200.33958 21.784388 199.55833Q22.628138 198.76146 24.175013 198.76146Q24.268763 198.76146 24.456263 198.76146L24.456263 203.40208Q25.487513 203.33958 26.034388 202.82396Q26.565638 202.30833 26.565638 201.52708Q26.565638 200.94896 26.268763 200.54271Q25.956263 200.12083 25.300013 199.88646ZM23.596888 203.33958L23.596888 199.87083Q22.800013 199.93333 22.409388 200.26146Q21.800013 200.77708 21.800013 201.57396Q21.800013 202.30833 22.284388 202.80833Q22.768763 203.29271 23.596888 203.33958ZM27.300013 197.13646L21.081263 197.13646L21.081263 196.19896L21.956263 196.19896Q20.940638 195.51146 20.940638 194.21458Q20.940638 193.65208 21.143763 193.18333Q21.346888 192.69896 21.675013 192.46458Q22.003138 192.23021 22.440638 192.13646Q22.737513 192.08958 23.471888 192.08958L27.300013 192.08958L27.300013 193.13646L23.518763 193.13646Q22.862513 193.13646 22.550013 193.26146Q22.237513 193.38646 22.050013 193.69896Q21.846888 194.01146 21.846888 194.43333Q21.846888 195.10521 22.284388 195.60521Q22.706263 196.08958 23.893763 196.08958L27.300013 196.08958L27.300013 197.13646ZM26.362513 187.83958L27.284388 187.68333Q27.378138 188.13646 27.378138 188.48021Q27.378138 189.05833 27.206263 189.37083Q27.018763 189.68333 26.721888 189.82396Q26.425013 189.94896 25.471888 189.94896L21.893763 189.94896L21.893763 190.71458L21.081263 190.71458L21.081263 189.94896L19.534388 189.94896L18.909388 188.90208L21.081263 188.90208L21.081263 187.83958L21.893763 187.83958L21.893763 188.90208L25.534388 188.90208Q25.987513 188.90208 26.112513 188.85521Q26.237513 188.79271 26.315638 188.66771Q26.393763 188.54271 26.393763 188.30833Q26.393763 188.12083 26.362513 187.83958ZM19.925013 187.13646L18.706263 187.13646L18.706263 186.07396L19.925013 186.07396L19.925013 187.13646ZM27.300013 187.13646L21.081263 187.13646L21.081263 186.07396L27.300013 186.07396L27.300013 187.13646ZM26.534388 180.07396Q27.034388 180.66771 27.237513 181.21458Q27.440638 181.74583 27.440638 182.37083Q27.440638 183.40208 26.940638 183.94896Q26.440638 184.49583 25.659388 184.49583Q25.206263 184.49583 24.831263 184.29271Q24.440638 184.08958 24.221888 183.74583Q23.987513 183.40208 23.878138 182.98021Q23.784388 182.68333 23.706263 182.04271Q23.565638 180.77708 23.346888 180.16771Q23.128138 180.16771 23.081263 180.16771Q22.425013 180.16771 22.159388 180.46458Q21.815638 180.87083 21.815638 181.66771Q21.815638 182.40208 22.081263 182.76146Q22.331263 183.12083 22.987513 183.29271L22.846888 184.32396Q22.190638 184.18333 21.784388 183.85521Q21.378138 183.52708 21.159388 182.91771Q20.940638 182.30833 20.940638 181.51146Q20.940638 180.71458 21.128138 180.21458Q21.315638 179.71458 21.596888 179.48021Q21.878138 179.24583 22.315638 179.15208Q22.581263 179.10521 23.284388 179.10521L24.690638 179.10521Q26.159388 179.10521 26.550013 179.04271Q26.940638 178.96458 27.300013 178.76146L27.300013 179.87083Q26.971888 180.02708 26.534388 180.07396ZM24.175013 180.16771Q24.409388 180.74583 24.581263 181.88646Q24.675013 182.54271 24.800013 182.80833Q24.909388 183.07396 25.128138 183.23021Q25.346888 183.37083 25.628138 183.37083Q26.050013 183.37083 26.331263 183.05833Q26.612513 182.73021 26.612513 182.12083Q26.612513 181.51146 26.346888 181.04271Q26.081263 180.55833 25.612513 180.33958Q25.253138 180.16771 24.565638 180.16771L24.175013 180.16771ZM27.300013 177.16771L18.706263 177.16771L18.706263 176.10521L27.300013 176.10521L27.300013 177.16771ZM27.300013 168.55833L18.706263 171.88646L18.706263 170.65208L24.956263 168.41771Q25.706263 168.15208 26.362513 167.96458Q25.659388 167.76146 24.956263 167.49583L18.706263 165.18333L18.706263 164.02708L27.300013 167.38646L27.300013 168.55833ZM24.190638 164.52708Q22.456263 164.52708 21.628138 163.57396Q20.940638 162.77708 20.940638 161.62083Q20.940638 160.33958 21.784388 159.52708Q22.612513 158.69896 24.096888 158.69896Q25.300013 158.69896 25.987513 159.05833Q26.675013 159.41771 27.065638 160.12083Q27.440638 160.80833 27.440638 161.62083Q27.440638 162.91771 26.612513 163.73021Q25.768763 164.52708 24.190638 164.52708ZM24.190638 163.44896Q25.378138 163.44896 25.971888 162.93333Q26.565638 162.40208 26.565638 161.62083Q26.565638 160.82396 25.971888 160.30833Q25.378138 159.79271 24.159388 159.79271Q23.003138 159.79271 22.409388 160.32396Q21.815638 160.83958 21.815638 161.62083Q21.815638 162.40208 22.409388 162.93333Q22.987513 163.44896 24.190638 163.44896ZM27.300013 157.16771L18.706263 157.16771L18.706263 156.10521L27.300013 156.10521L27.300013 157.16771ZM26.362513 151.83958L27.284388 151.68333Q27.378138 152.13646 27.378138 152.48021Q27.378138 153.05833 27.206263 153.37083Q27.018763 153.68333 26.721888 153.82396Q26.425013 153.94896 25.471888 153.94896L21.893763 153.94896L21.893763 154.71458L21.081263 154.71458L21.081263 153.94896L19.534388 153.94896L18.909388 152.90208L21.081263 152.90208L21.081263 151.83958L21.893763 151.83958L21.893763 152.90208L25.534388 152.90208Q25.987513 152.90208 26.112513 152.85521Q26.237513 152.79271 26.315638 152.66771Q26.393763 152.54271 26.393763 152.30833Q26.393763 152.12083 26.362513 151.83958ZM26.534388 147.07396Q27.034388 147.66771 27.237513 148.21458Q27.440638 148.74583 27.440638 149.37083Q27.440638 150.40208 26.940638 150.94896Q26.440638 151.49583 25.659388 151.49583Q25.206263 151.49583 24.831263 151.29271Q24.440638 151.08958 24.221888 150.74583Q23.987513 150.40208 23.878138 149.98021Q23.784388 149.68333 23.706263 149.04271Q23.565638 147.77708 23.346888 147.16771Q23.128138 147.16771 23.081263 147.16771Q22.425013 147.16771 22.159388 147.46458Q21.815638 147.87083 21.815638 148.66771Q21.815638 149.40208 22.081263 149.76146Q22.331263 150.12083 22.987513 150.29271L22.846888 151.32396Q22.190638 151.18333 21.784388 150.85521Q21.378138 150.52708 21.159388 149.91771Q20.940638 149.30833 20.940638 148.51146Q20.940638 147.71458 21.128138 147.21458Q21.315638 146.71458 21.596888 146.48021Q21.878138 146.24583 22.315638 146.15208Q22.581263 146.10521 23.284388 146.10521L24.690638 146.10521Q26.159388 146.10521 26.550013 146.04271Q26.940638 145.96458 27.300013 145.76146L27.300013 146.87083Q26.971888 147.02708 26.534388 147.07396ZM24.175013 147.16771Q24.409388 147.74583 24.581263 148.88646Q24.675013 149.54271 24.800013 149.80833Q24.909388 150.07396 25.128138 150.23021Q25.346888 150.37083 25.628138 150.37083Q26.050013 150.37083 26.331263 150.05833Q26.612513 149.73021 26.612513 149.12083Q26.612513 148.51146 26.346888 148.04271Q26.081263 147.55833 25.612513 147.33958Q25.253138 147.16771 24.565638 147.16771L24.175013 147.16771ZM27.815638 144.33958L27.971888 143.30833Q28.440638 143.24583 28.659388 142.94896Q28.956263 142.55833 28.956263 141.88646Q28.956263 141.15208 28.659388 140.76146Q28.362513 140.35521 27.846888 140.21458Q27.518763 140.12083 26.487513 140.13646Q27.300013 140.82396 27.300013 141.85521Q27.300013 143.13646 26.378138 143.83958Q25.440638 144.54271 24.159388 144.54271Q23.268763 144.54271 22.518763 144.23021Q21.753138 143.90208 21.346888 143.29271Q20.940638 142.68333 20.940638 141.85521Q20.940638 140.74583 21.831263 140.02708L21.081263 140.02708L21.081263 139.05833L26.456263 139.05833Q27.909388 139.05833 28.518763 139.35521Q29.128138 139.65208 29.471888 140.29271Q29.831263 140.93333 29.831263 141.87083Q29.831263 142.98021 29.331263 143.66771Q28.831263 144.35521 27.815638 144.33958ZM24.081263 143.46458Q25.300013 143.46458 25.862513 142.98021Q26.425013 142.49583 26.425013 141.76146Q26.425013 141.02708 25.862513 140.54271Q25.300013 140.04271 24.112513 140.04271Q22.971888 140.04271 22.393763 140.55833Q21.815638 141.05833 21.815638 141.77708Q21.815638 142.48021 22.393763 142.98021Q22.956263 143.46458 24.081263 143.46458ZM25.300013 132.88646L25.425013 131.79271Q26.378138 132.04271 26.909388 132.74583Q27.440638 133.44896 27.440638 134.52708Q27.440638 135.88646 26.596888 136.69896Q25.753138 137.49583 24.237513 137.49583Q22.675013 137.49583 21.815638 136.68333Q20.940638 135.87083 20.940638 134.58958Q20.940638 133.33958 21.784388 132.55833Q22.628138 131.76146 24.175013 131.76146Q24.268763 131.76146 24.456263 131.76146L24.456263 136.40208Q25.487513 136.33958 26.034388 135.82396Q26.565638 135.30833 26.565638 134.52708Q26.565638 133.94896 26.268763 133.54271Q25.956263 133.12083 25.300013 132.88646ZM23.596888 136.33958L23.596888 132.87083Q22.800013 132.93333 22.409388 133.26146Q21.800013 133.77708 21.800013 134.57396Q21.800013 135.30833 22.284388 135.80833Q22.768763 136.29271 23.596888 136.33958ZM29.690638 127.120834L18.706263 127.120834L18.706263 124.79271L19.581263 124.79271L19.581263 126.058334L28.815638 126.058334L28.815638 124.79271L29.690638 124.79271L29.690638 127.120834ZM27.300013 121.558334L18.706263 124.88646L18.706263 123.652084L24.956263 121.41771Q25.706263 121.152084 26.362513 120.964584Q25.659388 120.76146 24.956263 120.495834L18.706263 118.183334L18.706263 117.027084L27.300013 120.38646L27.300013 121.558334ZM24.190638 117.527084Q22.456263 117.527084 21.628138 116.57396Q20.940638 115.777084 20.940638 114.620834Q20.940638 113.339584 21.784388 112.527084Q22.612513 111.69896 24.096888 111.69896Q25.300013 111.69896 25.987513 112.058334Q26.675013 112.41771 27.065638 113.120834Q27.440638 113.808334 27.440638 114.620834Q27.440638 115.91771 26.612513 116.73021Q25.768763 117.527084 24.190638 117.527084ZM24.190638 116.44896Q25.378138 116.44896 25.971888 115.933334Q26.565638 115.402084 26.565638 114.620834Q26.565638 113.82396 25.971888 113.308334Q25.378138 112.79271 24.159388 112.79271Q23.003138 112.79271 22.409388 113.32396Q21.815638 113.839584 21.815638 114.620834Q21.815638 115.402084 22.409388 115.933334Q22.987513 116.44896 24.190638 116.44896ZM27.300013 110.16771L18.706263 110.16771L18.706263 109.10521L27.300013 109.10521L27.300013 110.16771ZM26.362513 104.839584L27.284388 104.683334Q27.378138 105.13646 27.378138 105.48021Q27.378138 106.058334 27.206263 106.370834Q27.018763 106.683334 26.721888 106.82396Q26.425013 106.94896 25.471888 106.94896L21.893763 106.94896L21.893763 107.714584L21.081263 107.714584L21.081263 106.94896L19.534388 106.94896L18.909388 105.902084L21.081263 105.902084L21.081263 104.839584L21.893763 104.839584L21.893763 105.902084L25.534388 105.902084Q25.987513 105.902084 26.112513 105.85521Q26.237513 105.79271 26.315638 105.66771Q26.393763 105.54271 26.393763 105.308334Q26.393763 105.120834 26.362513 104.839584ZM25.440638 104.558334L25.284388 103.527084Q25.909388 103.433334 26.237513 103.04271Q26.565638 102.63646 26.565638 101.902084Q26.565638 101.183334 26.284388 100.839584Q25.987513 100.48021 25.581263 100.48021Q25.221888 100.48021 25.018763 100.79271Q24.878138 101.01146 24.659388 101.870834Q24.362513 103.027084 24.159388 103.48021Q23.940638 103.91771 23.565638 104.152084Q23.190638 104.38646 22.721888 104.38646Q22.315638 104.38646 21.956263 104.19896Q21.596888 104.01146 21.362513 103.683334Q21.190638 103.433334 21.065638 103.01146Q20.940638 102.589584 20.940638 102.089584Q20.940638 101.370834 21.159388 100.82396Q21.362513 100.26146 21.721888 99.995834Q22.081263 99.73021 22.675013 99.63646L22.815638 100.66771Q22.346888 100.73021 22.081263 101.07396Q21.800013 101.402084 21.800013 102.027084Q21.800013 102.745834 22.050013 103.058334Q22.284388 103.370834 22.612513 103.370834Q22.815638 103.370834 22.971888 103.245834Q23.143763 103.10521 23.253138 102.839584Q23.315638 102.683334 23.518763 101.902084Q23.831263 100.777084 24.018763 100.339584Q24.206263 99.902084 24.565638 99.652084Q24.925013 99.402084 25.471888 99.402084Q26.003138 99.402084 26.471888 99.714584Q26.925013 100.01146 27.190638 100.589584Q27.440638 101.16771 27.440638 101.902084Q27.440638 103.120834 26.940638 103.76146Q26.425013 104.38646 25.440638 104.558334ZM29.690638 95.370834L29.690638 97.69896L28.815638 97.69896L28.815638 96.433334L19.581263 96.433334L19.581263 97.69896L18.706263 97.69896L18.706263 95.370834L29.690638 95.370834Z" fill-rule="nonzero"/><path fill="#000000" d="M58.675 259.1219L58.675 258.0594L61.925 258.0594L61.925 259.1219L58.675 259.1219ZM68.26875 255.21564L67.22188 255.29376Q67.08125 254.66876 66.83125 254.38751Q66.39375 253.93439 65.76875 253.93439Q65.26875 253.93439 64.87813 254.21564Q64.39375 254.59064 64.09688 255.29376Q63.815624 255.98126 63.8 257.2625Q64.175 256.6844 64.72188 256.40314Q65.28438 256.1219 65.89375 256.1219Q66.94063 256.1219 67.675 256.90314Q68.425 257.6844 68.425 258.90314Q68.425 259.71564 68.06563 260.41876Q67.72188 261.10626 67.1125 261.48126Q66.50313 261.84064 65.7375 261.84064Q64.40938 261.84064 63.58125 260.8719Q62.753124 259.90314 62.753124 257.6844Q62.753124 255.18439 63.675 254.05939Q64.47188 253.07501 65.83125 253.07501Q66.84688 253.07501 67.4875 253.65314Q68.14375 254.21564 68.26875 255.21564ZM63.971874 258.91876Q63.971874 259.46564 64.19063 259.96564Q64.425 260.45 64.83125 260.71564Q65.25313 260.98126 65.72188 260.98126Q66.37813 260.98126 66.8625 260.45Q67.34688 259.90314 67.34688 258.98126Q67.34688 258.09064 66.8625 257.575Q66.39375 257.0594 65.675 257.0594Q64.95625 257.0594 64.45625 257.575Q63.971874 258.09064 63.971874 258.91876Z" fill-rule="nonzero"/><path fill="#000000" d="M58.675 209.23854L58.675 208.17604L61.925 208.17604L61.925 209.23854L58.675 209.23854ZM66.175 211.81667L66.175 209.75417L62.45625 209.75417L62.45625 208.78542L66.37813 203.22292L67.2375 203.22292L67.2375 208.78542L68.39375 208.78542L68.39375 209.75417L67.2375 209.75417L67.2375 211.81667L66.175 211.81667ZM66.175 208.78542L66.175 204.92604L63.4875 208.78542L66.175 208.78542Z" fill-rule="nonzero"/><path fill="#000000" d="M58.675 159.35521L58.675 158.29271L61.925 158.29271L61.925 159.35521L58.675 159.35521ZM68.34688 160.91771L68.34688 161.93333L62.659374 161.93333Q62.659374 161.55833 62.784374 161.19896Q63.003124 160.62083 63.471874 160.05833Q63.95625 159.49583 64.8625 158.76146Q66.26875 157.60521 66.75313 156.93333Q67.25313 156.26146 67.25313 155.66771Q67.25313 155.04271 66.8 154.62083Q66.34688 154.18333 65.62813 154.18333Q64.8625 154.18333 64.40938 154.63646Q63.95625 155.08958 63.940624 155.90208L62.8625 155.79271Q62.971874 154.57396 63.690624 153.94896Q64.425 153.30833 65.65938 153.30833Q66.89375 153.30833 67.6125 153.99583Q68.33125 154.68333 68.33125 155.69896Q68.33125 156.21458 68.1125 156.71458Q67.90938 157.19896 67.40938 157.76146Q66.925 158.30833 65.8 159.26146Q64.84688 160.05833 64.56563 160.35521Q64.3 160.63646 64.12813 160.91771L68.34688 160.91771Z" fill-rule="nonzero"/><path fill="#000000" d="M62.8 107.81563Q62.8 106.28438 63.1125 105.3625Q63.425 104.425 64.03438 103.925Q64.65938 103.425 65.59688 103.425Q66.28438 103.425 66.8 103.70625Q67.33125 103.9875 67.675 104.51875Q68.01875 105.03438 68.20625 105.78438Q68.39375 106.53438 68.39375 107.81563Q68.39375 109.33125 68.08125 110.25313Q67.78438 111.175 67.15938 111.69063Q66.55 112.19063 65.59688 112.19063Q64.3625 112.19063 63.64375 111.3Q62.8 110.2375 62.8 107.81563ZM63.878124 107.81563Q63.878124 109.925 64.37813 110.62813Q64.87813 111.33125 65.59688 111.33125Q66.33125 111.33125 66.81563 110.62813Q67.31563 109.925 67.31563 107.81563Q67.31563 105.69063 66.81563 105.00313Q66.33125 104.3 65.58125 104.3Q64.8625 104.3 64.425 104.90938Q63.878124 105.69063 63.878124 107.81563Z" fill-rule="nonzero"/><path fill="#000000" d="M68.34688 61.151043L68.34688 62.166668L62.659374 62.166668Q62.659374 61.791668 62.784374 61.432293Q63.003124 60.854168 63.471874 60.291668Q63.95625 59.729168 64.8625 58.994793Q66.26875 57.838543 66.75313 57.166668Q67.25313 56.494793 67.25313 55.901043Q67.25313 55.276043 66.8 54.854168Q66.34688 54.416668 65.62813 54.416668Q64.8625 54.416668 64.40938 54.869793Q63.95625 55.322918 63.940624 56.135418L62.8625 56.026043Q62.971874 54.807293 63.690624 54.182293Q64.425 53.541668 65.65938 53.541668Q66.89375 53.541668 67.6125 54.229168Q68.33125 54.916668 68.33125 55.932293Q68.33125 56.447918 68.1125 56.947918Q67.90938 57.432293 67.40938 57.994793Q66.925 58.541668 65.8 59.494793Q64.84688 60.291668 64.56563 60.588543Q64.3 60.869793 64.12813 61.151043L68.34688 61.151043Z" fill-rule="nonzero"/><path fill="#000000" d="M74.41717 270.46564Q74.41717 268.9344 74.72967 268.0125Q75.04217 267.075 75.65154 266.575Q76.27654 266.075 77.21404 266.075Q77.90154 266.075 78.41717 266.35626Q78.94842 266.6375 79.29217 267.16876Q79.63592 267.6844 79.82342 268.4344Q80.01092 269.1844 80.01092 270.46564Q80.01092 271.98126 79.69842 272.90314Q79.40154 273.825 78.77654 274.34064Q78.16717 274.84064 77.21404 274.84064Q75.97967 274.84064 75.26092 273.95Q74.41717 272.8875 74.41717 270.46564ZM75.49529 270.46564Q75.49529 272.575 75.99529 273.27814Q76.49529 273.98126 77.21404 273.98126Q77.94842 273.98126 78.43279 273.27814Q78.93279 272.575 78.93279 270.46564Q78.93279 268.34064 78.43279 267.65314Q77.94842 266.95 77.19842 266.95Q76.47967 266.95 76.04217 267.5594Q75.49529 268.34064 75.49529 270.46564ZM82.01092 274.7L82.01092 273.4969L83.21404 273.4969L83.21404 274.7L82.01092 274.7ZM84.57342 272.71564L85.58904 272.6219Q85.71404 273.34064 86.07342 273.66876Q86.44842 273.98126 87.01092 273.98126Q87.49529 273.98126 87.85467 273.7625Q88.22967 273.52814 88.46404 273.16876Q88.69842 272.79376 88.85467 272.16876Q89.01092 271.52814 89.01092 270.8719Q89.01092 270.79376 89.01092 270.65314Q88.69842 271.15314 88.15154 271.48126Q87.60467 271.79376 86.96404 271.79376Q85.88592 271.79376 85.15154 271.02814Q84.41717 270.2469 84.41717 268.98126Q84.41717 267.66876 85.18279 266.8719Q85.96404 266.075 87.12029 266.075Q87.94842 266.075 88.63592 266.52814Q89.33904 266.98126 89.69842 267.825Q90.05779 268.65314 90.05779 270.23126Q90.05779 271.8719 89.69842 272.85626Q89.35467 273.825 88.63592 274.34064Q87.93279 274.84064 86.99529 274.84064Q85.97967 274.84064 85.33904 274.29376Q84.69842 273.73126 84.57342 272.71564ZM88.88592 268.91876Q88.88592 268.0125 88.40154 267.48126Q87.93279 266.95 87.24529 266.95Q86.54217 266.95 86.01092 267.52814Q85.49529 268.09064 85.49529 269.0125Q85.49529 269.825 85.99529 270.34064Q86.49529 270.85626 87.21404 270.85626Q87.94842 270.85626 88.41717 270.34064Q88.88592 269.825 88.88592 268.91876Z" fill-rule="nonzero"/><path fill="#000000" d="M175.88602 274.7L174.83914 274.7L174.83914 267.98126Q174.44852 268.34064 173.82352 268.71564Q173.21414 269.075 172.72977 269.2469L172.72977 268.23126Q173.60477 267.8094 174.26102 267.23126Q174.93289 266.6375 175.21414 266.075L175.88602 266.075L175.88602 274.7ZM179.51102 274.7L179.51102 273.4969L180.71414 273.4969L180.71414 274.7L179.51102 274.7ZM181.91727 270.46564Q181.91727 268.9344 182.22977 268.0125Q182.54227 267.075 183.15164 266.575Q183.77664 266.075 184.71414 266.075Q185.40164 266.075 185.91727 266.35626Q186.44852 266.6375 186.79227 267.16876Q187.13602 267.6844 187.32352 268.4344Q187.51102 269.1844 187.51102 270.46564Q187.51102 271.98126 187.19852 272.90314Q186.90164 273.825 186.27664 274.34064Q185.66727 274.84064 184.71414 274.84064Q183.47977 274.84064 182.76102 273.95Q181.91727 272.8875 181.91727 270.46564ZM182.99539 270.46564Q182.99539 272.575 183.49539 273.27814Q183.99539 273.98126 184.71414 273.98126Q185.44852 273.98126 185.93289 273.27814Q186.43289 272.575 186.43289 270.46564Q186.43289 268.34064 185.93289 267.65314Q185.44852 266.95 184.69852 266.95Q183.97977 266.95 183.54227 267.5594Q182.99539 268.34064 182.99539 270.46564Z" fill-rule="nonzero"/><path fill="#000000" d="M273.3861 274.7L272.33923 274.7L272.33923 267.98126Q271.9486 268.34064 271.3236 268.71564Q270.71423 269.075 270.22986 269.2469L270.22986 268.23126Q271.10486 267.8094 271.7611 267.23126Q272.43298 266.6375 272.71423 266.075L273.3861 266.075L273.3861 274.7ZM277.0111 274.7L277.0111 273.4969L278.21423 273.4969L278.21423 274.7L277.0111 274.7ZM283.3861 274.7L282.33923 274.7L282.33923 267.98126Q281.9486 268.34064 281.3236 268.71564Q280.71423 269.075 280.22986 269.2469L280.22986 268.23126Q281.10486 267.8094 281.7611 267.23126Q282.43298 266.6375 282.71423 266.075L283.3861 266.075L283.3861 274.7Z" fill-rule="nonzero"/><path fill="#000000" d="M370.8862 274.7L369.83932 274.7L369.83932 267.98126Q369.4487 268.34064 368.8237 268.71564Q368.21432 269.075 367.72995 269.2469L367.72995 268.23126Q368.60495 267.8094 369.2612 267.23126Q369.93307 266.6375 370.21432 266.075L370.8862 266.075L370.8862 274.7ZM374.5112 274.7L374.5112 273.4969L375.71432 273.4969L375.71432 274.7L374.5112 274.7ZM382.46432 273.6844L382.46432 274.7L376.77682 274.7Q376.77682 274.325 376.90182 273.96564Q377.12057 273.3875 377.58932 272.825Q378.0737 272.2625 378.97995 271.52814Q380.3862 270.3719 380.87057 269.7Q381.37057 269.02814 381.37057 268.4344Q381.37057 267.8094 380.91745 267.3875Q380.46432 266.95 379.74557 266.95Q378.97995 266.95 378.52682 267.40314Q378.0737 267.85626 378.05807 268.66876L376.97995 268.5594Q377.08932 267.34064 377.80807 266.71564Q378.54245 266.075 379.77682 266.075Q381.0112 266.075 381.72995 266.7625Q382.4487 267.45 382.4487 268.46564Q382.4487 268.98126 382.22995 269.48126Q382.02682 269.96564 381.52682 270.52814Q381.04245 271.075 379.91745 272.02814Q378.96432 272.825 378.68307 273.1219Q378.41745 273.40314 378.24557 273.6844L382.46432 273.6844Z" fill-rule="nonzero"/><path fill="#000000" d="M468.3863 274.7L467.33942 274.7L467.33942 267.98126Q466.9488 268.34064 466.3238 268.71564Q465.71442 269.075 465.23004 269.2469L465.23004 268.23126Q466.10504 267.8094 466.7613 267.23126Q467.43317 266.6375 467.71442 266.075L468.3863 266.075L468.3863 274.7ZM472.0113 274.7L472.0113 273.4969L473.21442 273.4969L473.21442 274.7L472.0113 274.7ZM474.41754 272.4344L475.48004 272.29376Q475.65192 273.1844 476.08942 273.59064Q476.52692 273.98126 477.15192 273.98126Q477.90192 273.98126 478.41754 273.46564Q478.93317 272.95 478.93317 272.1844Q478.93317 271.46564 478.4488 270.9969Q477.98004 270.5125 477.24567 270.5125Q476.9488 270.5125 476.49567 270.6375L476.62067 269.7Q476.73004 269.71564 476.79254 269.71564Q477.46442 269.71564 477.99567 269.3719Q478.54254 269.0125 478.54254 268.27814Q478.54254 267.7 478.15192 267.325Q477.7613 266.9344 477.1363 266.9344Q476.52692 266.9344 476.10504 267.325Q475.6988 267.71564 475.58942 268.48126L474.52692 268.29376Q474.71442 267.2469 475.40192 266.66876Q476.08942 266.075 477.10504 266.075Q477.80817 266.075 478.40192 266.3875Q478.99567 266.6844 479.30817 267.2Q479.62067 267.71564 479.62067 268.3094Q479.62067 268.85626 479.3238 269.325Q479.02692 269.77814 478.4488 270.04376Q479.1988 270.21564 479.62067 270.77814Q480.04254 271.325 480.04254 272.16876Q480.04254 273.29376 479.21442 274.075Q478.40192 274.85626 477.15192 274.85626Q476.02692 274.85626 475.27692 274.1844Q474.52692 273.4969 474.41754 272.4344Z" fill-rule="nonzero"/><path fill="#757575" d="M17.846874 35.3L17.846874 20.9875L22.76875 20.9875Q24.440624 20.9875 25.33125 21.190624Q26.55 21.471874 27.425 22.20625Q28.55 23.175 29.1125 24.659374Q29.675 26.14375 29.675 28.065624Q29.675 29.690624 29.3 30.95625Q28.925 32.20625 28.315624 33.034374Q27.721874 33.8625 27.01875 34.346874Q26.315624 34.815624 25.315624 35.065624Q24.315624 35.3 23.003124 35.3L17.846874 35.3ZM19.7375 33.6125L22.8 33.6125Q24.20625 33.6125 25.003124 33.346874Q25.815624 33.08125 26.3 32.596874Q26.971874 31.925 27.346874 30.8Q27.721874 29.659374 27.721874 28.034374Q27.721874 25.784374 26.9875 24.58125Q26.253124 23.378124 25.190624 22.971874Q24.440624 22.675 22.753124 22.675L19.7375 22.675L19.7375 33.6125ZM31.628124 23.003124L31.628124 20.9875L33.39375 20.9875L33.39375 23.003124L31.628124 23.003124ZM31.628124 35.3L31.628124 24.925L33.39375 24.925L33.39375 35.3L31.628124 35.3ZM36.034374 35.3L36.034374 26.3L34.4875 26.3L34.4875 24.925L36.034374 24.925L36.034374 23.83125Q36.034374 22.784374 36.221874 22.26875Q36.471874 21.58125 37.1125 21.159374Q37.753124 20.7375 38.909374 20.7375Q39.659374 20.7375 40.55 20.909374L40.284374 22.440624Q39.7375 22.346874 39.253124 22.346874Q38.45625 22.346874 38.1125 22.690624Q37.784374 23.034374 37.784374 23.971874L37.784374 24.925L39.815624 24.925L39.815624 26.3L37.784374 26.3L37.784374 35.3L36.034374 35.3ZM42.034374 35.3L42.034374 26.3L40.4875 26.3L40.4875 24.925L42.034374 24.925L42.034374 23.83125Q42.034374 22.784374 42.221874 22.26875Q42.471874 21.58125 43.1125 21.159374Q43.753124 20.7375 44.909374 20.7375Q45.659374 20.7375 46.55 20.909374L46.284374 22.440624Q45.7375 22.346874 45.253124 22.346874Q44.45625 22.346874 44.1125 22.690624Q43.784374 23.034374 43.784374 23.971874L43.784374 24.925L45.815624 24.925L45.815624 26.3L43.784374 26.3L43.784374 35.3L42.034374 35.3ZM54.721874 31.95625L56.534374 32.190624Q56.1125 33.76875 54.940624 34.659374Q53.784374 35.534374 51.971874 35.534374Q49.70625 35.534374 48.3625 34.14375Q47.034374 32.7375 47.034374 30.20625Q47.034374 27.58125 48.378124 26.14375Q49.721874 24.690624 51.878124 24.690624Q53.95625 24.690624 55.26875 26.1125Q56.596874 27.51875 56.596874 30.096874Q56.596874 30.253124 56.58125 30.565624L48.846874 30.565624Q48.940624 32.26875 49.815624 33.175Q50.690624 34.08125 51.9875 34.08125Q52.95625 34.08125 53.628124 33.58125Q54.315624 33.065624 54.721874 31.95625ZM48.940624 29.1125L54.7375 29.1125Q54.628124 27.815624 54.08125 27.159374Q53.2375 26.14375 51.89375 26.14375Q50.690624 26.14375 49.8625 26.95625Q49.034374 27.753124 48.940624 29.1125ZM58.596874 35.3L58.596874 24.925L60.175 24.925L60.175 26.503124Q60.784374 25.39375 61.3 25.05Q61.815624 24.690624 62.425 24.690624Q63.315624 24.690624 64.2375 25.253124L63.628124 26.89375Q62.9875 26.503124 62.346874 26.503124Q61.76875 26.503124 61.3 26.8625Q60.846874 27.20625 60.64375 27.815624Q60.3625 28.753124 60.3625 29.8625L60.3625 35.3L58.596874 35.3ZM72.72188 31.95625L74.53438 32.190624Q74.1125 33.76875 72.94063 34.659374Q71.78438 35.534374 69.97188 35.534374Q67.70625 35.534374 66.3625 34.14375Q65.03438 32.7375 65.03438 30.20625Q65.03438 27.58125 66.37813 26.14375Q67.72188 24.690624 69.87813 24.690624Q71.95625 24.690624 73.26875 26.1125Q74.59688 27.51875 74.59688 30.096874Q74.59688 30.253124 74.58125 30.565624L66.84688 30.565624Q66.94063 32.26875 67.81563 33.175Q68.69063 34.08125 69.9875 34.08125Q70.95625 34.08125 71.62813 33.58125Q72.31563 33.065624 72.72188 31.95625ZM66.94063 29.1125L72.7375 29.1125Q72.62813 27.815624 72.08125 27.159374Q71.2375 26.14375 69.89375 26.14375Q68.69063 26.14375 67.8625 26.95625Q67.03438 27.753124 66.94063 29.1125ZM76.6125 35.3L76.6125 24.925L78.20625 24.925L78.20625 26.409374Q79.34688 24.690624 81.50313 24.690624Q82.44063 24.690624 83.22188 25.034374Q84.01875 25.3625 84.40938 25.909374Q84.8 26.45625 84.95625 27.20625Q85.05 27.70625 85.05 28.925L85.05 35.3L83.28438 35.3L83.28438 28.9875Q83.28438 27.909374 83.08125 27.378124Q82.87813 26.846874 82.34688 26.534374Q81.83125 26.221874 81.12813 26.221874Q80.00313 26.221874 79.19063 26.940624Q78.37813 27.64375 78.37813 29.628124L78.37813 35.3L76.6125 35.3ZM90.45625 33.721874L90.70625 35.284374Q89.97188 35.440624 89.37813 35.440624Q88.425 35.440624 87.89375 35.14375Q87.37813 34.83125 87.15938 34.346874Q86.94063 33.846874 86.94063 32.26875L86.94063 26.3L85.65938 26.3L85.65938 24.925L86.94063 24.925L86.94063 22.3625L88.69063 21.3L88.69063 24.925L90.45625 24.925L90.45625 26.3L88.69063 26.3L88.69063 32.3625Q88.69063 33.1125 88.78438 33.33125Q88.87813 33.534374 89.08125 33.675Q89.3 33.8 89.69063 33.8Q89.97188 33.8 90.45625 33.721874ZM92.62813 23.003124L92.62813 20.9875L94.39375 20.9875L94.39375 23.003124L92.62813 23.003124ZM92.62813 35.3L92.62813 24.925L94.39375 24.925L94.39375 35.3L92.62813 35.3ZM103.39375 34.01875Q102.40938 34.846874 101.50313 35.190624Q100.59688 35.534374 99.56563 35.534374Q97.8625 35.534374 96.94063 34.70625Q96.01875 33.8625 96.01875 32.565624Q96.01875 31.8 96.3625 31.175Q96.72188 30.55 97.28438 30.175Q97.84688 29.784374 98.55 29.58125Q99.06563 29.45625 100.1125 29.315624Q102.2375 29.065624 103.2375 28.721874Q103.25313 28.3625 103.25313 28.253124Q103.25313 27.190624 102.75313 26.7375Q102.08125 26.14375 100.75313 26.14375Q99.50313 26.14375 98.90938 26.58125Q98.33125 27.01875 98.05 28.128124L96.33125 27.89375Q96.56563 26.784374 97.09688 26.1125Q97.62813 25.425 98.64375 25.065624Q99.65938 24.690624 101.00313 24.690624Q102.33125 24.690624 103.15938 25.003124Q103.9875 25.315624 104.37813 25.8Q104.76875 26.26875 104.925 26.9875Q105.01875 27.440624 105.01875 28.6125L105.01875 30.95625Q105.01875 33.409374 105.12813 34.065624Q105.2375 34.70625 105.58125 35.3L103.7375 35.3Q103.47188 34.753124 103.39375 34.01875ZM103.2375 30.096874Q102.28438 30.4875 100.3625 30.753124Q99.28438 30.909374 98.83125 31.1125Q98.39375 31.3 98.14375 31.675Q97.89375 32.05 97.89375 32.51875Q97.89375 33.221874 98.425 33.690624Q98.95625 34.159374 99.9875 34.159374Q101.00313 34.159374 101.78438 33.721874Q102.58125 33.26875 102.95625 32.503124Q103.2375 31.89375 103.2375 30.7375L103.2375 30.096874ZM107.58125 35.3L107.58125 20.9875L109.33125 20.9875L109.33125 35.3L107.58125 35.3ZM121.94063 35.3L116.39375 20.9875L118.44063 20.9875L122.15938 31.378124Q122.6125 32.628124 122.90938 33.721874Q123.2375 32.55 123.69063 31.378124L127.55 20.9875L129.4875 20.9875L123.87813 35.3L121.94063 35.3ZM129.97188 30.1125Q129.97188 27.2375 131.56563 25.846874Q132.90938 24.690624 134.83125 24.690624Q136.97188 24.690624 138.31563 26.096874Q139.675 27.503124 139.675 29.971874Q139.675 31.971874 139.08125 33.128124Q138.4875 34.26875 137.33125 34.909374Q136.19063 35.534374 134.83125 35.534374Q132.64375 35.534374 131.3 34.14375Q129.97188 32.7375 129.97188 30.1125ZM131.76875 30.1125Q131.76875 32.1125 132.62813 33.096874Q133.50313 34.08125 134.83125 34.08125Q136.14375 34.08125 137.00313 33.096874Q137.87813 32.096874 137.87813 30.05Q137.87813 28.128124 137.00313 27.14375Q136.12813 26.14375 134.83125 26.14375Q133.50313 26.14375 132.62813 27.14375Q131.76875 28.128124 131.76875 30.1125ZM141.58125 35.3L141.58125 20.9875L143.33125 20.9875L143.33125 35.3L141.58125 35.3ZM149.45625 33.721874L149.70625 35.284374Q148.97188 35.440624 148.37813 35.440624Q147.425 35.440624 146.89375 35.14375Q146.37813 34.83125 146.15938 34.346874Q145.94063 33.846874 145.94063 32.26875L145.94063 26.3L144.65938 26.3L144.65938 24.925L145.94063 24.925L145.94063 22.3625L147.69063 21.3L147.69063 24.925L149.45625 24.925L149.45625 26.3L147.69063 26.3L147.69063 32.3625Q147.69063 33.1125 147.78438 33.33125Q147.87813 33.534374 148.08125 33.675Q148.3 33.8 148.69063 33.8Q148.97188 33.8 149.45625 33.721874ZM158.39375 34.01875Q157.40938 34.846874 156.50313 35.190624Q155.59688 35.534374 154.56563 35.534374Q152.8625 35.534374 151.94063 34.70625Q151.01875 33.8625 151.01875 32.565624Q151.01875 31.8 151.3625 31.175Q151.72188 30.55 152.28438 30.175Q152.84688 29.784374 153.55 29.58125Q154.06563 29.45625 155.1125 29.315624Q157.2375 29.065624 158.2375 28.721874Q158.25313 28.3625 158.25313 28.253124Q158.25313 27.190624 157.75313 26.7375Q157.08125 26.14375 155.75313 26.14375Q154.50313 26.14375 153.90938 26.58125Q153.33125 27.01875 153.05 28.128124L151.33125 27.89375Q151.56563 26.784374 152.09688 26.1125Q152.62813 25.425 153.64375 25.065624Q154.65938 24.690624 156.00313 24.690624Q157.33125 24.690624 158.15938 25.003124Q158.9875 25.315624 159.37813 25.8Q159.76875 26.26875 159.925 26.9875Q160.01875 27.440624 160.01875 28.6125L160.01875 30.95625Q160.01875 33.409374 160.12813 34.065624Q160.2375 34.70625 160.58125 35.3L158.7375 35.3Q158.47188 34.753124 158.39375 34.01875ZM158.2375 30.096874Q157.28438 30.4875 155.3625 30.753124Q154.28438 30.909374 153.83125 31.1125Q153.39375 31.3 153.14375 31.675Q152.89375 32.05 152.89375 32.51875Q152.89375 33.221874 153.425 33.690624Q153.95625 34.159374 154.9875 34.159374Q156.00313 34.159374 156.78438 33.721874Q157.58125 33.26875 157.95625 32.503124Q158.2375 31.89375 158.2375 30.7375L158.2375 30.096874ZM162.3 36.159374L164.00313 36.409374Q164.1125 37.20625 164.59688 37.565624Q165.25313 38.05 166.39375 38.05Q167.6125 38.05 168.26875 37.565624Q168.94063 37.08125 169.175 36.20625Q169.31563 35.659374 169.3 33.940624Q168.14375 35.3 166.425 35.3Q164.28438 35.3 163.1125 33.753124Q161.94063 32.20625 161.94063 30.05Q161.94063 28.565624 162.47188 27.315624Q163.01875 26.065624 164.03438 25.378124Q165.06563 24.690624 166.44063 24.690624Q168.26875 24.690624 169.47188 26.175L169.47188 24.925L171.08125 24.925L171.08125 33.89375Q171.08125 36.315624 170.58125 37.315624Q170.09688 38.33125 169.01875 38.909374Q167.95625 39.503124 166.39375 39.503124Q164.55 39.503124 163.39375 38.675Q162.25313 37.846874 162.3 36.159374ZM163.75313 29.925Q163.75313 31.971874 164.56563 32.909374Q165.37813 33.846874 166.59688 33.846874Q167.8 33.846874 168.6125 32.909374Q169.44063 31.971874 169.44063 29.9875Q169.44063 28.08125 168.59688 27.1125Q167.75313 26.14375 166.56563 26.14375Q165.39375 26.14375 164.56563 27.096874Q163.75313 28.05 163.75313 29.925ZM180.72188 31.95625L182.53438 32.190624Q182.1125 33.76875 180.94063 34.659374Q179.78438 35.534374 177.97188 35.534374Q175.70625 35.534374 174.3625 34.14375Q173.03438 32.7375 173.03438 30.20625Q173.03438 27.58125 174.37813 26.14375Q175.72188 24.690624 177.87813 24.690624Q179.95625 24.690624 181.26875 26.1125Q182.59688 27.51875 182.59688 30.096874Q182.59688 30.253124 182.58125 30.565624L174.84688 30.565624Q174.94063 32.26875 175.81563 33.175Q176.69063 34.08125 177.9875 34.08125Q178.95625 34.08125 179.62813 33.58125Q180.31563 33.065624 180.72188 31.95625ZM174.94063 29.1125L180.7375 29.1125Q180.62813 27.815624 180.08125 27.159374Q179.2375 26.14375 177.89375 26.14375Q176.69063 26.14375 175.8625 26.95625Q175.03438 27.753124 174.94063 29.1125ZM193.50313 35.3L189.55 24.925L191.40938 24.925L193.64375 31.14375Q194.00313 32.14375 194.3 33.221874Q194.53438 32.409374 194.95625 31.253124L197.25313 24.925L199.06563 24.925L195.14375 35.3L193.50313 35.3ZM198.90938 32.20625L200.65938 31.925Q200.8 32.971874 201.47188 33.534374Q202.14375 34.08125 203.34688 34.08125Q204.55 34.08125 205.12813 33.596874Q205.72188 33.096874 205.72188 32.440624Q205.72188 31.846874 205.20625 31.503124Q204.84688 31.26875 203.40938 30.909374Q201.47188 30.409374 200.72188 30.065624Q199.9875 29.70625 199.59688 29.08125Q199.20625 28.440624 199.20625 27.675Q199.20625 26.9875 199.51875 26.39375Q199.84688 25.8 200.39375 25.409374Q200.8 25.1125 201.50313 24.909374Q202.22188 24.690624 203.03438 24.690624Q204.25313 24.690624 205.175 25.05Q206.09688 25.39375 206.53438 26.003124Q206.97188 26.596874 207.14375 27.596874L205.425 27.83125Q205.3 27.034374 204.7375 26.596874Q204.175 26.14375 203.15938 26.14375Q201.94063 26.14375 201.425 26.55Q200.90938 26.940624 200.90938 27.471874Q200.90938 27.815624 201.12813 28.096874Q201.33125 28.378124 201.8 28.565624Q202.06563 28.659374 203.34688 29.003124Q205.22188 29.503124 205.95625 29.83125Q206.69063 30.14375 207.1125 30.753124Q207.53438 31.346874 207.53438 32.253124Q207.53438 33.128124 207.01875 33.909374Q206.50313 34.690624 205.53438 35.1125Q204.56563 35.534374 203.34688 35.534374Q201.33125 35.534374 200.26875 34.690624Q199.20625 33.846874 198.90938 32.20625ZM210.1125 35.3L210.1125 33.3L212.1125 33.3L212.1125 35.3L210.1125 35.3ZM221.76875 35.3L221.76875 20.9875L227.14375 20.9875Q228.78438 20.9875 229.76875 21.425Q230.75313 21.846874 231.31563 22.753124Q231.87813 23.659374 231.87813 24.64375Q231.87813 25.565624 231.37813 26.378124Q230.89375 27.190624 229.87813 27.675Q231.175 28.065624 231.87813 28.9875Q232.58125 29.89375 232.58125 31.14375Q232.58125 32.159374 232.14375 33.01875Q231.72188 33.878124 231.09688 34.346874Q230.47188 34.815624 229.53438 35.065624Q228.59688 35.3 227.22188 35.3L221.76875 35.3ZM223.65938 27.003124L226.75313 27.003124Q228.01875 27.003124 228.56563 26.83125Q229.28438 26.6125 229.64375 26.128124Q230.01875 25.628124 230.01875 24.8625Q230.01875 24.159374 229.675 23.6125Q229.33125 23.065624 228.69063 22.878124Q228.06563 22.675 226.51875 22.675L223.65938 22.675L223.65938 27.003124ZM223.65938 33.6125L227.22188 33.6125Q228.14375 33.6125 228.51875 33.534374Q229.175 33.425 229.6125 33.159374Q230.05 32.878124 230.33125 32.3625Q230.6125 31.83125 230.6125 31.14375Q230.6125 30.346874 230.20625 29.753124Q229.8 29.159374 229.06563 28.925Q228.33125 28.690624 226.97188 28.690624L223.65938 28.690624L223.65938 33.6125ZM234.59688 35.3L234.59688 24.925L236.175 24.925L236.175 26.503124Q236.78438 25.39375 237.3 25.05Q237.81563 24.690624 238.425 24.690624Q239.31563 24.690624 240.2375 25.253124L239.62813 26.89375Q238.9875 26.503124 238.34688 26.503124Q237.76875 26.503124 237.3 26.8625Q236.84688 27.20625 236.64375 27.815624Q236.3625 28.753124 236.3625 29.8625L236.3625 35.3L234.59688 35.3ZM241.62813 23.003124L241.62813 20.9875L243.39375 20.9875L243.39375 23.003124L241.62813 23.003124ZM241.62813 35.3L241.62813 24.925L243.39375 24.925L243.39375 35.3L241.62813 35.3ZM252.34688 35.3L252.34688 33.9875Q251.3625 35.534374 249.44063 35.534374Q248.20625 35.534374 247.15938 34.846874Q246.12813 34.159374 245.55 32.940624Q244.9875 31.721874 244.9875 30.128124Q244.9875 28.565624 245.50313 27.3Q246.01875 26.034374 247.05 25.3625Q248.09688 24.690624 249.3625 24.690624Q250.3 24.690624 251.03438 25.096874Q251.76875 25.4875 252.2375 26.1125L252.2375 20.9875L253.97188 20.9875L253.97188 35.3L252.34688 35.3ZM246.78438 30.128124Q246.78438 32.1125 247.62813 33.096874Q248.47188 34.08125 249.6125 34.08125Q250.76875 34.08125 251.56563 33.14375Q252.37813 32.20625 252.37813 30.26875Q252.37813 28.14375 251.55 27.14375Q250.7375 26.14375 249.53438 26.14375Q248.3625 26.14375 247.56563 27.1125Q246.78438 28.065624 246.78438 30.128124ZM256.3 36.159374L258.0031 36.409374Q258.1125 37.20625 258.59686 37.565624Q259.2531 38.05 260.39374 38.05Q261.6125 38.05 262.26874 37.565624Q262.9406 37.08125 263.175 36.20625Q263.3156 35.659374 263.3 33.940624Q262.14374 35.3 260.425 35.3Q258.28436 35.3 257.1125 33.753124Q255.94063 32.20625 255.94063 30.05Q255.94063 28.565624 256.47186 27.315624Q257.01874 26.065624 258.03436 25.378124Q259.0656 24.690624 260.4406 24.690624Q262.26874 24.690624 263.47186 26.175L263.47186 24.925L265.08124 24.925L265.08124 33.89375Q265.08124 36.315624 264.58124 37.315624Q264.09686 38.33125 263.01874 38.909374Q261.95624 39.503124 260.39374 39.503124Q258.55 39.503124 257.39374 38.675Q256.2531 37.846874 256.3 36.159374ZM257.7531 29.925Q257.7531 31.971874 258.5656 32.909374Q259.3781 33.846874 260.59686 33.846874Q261.8 33.846874 262.6125 32.909374Q263.4406 31.971874 263.4406 29.9875Q263.4406 28.08125 262.59686 27.1125Q261.7531 26.14375 260.5656 26.14375Q259.39374 26.14375 258.5656 27.096874Q257.7531 28.05 257.7531 29.925ZM274.72186 31.95625L276.53436 32.190624Q276.1125 33.76875 274.9406 34.659374Q273.78436 35.534374 271.97186 35.534374Q269.70624 35.534374 268.3625 34.14375Q267.03436 32.7375 267.03436 30.20625Q267.03436 27.58125 268.3781 26.14375Q269.72186 24.690624 271.8781 24.690624Q273.95624 24.690624 275.26874 26.1125Q276.59686 27.51875 276.59686 30.096874Q276.59686 30.253124 276.58124 30.565624L268.84686 30.565624Q268.9406 32.26875 269.8156 33.175Q270.6906 34.08125 271.9875 34.08125Q272.95624 34.08125 273.6281 33.58125Q274.3156 33.065624 274.72186 31.95625ZM268.9406 29.1125L274.7375 29.1125Q274.6281 27.815624 274.08124 27.159374Q273.2375 26.14375 271.89374 26.14375Q270.6906 26.14375 269.8625 26.95625Q269.03436 27.753124 268.9406 29.1125ZM284.8781 35.3L284.8781 20.9875L291.22186 20.9875Q293.1281 20.9875 294.1281 21.378124Q295.1281 21.753124 295.72186 22.7375Q296.3156 23.70625 296.3156 24.89375Q296.3156 26.409374 295.33124 27.45625Q294.34686 28.503124 292.28436 28.784374Q293.03436 29.14375 293.425 29.503124Q294.2531 30.253124 295.0031 31.409374L297.4875 35.3L295.1125 35.3L293.20624 32.315624Q292.3781 31.034374 291.84686 30.346874Q291.3156 29.659374 290.8781 29.39375Q290.45624 29.1125 290.01874 29.003124Q289.6906 28.940624 288.97186 28.940624L286.76874 28.940624L286.76874 35.3L284.8781 35.3ZM286.76874 27.3L290.84686 27.3Q292.14374 27.3 292.8625 27.034374Q293.59686 26.76875 293.97186 26.175Q294.3625 25.58125 294.3625 24.89375Q294.3625 23.878124 293.6281 23.221874Q292.89374 22.565624 291.3 22.565624L286.76874 22.565624L286.76874 27.3ZM305.72186 31.95625L307.53436 32.190624Q307.1125 33.76875 305.9406 34.659374Q304.78436 35.534374 302.97186 35.534374Q300.70624 35.534374 299.3625 34.14375Q298.03436 32.7375 298.03436 30.20625Q298.03436 27.58125 299.3781 26.14375Q300.72186 24.690624 302.8781 24.690624Q304.95624 24.690624 306.26874 26.1125Q307.59686 27.51875 307.59686 30.096874Q307.59686 30.253124 307.58124 30.565624L299.84686 30.565624Q299.9406 32.26875 300.8156 33.175Q301.6906 34.08125 302.9875 34.08125Q303.95624 34.08125 304.6281 33.58125Q305.3156 33.065624 305.72186 31.95625ZM299.9406 29.1125L305.7375 29.1125Q305.6281 27.815624 305.08124 27.159374Q304.2375 26.14375 302.89374 26.14375Q301.6906 26.14375 300.8625 26.95625Q300.03436 27.753124 299.9406 29.1125ZM308.90936 32.20625L310.65936 31.925Q310.8 32.971874 311.47186 33.534374Q312.14374 34.08125 313.34686 34.08125Q314.55 34.08125 315.1281 33.596874Q315.72186 33.096874 315.72186 32.440624Q315.72186 31.846874 315.20624 31.503124Q314.84686 31.26875 313.40936 30.909374Q311.47186 30.409374 310.72186 30.065624Q309.9875 29.70625 309.59686 29.08125Q309.20624 28.440624 309.20624 27.675Q309.20624 26.9875 309.51874 26.39375Q309.84686 25.8 310.39374 25.409374Q310.8 25.1125 311.5031 24.909374Q312.22186 24.690624 313.03436 24.690624Q314.2531 24.690624 315.175 25.05Q316.09686 25.39375 316.53436 26.003124Q316.97186 26.596874 317.14374 27.596874L315.425 27.83125Q315.3 27.034374 314.7375 26.596874Q314.175 26.14375 313.15936 26.14375Q311.9406 26.14375 311.425 26.55Q310.90936 26.940624 310.90936 27.471874Q310.90936 27.815624 311.1281 28.096874Q311.33124 28.378124 311.8 28.565624Q312.0656 28.659374 313.34686 29.003124Q315.22186 29.503124 315.95624 29.83125Q316.6906 30.14375 317.1125 30.753124Q317.53436 31.346874 317.53436 32.253124Q317.53436 33.128124 317.01874 33.909374Q316.5031 34.690624 315.53436 35.1125Q314.5656 35.534374 313.34686 35.534374Q311.33124 35.534374 310.26874 34.690624Q309.20624 33.846874 308.90936 32.20625ZM319.6281 23.003124L319.6281 20.9875L321.39374 20.9875L321.39374 23.003124L319.6281 23.003124ZM319.6281 35.3L319.6281 24.925L321.39374 24.925L321.39374 35.3L319.6281 35.3ZM322.90936 32.20625L324.65936 31.925Q324.8 32.971874 325.47186 33.534374Q326.14374 34.08125 327.34686 34.08125Q328.55 34.08125 329.1281 33.596874Q329.72186 33.096874 329.72186 32.440624Q329.72186 31.846874 329.20624 31.503124Q328.84686 31.26875 327.40936 30.909374Q325.47186 30.409374 324.72186 30.065624Q323.9875 29.70625 323.59686 29.08125Q323.20624 28.440624 323.20624 27.675Q323.20624 26.9875 323.51874 26.39375Q323.84686 25.8 324.39374 25.409374Q324.8 25.1125 325.5031 24.909374Q326.22186 24.690624 327.03436 24.690624Q328.2531 24.690624 329.175 25.05Q330.09686 25.39375 330.53436 26.003124Q330.97186 26.596874 331.14374 27.596874L329.425 27.83125Q329.3 27.034374 328.7375 26.596874Q328.175 26.14375 327.15936 26.14375Q325.9406 26.14375 325.425 26.55Q324.90936 26.940624 324.90936 27.471874Q324.90936 27.815624 325.1281 28.096874Q325.33124 28.378124 325.8 28.565624Q326.0656 28.659374 327.34686 29.003124Q329.22186 29.503124 329.95624 29.83125Q330.6906 30.14375 331.1125 30.753124Q331.53436 31.346874 331.53436 32.253124Q331.53436 33.128124 331.01874 33.909374Q330.5031 34.690624 329.53436 35.1125Q328.5656 35.534374 327.34686 35.534374Q325.33124 35.534374 324.26874 34.690624Q323.20624 33.846874 322.90936 32.20625ZM337.45624 33.721874L337.70624 35.284374Q336.97186 35.440624 336.3781 35.440624Q335.425 35.440624 334.89374 35.14375Q334.3781 34.83125 334.15936 34.346874Q333.9406 33.846874 333.9406 32.26875L333.9406 26.3L332.65936 26.3L332.65936 24.925L333.9406 24.925L333.9406 22.3625L335.6906 21.3L335.6906 24.925L337.45624 24.925L337.45624 26.3L335.6906 26.3L335.6906 32.3625Q335.6906 33.1125 335.78436 33.33125Q335.8781 33.534374 336.08124 33.675Q336.3 33.8 336.6906 33.8Q336.97186 33.8 337.45624 33.721874ZM338.97186 30.1125Q338.97186 27.2375 340.5656 25.846874Q341.90936 24.690624 343.83124 24.690624Q345.97186 24.690624 347.3156 26.096874Q348.675 27.503124 348.675 29.971874Q348.675 31.971874 348.08124 33.128124Q347.4875 34.26875 346.33124 34.909374Q345.1906 35.534374 343.83124 35.534374Q341.64374 35.534374 340.3 34.14375Q338.97186 32.7375 338.97186 30.1125ZM340.76874 30.1125Q340.76874 32.1125 341.6281 33.096874Q342.5031 34.08125 343.83124 34.08125Q345.14374 34.08125 346.0031 33.096874Q346.8781 32.096874 346.8781 30.05Q346.8781 28.128124 346.0031 27.14375Q345.1281 26.14375 343.83124 26.14375Q342.5031 26.14375 341.6281 27.14375Q340.76874 28.128124 340.76874 30.1125ZM350.59686 35.3L350.59686 24.925L352.175 24.925L352.175 26.503124Q352.78436 25.39375 353.3 25.05Q353.8156 24.690624 354.425 24.690624Q355.3156 24.690624 356.2375 25.253124L355.6281 26.89375Q354.9875 26.503124 354.34686 26.503124Q353.76874 26.503124 353.3 26.8625Q352.84686 27.20625 352.64374 27.815624Q352.3625 28.753124 352.3625 29.8625L352.3625 35.3L350.59686 35.3ZM363.8781 35.3L363.8781 20.9875L370.22186 20.9875Q372.1281 20.9875 373.1281 21.378124Q374.1281 21.753124 374.72186 22.7375Q375.3156 23.70625 375.3156 24.89375Q375.3156 26.409374 374.33124 27.45625Q373.34686 28.503124 371.28436 28.784374Q372.03436 29.14375 372.425 29.503124Q373.2531 30.253124 374.0031 31.409374L376.4875 35.3L374.1125 35.3L372.20624 32.315624Q371.3781 31.034374 370.84686 30.346874Q370.3156 29.659374 369.8781 29.39375Q369.45624 29.1125 369.01874 29.003124Q368.6906 28.940624 367.97186 28.940624L365.76874 28.940624L365.76874 35.3L363.8781 35.3ZM365.76874 27.3L369.84686 27.3Q371.14374 27.3 371.8625 27.034374Q372.59686 26.76875 372.97186 26.175Q373.3625 25.58125 373.3625 24.89375Q373.3625 23.878124 372.6281 23.221874Q371.89374 22.565624 370.3 22.565624L365.76874 22.565624L365.76874 27.3ZM384.39374 34.01875Q383.40936 34.846874 382.5031 35.190624Q381.59686 35.534374 380.5656 35.534374Q378.8625 35.534374 377.9406 34.70625Q377.01874 33.8625 377.01874 32.565624Q377.01874 31.8 377.3625 31.175Q377.72186 30.55 378.28436 30.175Q378.84686 29.784374 379.55 29.58125Q380.0656 29.45625 381.1125 29.315624Q383.2375 29.065624 384.2375 28.721874Q384.2531 28.3625 384.2531 28.253124Q384.2531 27.190624 383.7531 26.7375Q383.08124 26.14375 381.7531 26.14375Q380.5031 26.14375 379.90936 26.58125Q379.33124 27.01875 379.05 28.128124L377.33124 27.89375Q377.5656 26.784374 378.09686 26.1125Q378.6281 25.425 379.64374 25.065624Q380.65936 24.690624 382.0031 24.690624Q383.33124 24.690624 384.15936 25.003124Q384.9875 25.315624 385.3781 25.8Q385.76874 26.26875 385.925 26.9875Q386.01874 27.440624 386.01874 28.6125L386.01874 30.95625Q386.01874 33.409374 386.1281 34.065624Q386.2375 34.70625 386.58124 35.3L384.7375 35.3Q384.47186 34.753124 384.39374 34.01875ZM384.2375 30.096874Q383.28436 30.4875 381.3625 30.753124Q380.28436 30.909374 379.83124 31.1125Q379.39374 31.3 379.14374 31.675Q378.89374 32.05 378.89374 32.51875Q378.89374 33.221874 379.425 33.690624Q379.95624 34.159374 380.9875 34.159374Q382.0031 34.159374 382.78436 33.721874Q383.58124 33.26875 383.95624 32.503124Q384.2375 31.89375 384.2375 30.7375L384.2375 30.096874ZM392.45624 33.721874L392.70624 35.284374Q391.97186 35.440624 391.3781 35.440624Q390.425 35.440624 389.89374 35.14375Q389.3781 34.83125 389.15936 34.346874Q388.9406 33.846874 388.9406 32.26875L388.9406 26.3L387.65936 26.3L387.65936 24.925L388.9406 24.925L388.9406 22.3625L390.6906 21.3L390.6906 24.925L392.45624 24.925L392.45624 26.3L390.6906 26.3L390.6906 32.3625Q390.6906 33.1125 390.78436 33.33125Q390.8781 33.534374 391.08124 33.675Q391.3 33.8 391.6906 33.8Q391.97186 33.8 392.45624 33.721874ZM394.6281 23.003124L394.6281 20.9875L396.39374 20.9875L396.39374 23.003124L394.6281 23.003124ZM394.6281 35.3L394.6281 24.925L396.39374 24.925L396.39374 35.3L394.6281 35.3ZM397.97186 30.1125Q397.97186 27.2375 399.5656 25.846874Q400.90936 24.690624 402.83124 24.690624Q404.97186 24.690624 406.3156 26.096874Q407.675 27.503124 407.675 29.971874Q407.675 31.971874 407.08124 33.128124Q406.4875 34.26875 405.33124 34.909374Q404.1906 35.534374 402.83124 35.534374Q400.64374 35.534374 399.3 34.14375Q397.97186 32.7375 397.97186 30.1125ZM399.76874 30.1125Q399.76874 32.1125 400.6281 33.096874Q401.5031 34.08125 402.83124 34.08125Q404.14374 34.08125 405.0031 33.096874Q405.8781 32.096874 405.8781 30.05Q405.8781 28.128124 405.0031 27.14375Q404.1281 26.14375 402.83124 26.14375Q401.5031 26.14375 400.6281 27.14375Q399.76874 28.128124 399.76874 30.1125ZM415.8781 35.3L415.8781 20.9875L422.22186 20.9875Q424.1281 20.9875 425.1281 21.378124Q426.1281 21.753124 426.72186 22.7375Q427.3156 23.70625 427.3156 24.89375Q427.3156 26.409374 426.33124 27.45625Q425.34686 28.503124 423.28436 28.784374Q424.03436 29.14375 424.425 29.503124Q425.2531 30.253124 426.0031 31.409374L428.4875 35.3L426.1125 35.3L424.20624 32.315624Q423.3781 31.034374 422.84686 30.346874Q422.3156 29.659374 421.8781 29.39375Q421.45624 29.1125 421.01874 29.003124Q420.6906 28.940624 419.97186 28.940624L417.76874 28.940624L417.76874 35.3L415.8781 35.3ZM417.76874 27.3L421.84686 27.3Q423.14374 27.3 423.8625 27.034374Q424.59686 26.76875 424.97186 26.175Q425.3625 25.58125 425.3625 24.89375Q425.3625 23.878124 424.6281 23.221874Q423.89374 22.565624 422.3 22.565624L417.76874 22.565624L417.76874 27.3ZM434.76874 35.3L434.76874 31.878124L428.55 31.878124L428.55 30.253124L435.08124 20.9875L436.51874 20.9875L436.51874 30.253124L438.45624 30.253124L438.45624 31.878124L436.51874 31.878124L436.51874 35.3L434.76874 35.3ZM434.76874 30.253124L434.76874 23.8L430.28436 30.253124L434.76874 30.253124ZM439.3 35.55L443.45624 20.7375L444.8625 20.7375L440.72186 35.55L439.3 35.55ZM446.8781 35.3L446.8781 20.9875L453.22186 20.9875Q455.1281 20.9875 456.1281 21.378124Q457.1281 21.753124 457.72186 22.7375Q458.3156 23.70625 458.3156 24.89375Q458.3156 26.409374 457.33124 27.45625Q456.34686 28.503124 454.28436 28.784374Q455.03436 29.14375 455.425 29.503124Q456.2531 30.253124 457.0031 31.409374L459.4875 35.3L457.1125 35.3L455.20624 32.315624Q454.3781 31.034374 453.84686 30.346874Q453.3156 29.659374 452.8781 29.39375Q452.45624 29.1125 452.01874 29.003124Q451.6906 28.940624 450.97186 28.940624L448.76874 28.940624L448.76874 35.3L446.8781 35.3ZM448.76874 27.3L452.84686 27.3Q454.14374 27.3 454.8625 27.034374Q455.59686 26.76875 455.97186 26.175Q456.3625 25.58125 456.3625 24.89375Q456.3625 23.878124 455.6281 23.221874Q454.89374 22.565624 453.3 22.565624L448.76874 22.565624L448.76874 27.3ZM460.14374 31.51875L461.89374 31.284374Q462.20624 32.784374 462.925 33.440624Q463.65936 34.096874 464.70624 34.096874Q465.9406 34.096874 466.78436 33.2375Q467.64374 32.378124 467.64374 31.1125Q467.64374 29.89375 466.84686 29.1125Q466.0656 28.33125 464.84686 28.33125Q464.34686 28.33125 463.6125 28.51875L463.8 26.971874Q463.97186 27.003124 464.08124 27.003124Q465.20624 27.003124 466.09686 26.425Q467.0031 25.83125 467.0031 24.6125Q467.0031 23.64375 466.34686 23.003124Q465.6906 22.3625 464.65936 22.3625Q463.64374 22.3625 462.95624 23.01875Q462.26874 23.659374 462.08124 24.940624L460.3156 24.628124Q460.64374 22.8625 461.78436 21.89375Q462.925 20.925 464.6281 20.925Q465.8 20.925 466.78436 21.425Q467.76874 21.925 468.28436 22.8Q468.8156 23.675 468.8156 24.64375Q468.8156 25.565624 468.3156 26.33125Q467.8156 27.096874 466.84686 27.55Q468.1125 27.83125 468.8156 28.76875Q469.51874 29.690624 469.51874 31.065624Q469.51874 32.940624 468.14374 34.253124Q466.78436 35.55 464.6906 35.55Q462.8 35.55 461.55 34.425Q460.3156 33.3 460.14374 31.51875Z" fill-rule="nonzero"/></svg>